<?xml version="1.0" encoding="UTF-8"?>
<svg xmlns="http://www.w3.org/2000/svg" width="434.05mm" height="494.3mm" viewBox="0 0 434.05 494.3">
<style>
.cut { fill: none; stroke: #000000; stroke-width: 0.15; vector-effect: non-scaling-stroke; }
</style>
<rect x="0" y="0" width="434.05" height="494.3" fill="#ffffff" />
<path d="M 209.05 14.95 L 212.05 14.95 L 212.05 27.05 L 209.05 27.05 L 209.05 38.95 L 212.05 38.95 L 212.05 51.05 L 209.05 51.05 L 209.05 62.95 L 212.05 62.95 L 212.05 75.05 L 209.05 75.05 L 209.05 86.95 L 212.05 86.95 L 212.05 99.05 L 209.05 99.05 L 209.05 110.95 L 212.05 110.95 L 212.05 123.05 L 209.05 123.05 L 209.05 134.95 L 212.05 134.95 L 212.05 147.05 L 209.05 147.05 L 209.05 162.05 L 196.825 162.05 L 196.825 159.05 L 184.8 159.05 L 184.8 162.05 L 172.575 162.05 L 172.575 159.05 L 160.55 159.05 L 160.55 162.05 L 148.325 162.05 L 148.325 159.05 L 136.3 159.05 L 136.3 162.05 L 124.075 162.05 L 124.075 159.05 L 112.05 159.05 L 112.05 162.05 L 99.825 162.05 L 99.825 159.05 L 87.8 159.05 L 87.8 162.05 L 75.575 162.05 L 75.575 159.05 L 63.55 159.05 L 63.55 162.05 L 51.325 162.05 L 51.325 159.05 L 39.3 159.05 L 39.3 162.05 L 27.075 162.05 L 27.075 159.05 L 11.95 159.05 L 11.95 146.95 L 14.95 146.95 L 14.95 135.05 L 11.95 135.05 L 11.95 122.95 L 14.95 122.95 L 14.95 111.05 L 11.95 111.05 L 11.95 98.95 L 14.95 98.95 L 14.95 87.05 L 11.95 87.05 L 11.95 74.95 L 14.95 74.95 L 14.95 63.05 L 11.95 63.05 L 11.95 50.95 L 14.95 50.95 L 14.95 39.05 L 11.95 39.05 L 11.95 26.95 L 14.95 26.95 L 14.95 14.95 L 27.075 14.95 L 27.075 11.95 L 39.3 11.95 L 39.3 14.95 L 51.325 14.95 L 51.325 11.95 L 63.55 11.95 L 63.55 14.95 L 75.575 14.95 L 75.575 11.95 L 87.8 11.95 L 87.8 14.95 L 99.825 14.95 L 99.825 11.95 L 112.05 11.95 L 112.05 14.95 L 124.075 14.95 L 124.075 11.95 L 136.3 11.95 L 136.3 14.95 L 148.325 14.95 L 148.325 11.95 L 160.55 11.95 L 160.55 14.95 L 172.575 14.95 L 172.575 11.95 L 184.8 11.95 L 184.8 14.95 L 196.825 14.95 L 196.825 11.95 L 209.05 11.95 Z" class="cut" />
<path d="M 199.2 103.5 L 199.2 106.5 L 194.8 106.5 L 194.8 103.5 Z" class="cut" />
<path d="M 29.2 103.5 L 29.2 106.5 L 24.8 106.5 L 24.8 103.5 Z" class="cut" />
<path d="M 113.5 114.8 L 113.5 119.2 L 110.5 119.2 L 110.5 114.8 Z" class="cut" />
<path d="M 113.5 144.8 L 113.5 149.2 L 110.5 149.2 L 110.5 144.8 Z" class="cut" />
<path d="M 422.05 11.95 L 422.05 156.05 L 221.95 156.05 L 221.95 11.95 Z" class="cut" />
<path d="M 212.05 171.95 L 212.05 184.55 L 209.05 184.55 L 209.05 196.95 L 212.05 196.95 L 212.05 209.55 L 209.05 209.55 L 209.05 221.95 L 212.05 221.95 L 212.05 234.55 L 209.05 234.55 L 209.05 246.95 L 212.05 246.95 L 212.05 259.55 L 209.05 259.55 L 209.05 269.05 L 196.925 269.05 L 196.925 272.05 L 184.7 272.05 L 184.7 269.05 L 172.675 269.05 L 172.675 272.05 L 160.45 272.05 L 160.45 269.05 L 148.425 269.05 L 148.425 272.05 L 136.2 272.05 L 136.2 269.05 L 124.175 269.05 L 124.175 272.05 L 111.95 272.05 L 111.95 269.05 L 99.925 269.05 L 99.925 272.05 L 87.7 272.05 L 87.7 269.05 L 75.675 269.05 L 75.675 272.05 L 63.45 272.05 L 63.45 269.05 L 51.425 269.05 L 51.425 272.05 L 39.2 272.05 L 39.2 269.05 L 27.175 269.05 L 27.175 272.05 L 14.95 272.05 L 14.95 259.55 L 11.95 259.55 L 11.95 246.95 L 14.95 246.95 L 14.95 234.55 L 11.95 234.55 L 11.95 221.95 L 14.95 221.95 L 14.95 209.55 L 11.95 209.55 L 11.95 196.95 L 14.95 196.95 L 14.95 184.55 L 11.95 184.55 L 11.95 171.95 Z" class="cut" />
<path d="M 15.05 175.05 L 208.95 175.05 L 208.95 178.15 L 20.95 178.15 L 20.95 181.15 L 15.05 181.15 Z" class="cut" />
<path d="M 110.5 259.05 L 113.5 259.05 L 113.5 263.45 L 110.5 263.45 Z" class="cut" />
<path d="M 422.05 171.95 L 422.05 184.55 L 419.05 184.55 L 419.05 196.95 L 422.05 196.95 L 422.05 209.55 L 419.05 209.55 L 419.05 221.95 L 422.05 221.95 L 422.05 234.55 L 419.05 234.55 L 419.05 246.95 L 422.05 246.95 L 422.05 259.55 L 419.05 259.55 L 419.05 269.05 L 406.925 269.05 L 406.925 272.05 L 394.7 272.05 L 394.7 269.05 L 382.675 269.05 L 382.675 272.05 L 370.45 272.05 L 370.45 269.05 L 358.425 269.05 L 358.425 272.05 L 346.2 272.05 L 346.2 269.05 L 334.175 269.05 L 334.175 272.05 L 321.95 272.05 L 321.95 269.05 L 309.925 269.05 L 309.925 272.05 L 297.7 272.05 L 297.7 269.05 L 285.675 269.05 L 285.675 272.05 L 273.45 272.05 L 273.45 269.05 L 261.425 269.05 L 261.425 272.05 L 249.2 272.05 L 249.2 269.05 L 237.175 269.05 L 237.175 272.05 L 224.95 272.05 L 224.95 259.55 L 221.95 259.55 L 221.95 246.95 L 224.95 246.95 L 224.95 234.55 L 221.95 234.55 L 221.95 221.95 L 224.95 221.95 L 224.95 209.55 L 221.95 209.55 L 221.95 196.95 L 224.95 196.95 L 224.95 184.55 L 221.95 184.55 L 221.95 171.95 Z" class="cut" />
<path d="M 225.05 175.05 L 418.95 175.05 L 418.95 178.15 L 230.95 178.15 L 230.95 181.15 L 225.05 181.15 Z" class="cut" />
<path d="M 320.5 259.05 L 323.5 259.05 L 323.5 263.45 L 320.5 263.45 Z" class="cut" />
<path d="M 14.85 281.95 L 208.95 281.95 L 208.95 359.2 L 211.85 359.2 L 211.85 363.8 L 208.95 363.8 L 208.95 372.3 L 199.2 372.3 L 199.2 375.2 L 194.6 375.2 L 194.6 372.3 L 29.2 372.3 L 29.2 375.2 L 24.6 375.2 L 24.6 372.3 L 14.85 372.3 L 14.85 363.8 L 11.95 363.8 L 11.95 359.2 L 14.85 359.2 Z" class="cut" />
<path d="M 110.4 361.8 L 113.4 361.8 L 113.4 366.2 L 110.4 366.2 Z" class="cut" />
<path d="M 159.05 382.2 L 159.05 394.7 L 162.05 394.7 L 162.05 407.3 L 159.05 407.3 L 159.05 419.7 L 162.05 419.7 L 162.05 432.3 L 159.05 432.3 L 159.05 444.7 L 162.05 444.7 L 162.05 457.3 L 159.05 457.3 L 159.05 469.7 L 162.05 469.7 L 162.05 479.3 L 149.55 479.3 L 149.55 482.3 L 136.95 482.3 L 136.95 479.3 L 124.55 479.3 L 124.55 482.3 L 111.95 482.3 L 111.95 479.3 L 99.55 479.3 L 99.55 482.3 L 86.95 482.3 L 86.95 479.3 L 74.55 479.3 L 74.55 482.3 L 61.95 482.3 L 61.95 479.3 L 49.55 479.3 L 49.55 482.3 L 36.95 482.3 L 36.95 479.3 L 24.55 479.3 L 24.55 482.3 L 11.95 482.3 L 11.95 469.7 L 14.95 469.7 L 14.95 457.3 L 11.95 457.3 L 11.95 444.7 L 14.95 444.7 L 14.95 432.3 L 11.95 432.3 L 11.95 419.7 L 14.95 419.7 L 14.95 407.3 L 11.95 407.3 L 11.95 394.7 L 14.95 394.7 L 14.95 382.2 Z" class="cut" />
<path d="M 103.5 469.3 L 106.5 469.3 L 106.5 473.7 L 103.5 473.7 Z" class="cut" />
<path d="M 319.05 382.2 L 319.05 394.7 L 322.05 394.7 L 322.05 407.3 L 319.05 407.3 L 319.05 419.7 L 322.05 419.7 L 322.05 432.3 L 319.05 432.3 L 319.05 444.7 L 322.05 444.7 L 322.05 457.3 L 319.05 457.3 L 319.05 469.7 L 322.05 469.7 L 322.05 479.3 L 309.55 479.3 L 309.55 482.3 L 296.95 482.3 L 296.95 479.3 L 284.55 479.3 L 284.55 482.3 L 271.95 482.3 L 271.95 479.3 L 259.55 479.3 L 259.55 482.3 L 246.95 482.3 L 246.95 479.3 L 234.55 479.3 L 234.55 482.3 L 221.95 482.3 L 221.95 479.3 L 209.55 479.3 L 209.55 482.3 L 196.95 482.3 L 196.95 479.3 L 184.55 479.3 L 184.55 482.3 L 171.95 482.3 L 171.95 469.7 L 174.95 469.7 L 174.95 457.3 L 171.95 457.3 L 171.95 444.7 L 174.95 444.7 L 174.95 432.3 L 171.95 432.3 L 171.95 419.7 L 174.95 419.7 L 174.95 407.3 L 171.95 407.3 L 171.95 394.7 L 174.95 394.7 L 174.95 382.2 Z" class="cut" />
<path d="M 263.5 469.3 L 266.5 469.3 L 266.5 473.7 L 263.5 473.7 Z" class="cut" />
<path d="M 224.65 281.95 L 278.75 281.95 L 278.75 359.2 L 281.65 359.2 L 281.65 363.8 L 278.75 363.8 L 278.75 372.3 L 269 372.3 L 269 375.2 L 264.4 375.2 L 264.4 372.3 L 239 372.3 L 239 375.2 L 234.4 375.2 L 234.4 372.3 L 224.65 372.3 L 224.65 363.8 L 221.75 363.8 L 221.75 359.2 L 224.65 359.2 Z" class="cut" />
</svg>