<?xml version="1.0" encoding="UTF-8"?>
<svg xmlns="http://www.w3.org/2000/svg" width="618mm" height="552.25mm" viewBox="0 0 618 552.25">
<style>
text { font-family: "Segoe UI", sans-serif; fill: #1f2937; }
.title { font-size: 8px; font-weight: 700; }
.subtitle { font-size: 6px; font-weight: 700; fill: #0f172a; }
.meta { font-size: 4.2px; }
.label { font-size: 5px; font-weight: 600; }
.note { font-size: 3.2px; }
.logo-frame { fill: #ffffff; stroke: #0f172a; stroke-width: 0.8; }
.logo-solid { fill: #0f172a; }
.logo-line { fill: none; stroke: #0f172a; stroke-width: 0.8; stroke-linecap: round; stroke-linejoin: round; }
.sheet { fill: #f8fafc; stroke: #64748b; stroke-width: 0.5; stroke-dasharray: 3 2; }
.part { fill: #e2e8f0; stroke: #0f172a; stroke-width: 0.4; }
.inner-cut { fill: rgba(148, 163, 184, 0.18); stroke: #475569; stroke-width: 0.25; }
.marker-line { stroke: #64748b; stroke-width: 0.35; }
.marker-badge { fill: #ffffff; stroke: #0f172a; stroke-width: 0.35; }
.marker-text { font-size: 3.2px; font-weight: 700; text-anchor: middle; dominant-baseline: central; }
.pictogram-line { fill: none; stroke: #0f172a; stroke-width: 0.8; stroke-linecap: round; stroke-linejoin: round; opacity: 0.9; }
.pictogram-chip { fill: #ffffff; stroke: #0f172a; stroke-width: 0.5; }
.pictogram-text { font-size: 4px; font-weight: 700; text-anchor: middle; dominant-baseline: central; fill: #0f172a; }
.legend-box { fill: #ffffff; stroke: #cbd5e1; stroke-width: 0.4; }
.legend-title { font-size: 5px; font-weight: 700; }
.legend-item { font-size: 3.4px; }
</style>
<rect x="0" y="0" width="618" height="552.25" fill="#ffffff" />
<g transform="translate(12 10)">
<rect x="0" y="0" width="26" height="26" rx="4" class="logo-frame" />
<path d="M 5.5 10.5 L 13 6.5 L 20.5 10.5 L 13 14.5 Z" class="logo-line" />
<path d="M 5.5 10.5 L 5.5 18.2 L 13 22 L 13 14.5" class="logo-line" />
<path d="M 20.5 10.5 L 20.5 18.2 L 13 22 L 13 14.5" class="logo-line" />
<path d="M 8.2 12.1 L 8.2 16.3 L 10.6 17.5 L 10.6 13.4 Z" class="logo-line" />
<path d="M 15.4 13.4 L 15.4 17.5 L 17.8 16.3 L 17.8 12.1 Z" class="logo-line" />
<path d="M 11.6 15.6 L 14.4 17" class="logo-line" />
<rect x="6.2" y="6.2" width="2.1" height="2.1" class="logo-solid" rx="0.5" />
<rect x="17.7" y="6.2" width="2.1" height="2.1" class="logo-solid" rx="0.5" />
</g>
<text x="48" y="17" class="subtitle">Bento 5 Left 3 Right 2 150x200x100</text>
<text x="48" y="24" class="meta">Type A • Material 3 mm • Kerf 0.1 mm</text>
<text x="48" y="30" class="meta">External 150 × 200 × 100 mm</text>
<text x="48" y="36" class="meta">Internal 144.00 × 194.00 × 90.75 mm</text>
<text x="48" y="42" class="meta">Required sheet envelope 410.00 × 470.25 mm</text>
<text x="48" y="48" class="meta">Layout shows placed parts and internal cuts for sheet-size estimation.</text>
<rect x="12" y="70" width="410" height="470.25" class="sheet" />
<g>
<path d="M 209 73 L 212 73 L 212 85 L 209 85 L 209 97 L 212 97 L 212 109 L 209 109 L 209 121 L 212 121 L 212 133 L 209 133 L 209 145 L 212 145 L 212 157 L 209 157 L 209 169 L 212 169 L 212 181 L 209 181 L 209 193 L 212 193 L 212 205 L 209 205 L 209 217 L 209 220 L 196.875 220 L 196.875 217 L 184.75 217 L 184.75 220 L 172.625 220 L 172.625 217 L 160.5 217 L 160.5 220 L 148.375 220 L 148.375 217 L 136.25 217 L 136.25 220 L 124.125 220 L 124.125 217 L 112 217 L 112 220 L 99.875 220 L 99.875 217 L 87.75 217 L 87.75 220 L 75.625 220 L 75.625 217 L 63.5 217 L 63.5 220 L 51.375 220 L 51.375 217 L 39.25 217 L 39.25 220 L 27.125 220 L 27.125 217 L 15 217 L 12 217 L 12 205 L 15 205 L 15 193 L 12 193 L 12 181 L 15 181 L 15 169 L 12 169 L 12 157 L 15 157 L 15 145 L 12 145 L 12 133 L 15 133 L 15 121 L 12 121 L 12 109 L 15 109 L 15 97 L 12 97 L 12 85 L 15 85 L 15 73 L 27.125 73 L 27.125 70 L 39.25 70 L 39.25 73 L 51.375 73 L 51.375 70 L 63.5 70 L 63.5 73 L 75.625 73 L 75.625 70 L 87.75 70 L 87.75 73 L 99.875 73 L 99.875 70 L 112 70 L 112 73 L 124.125 73 L 124.125 70 L 136.25 70 L 136.25 73 L 148.375 73 L 148.375 70 L 160.5 70 L 160.5 73 L 172.625 73 L 172.625 70 L 184.75 70 L 184.75 73 L 196.875 73 L 196.875 70 L 209 70 Z" class="part" />
<path d="M 199.25 143.45 L 199.25 146.55 L 194.75 146.55 L 194.75 143.45 Z" class="inner-cut" />
<path d="M 29.25 143.45 L 29.25 146.55 L 24.75 146.55 L 24.75 143.45 Z" class="inner-cut" />
<path d="M 152.55 82.75 L 152.55 87.25 L 149.45 87.25 L 149.45 82.75 Z" class="inner-cut" />
<path d="M 152.55 130.75 L 152.55 135.25 L 149.45 135.25 L 149.45 130.75 Z" class="inner-cut" />
<path d="M 74.55 82.75 L 74.55 87.25 L 71.45 87.25 L 71.45 82.75 Z" class="inner-cut" />
<path d="M 74.55 130.75 L 74.55 135.25 L 71.45 135.25 L 71.45 130.75 Z" class="inner-cut" />
<path d="M 113.55 154.75 L 113.55 159.25 L 110.45 159.25 L 110.45 154.75 Z" class="inner-cut" />
<path d="M 113.55 202.75 L 113.55 207.25 L 110.45 207.25 L 110.45 202.75 Z" class="inner-cut" />

<line x1="112" y1="68.5" x2="112" y2="70" class="marker-line" />
<circle cx="112" cy="64" r="4.5" class="marker-badge" />
<text x="112" y="64" class="marker-text">1</text>
</g>
<g>
<path d="M 422 70 L 422 214 L 222 214 L 222 70 Z" class="part" />

<line x1="305" y1="142" x2="339" y2="142" class="pictogram-line" />
<path d="M 308.5 138.5 L 305 142 L 308.5 145.5" class="pictogram-line" />
<path d="M 335.5 138.5 L 339 142 L 335.5 145.5" class="pictogram-line" />
<line x1="322" y1="68.5" x2="322" y2="70" class="marker-line" />
<circle cx="322" cy="64" r="4.5" class="marker-badge" />
<text x="322" y="64" class="marker-text">2</text>
</g>
<g>
<path d="M 15 230 L 209 230 L 212 230 L 212 242.5 L 209 242.5 L 209 255 L 212 255 L 212 267.5 L 209 267.5 L 209 280 L 212 280 L 212 292.5 L 209 292.5 L 209 305 L 212 305 L 212 317.5 L 209 317.5 L 209 330 L 209 327 L 196.875 327 L 196.875 330 L 184.75 330 L 184.75 327 L 172.625 327 L 172.625 330 L 160.5 330 L 160.5 327 L 148.375 327 L 148.375 330 L 136.25 330 L 136.25 327 L 124.125 327 L 124.125 330 L 112 330 L 112 327 L 99.875 327 L 99.875 330 L 87.75 330 L 87.75 327 L 75.625 327 L 75.625 330 L 63.5 330 L 63.5 327 L 51.375 327 L 51.375 330 L 39.25 330 L 39.25 327 L 27.125 327 L 27.125 330 L 15 330 L 15 317.5 L 12 317.5 L 12 305 L 15 305 L 15 292.5 L 12 292.5 L 12 280 L 15 280 L 15 267.5 L 12 267.5 L 12 255 L 15 255 L 15 242.5 L 12 242.5 L 12 230 Z" class="part" />
<path d="M 15 233 L 209 233 L 209 236.2 L 21 236.2 L 21 239.2 L 15 239.2 Z" class="inner-cut" />
<path d="M 71.45 317 L 74.55 317 L 74.55 321.5 L 71.45 321.5 Z" class="inner-cut" />
<path d="M 149.45 317 L 152.55 317 L 152.55 321.5 L 149.45 321.5 Z" class="inner-cut" />
<path d="M 110.45 317 L 113.55 317 L 113.55 321.5 L 110.45 321.5 Z" class="inner-cut" />

<line x1="112" y1="227" x2="112" y2="230" class="marker-line" />
<circle cx="112" cy="222.5" r="4.5" class="marker-badge" />
<text x="112" y="222.5" class="marker-text">3</text>
</g>
<g>
<path d="M 225 230 L 419 230 L 422 230 L 422 242.5 L 419 242.5 L 419 255 L 422 255 L 422 267.5 L 419 267.5 L 419 280 L 422 280 L 422 292.5 L 419 292.5 L 419 305 L 422 305 L 422 317.5 L 419 317.5 L 419 330 L 419 327 L 406.875 327 L 406.875 330 L 394.75 330 L 394.75 327 L 382.625 327 L 382.625 330 L 370.5 330 L 370.5 327 L 358.375 327 L 358.375 330 L 346.25 330 L 346.25 327 L 334.125 327 L 334.125 330 L 322 330 L 322 327 L 309.875 327 L 309.875 330 L 297.75 330 L 297.75 327 L 285.625 327 L 285.625 330 L 273.5 330 L 273.5 327 L 261.375 327 L 261.375 330 L 249.25 330 L 249.25 327 L 237.125 327 L 237.125 330 L 225 330 L 225 317.5 L 222 317.5 L 222 305 L 225 305 L 225 292.5 L 222 292.5 L 222 280 L 225 280 L 225 267.5 L 222 267.5 L 222 255 L 225 255 L 225 242.5 L 222 242.5 L 222 230 Z" class="part" />
<path d="M 225 233 L 419 233 L 419 236.2 L 231 236.2 L 231 239.2 L 225 239.2 Z" class="inner-cut" />
<path d="M 281.45 317 L 284.55 317 L 284.55 321.5 L 281.45 321.5 Z" class="inner-cut" />
<path d="M 359.45 317 L 362.55 317 L 362.55 321.5 L 359.45 321.5 Z" class="inner-cut" />
<path d="M 320.45 317 L 323.55 317 L 323.55 321.5 L 320.45 321.5 Z" class="inner-cut" />

<line x1="322" y1="227" x2="322" y2="230" class="marker-line" />
<circle cx="322" cy="222.5" r="4.5" class="marker-badge" />
<text x="322" y="222.5" class="marker-text">4</text>
</g>
<g>
<path d="M 14.9 340 L 208.9 340 L 208.9 417.25 L 211.8 417.25 L 211.8 421.75 L 208.9 421.75 L 208.9 430.25 L 199.15 430.25 L 199.15 433.15 L 194.65 433.15 L 194.65 430.25 L 29.15 430.25 L 29.15 433.15 L 24.65 433.15 L 24.65 430.25 L 14.9 430.25 L 14.9 421.75 L 12 421.75 L 12 417.25 L 14.9 417.25 Z" class="part" />
<path d="M 71.35 419.75 L 74.45 419.75 L 74.45 424.25 L 71.35 424.25 Z" class="inner-cut" />
<path d="M 149.35 419.75 L 152.45 419.75 L 152.45 424.25 L 149.35 424.25 Z" class="inner-cut" />
<path d="M 110.35 419.75 L 113.45 419.75 L 113.45 424.25 L 110.35 424.25 Z" class="inner-cut" />
<line x1="111.9" y1="372.575" x2="111.9" y2="400.575" class="pictogram-line" />
<circle cx="111.9" cy="386.575" r="5" class="pictogram-chip" />
<text x="111.9" y="386.575" class="pictogram-text">P</text>
<line x1="111.9" y1="337" x2="111.9" y2="340" class="marker-line" />
<circle cx="111.9" cy="332.5" r="4.5" class="marker-badge" />
<text x="111.9" y="332.5" class="marker-text">5</text>
</g>
<g>
<path d="M 12 440.25 L 162 440.25 L 159 440.25 L 159 452.75 L 162 452.75 L 162 465.25 L 159 465.25 L 159 477.75 L 162 477.75 L 162 490.25 L 159 490.25 L 159 502.75 L 162 502.75 L 162 515.25 L 159 515.25 L 159 527.75 L 162 527.75 L 162 540.25 L 162 537.25 L 149.5 537.25 L 149.5 540.25 L 137 540.25 L 137 537.25 L 124.5 537.25 L 124.5 540.25 L 112 540.25 L 112 537.25 L 99.5 537.25 L 99.5 540.25 L 87 540.25 L 87 537.25 L 74.5 537.25 L 74.5 540.25 L 62 540.25 L 62 537.25 L 49.5 537.25 L 49.5 540.25 L 37 540.25 L 37 537.25 L 24.5 537.25 L 24.5 540.25 L 12 540.25 L 12 527.75 L 15 527.75 L 15 515.25 L 12 515.25 L 12 502.75 L 15 502.75 L 15 490.25 L 12 490.25 L 12 477.75 L 15 477.75 L 15 465.25 L 12 465.25 L 12 452.75 L 15 452.75 L 15 440.25 Z" class="part" />
<path d="M 85.45 527.25 L 88.55 527.25 L 88.55 531.75 L 85.45 531.75 Z" class="inner-cut" />

<line x1="87" y1="437.25" x2="87" y2="440.25" class="marker-line" />
<circle cx="87" cy="432.75" r="4.5" class="marker-badge" />
<text x="87" y="432.75" class="marker-text">6</text>
</g>
<g>
<path d="M 172 440.25 L 322 440.25 L 319 440.25 L 319 452.75 L 322 452.75 L 322 465.25 L 319 465.25 L 319 477.75 L 322 477.75 L 322 490.25 L 319 490.25 L 319 502.75 L 322 502.75 L 322 515.25 L 319 515.25 L 319 527.75 L 322 527.75 L 322 540.25 L 322 537.25 L 309.5 537.25 L 309.5 540.25 L 297 540.25 L 297 537.25 L 284.5 537.25 L 284.5 540.25 L 272 540.25 L 272 537.25 L 259.5 537.25 L 259.5 540.25 L 247 540.25 L 247 537.25 L 234.5 537.25 L 234.5 540.25 L 222 540.25 L 222 537.25 L 209.5 537.25 L 209.5 540.25 L 197 540.25 L 197 537.25 L 184.5 537.25 L 184.5 540.25 L 172 540.25 L 172 527.75 L 175 527.75 L 175 515.25 L 172 515.25 L 172 502.75 L 175 502.75 L 175 490.25 L 172 490.25 L 172 477.75 L 175 477.75 L 175 465.25 L 172 465.25 L 172 452.75 L 175 452.75 L 175 440.25 Z" class="part" />
<path d="M 245.45 527.25 L 248.55 527.25 L 248.55 531.75 L 245.45 531.75 Z" class="inner-cut" />

<line x1="247" y1="437.25" x2="247" y2="440.25" class="marker-line" />
<circle cx="247" cy="432.75" r="4.5" class="marker-badge" />
<text x="247" y="432.75" class="marker-text">7</text>
</g>
<g>
<path d="M 224.7 340 L 296.7 340 L 296.7 417.25 L 299.6 417.25 L 299.6 421.75 L 296.7 421.75 L 296.7 430.25 L 286.95 430.25 L 286.95 433.15 L 282.45 433.15 L 282.45 430.25 L 238.95 430.25 L 238.95 433.15 L 234.45 433.15 L 234.45 430.25 L 224.7 430.25 L 224.7 421.75 L 221.8 421.75 L 221.8 417.25 L 224.7 417.25 Z" class="part" />

<line x1="246.70000000000005" y1="386.575" x2="274.70000000000005" y2="386.575" class="pictogram-line" />
<circle cx="260.70000000000005" cy="386.575" r="5" class="pictogram-chip" />
<text x="260.70000000000005" y="386.575" class="pictogram-text">S</text>
<line x1="260.70000000000005" y1="337" x2="260.70000000000005" y2="340" class="marker-line" />
<circle cx="260.70000000000005" cy="332.5" r="4.5" class="marker-badge" />
<text x="260.70000000000005" y="332.5" class="marker-text">8</text>
</g>
<g>
<path d="M 312.5 340 L 384.5 340 L 384.5 417.25 L 387.4 417.25 L 387.4 421.75 L 384.5 421.75 L 384.5 430.25 L 374.75 430.25 L 374.75 433.15 L 370.25 433.15 L 370.25 430.25 L 326.75 430.25 L 326.75 433.15 L 322.25 433.15 L 322.25 430.25 L 312.5 430.25 L 312.5 421.75 L 309.6 421.75 L 309.6 417.25 L 312.5 417.25 Z" class="part" />

<line x1="334.5" y1="386.575" x2="362.5" y2="386.575" class="pictogram-line" />
<circle cx="348.5" cy="386.575" r="5" class="pictogram-chip" />
<text x="348.5" y="386.575" class="pictogram-text">S</text>
<line x1="348.5" y1="337" x2="348.5" y2="340" class="marker-line" />
<circle cx="348.5" cy="332.5" r="4.5" class="marker-badge" />
<text x="348.5" y="332.5" class="marker-text">9</text>
</g>
<g>
<path d="M 334.9 440.25 L 406.9 440.25 L 406.9 517.5 L 409.8 517.5 L 409.8 522 L 406.9 522 L 406.9 530.5 L 397.15 530.5 L 397.15 533.4 L 392.65 533.4 L 392.65 530.5 L 349.15 530.5 L 349.15 533.4 L 344.65 533.4 L 344.65 530.5 L 334.9 530.5 L 334.9 522 L 332 522 L 332 517.5 L 334.9 517.5 Z" class="part" />

<line x1="356.9" y1="486.825" x2="384.9" y2="486.825" class="pictogram-line" />
<circle cx="370.9" cy="486.825" r="5" class="pictogram-chip" />
<text x="370.9" y="486.825" class="pictogram-text">S</text>
<line x1="370.9" y1="437.25" x2="370.9" y2="440.25" class="marker-line" />
<circle cx="370.9" cy="432.75" r="4.5" class="marker-badge" />
<text x="370.9" y="432.75" class="marker-text">10</text>
</g>
<g>
<rect x="438" y="70" width="168" height="187" rx="3" class="legend-box" />
<text x="458" y="79" class="legend-title">Placed Parts</text>
<circle cx="446" cy="90" r="4.5" class="marker-badge" />
<text x="446" y="90" class="marker-text">1</text>
<text x="458" y="88" class="legend-item">Bottom ×1</text>
<text x="458" y="93" class="legend-item">150 × 200 mm</text>
<text x="458" y="98" class="legend-item">Base panel</text>
<circle cx="446" cy="107" r="4.5" class="marker-badge" />
<text x="446" y="107" class="marker-text">2</text>
<text x="458" y="105" class="legend-item">Sliding lid ×1</text>
<text x="458" y="110" class="legend-item">144 × 200 mm</text>
<text x="458" y="115" class="legend-item">Sliding lid with clearance 0.25 mm</text>
<circle cx="446" cy="124" r="4.5" class="marker-badge" />
<text x="446" y="124" class="marker-text">3</text>
<text x="458" y="122" class="legend-item">Left/right wall ×1</text>
<text x="458" y="127" class="legend-item">200 × 100 mm</text>
<text x="458" y="132" class="legend-item">Side walls with stepped lid-rail …</text>
<circle cx="446" cy="141" r="4.5" class="marker-badge" />
<text x="446" y="141" class="marker-text">4</text>
<text x="458" y="139" class="legend-item">Left/right wall ×1</text>
<text x="458" y="144" class="legend-item">200 × 100 mm</text>
<text x="458" y="149" class="legend-item">Side walls with stepped lid-rail …</text>
<circle cx="446" cy="158" r="4.5" class="marker-badge" />
<text x="446" y="158" class="marker-text">5</text>
<text x="458" y="156" class="legend-item">Separator main vertical ×1</text>
<text x="458" y="161" class="legend-item">199.8 × 90.25 mm</text>
<text x="458" y="166" class="legend-item">Type A primary separator, vertica…</text>
<circle cx="446" cy="175" r="4.5" class="marker-badge" />
<text x="446" y="175" class="marker-text">6</text>
<text x="458" y="173" class="legend-item">Front/back wall ×1</text>
<text x="458" y="178" class="legend-item">150 × 100 mm</text>
<text x="458" y="183" class="legend-item">Main walls. Universal layout, rem…</text>
<circle cx="446" cy="192" r="4.5" class="marker-badge" />
<text x="446" y="192" class="marker-text">7</text>
<text x="458" y="190" class="legend-item">Front/back wall ×1</text>
<text x="458" y="195" class="legend-item">150 × 100 mm</text>
<text x="458" y="200" class="legend-item">Main walls. Universal layout, rem…</text>
<circle cx="446" cy="209" r="4.5" class="marker-badge" />
<text x="446" y="209" class="marker-text">8</text>
<text x="458" y="207" class="legend-item">Separator left bottom ×1</text>
<text x="458" y="212" class="legend-item">77.8 × 90.25 mm</text>
<text x="458" y="217" class="legend-item">Type A secondary separator, horiz…</text>
<circle cx="446" cy="226" r="4.5" class="marker-badge" />
<text x="446" y="226" class="marker-text">9</text>
<text x="458" y="224" class="legend-item">Separator left top ×1</text>
<text x="458" y="229" class="legend-item">77.8 × 90.25 mm</text>
<text x="458" y="234" class="legend-item">Type A secondary separator, horiz…</text>
<circle cx="446" cy="243" r="4.5" class="marker-badge" />
<text x="446" y="243" class="marker-text">10</text>
<text x="458" y="241" class="legend-item">Separator right middle ×1</text>
<text x="458" y="246" class="legend-item">77.8 × 90.25 mm</text>
<text x="458" y="251" class="legend-item">Type A secondary separator, horiz…</text>
</g>
<g>
<rect x="438" y="267" width="168" height="135" rx="3" class="legend-box" />
<text x="458" y="276" class="legend-title">Assembly Plan</text>
<circle cx="446" cy="287" r="4.5" class="marker-badge" />
<text x="446" y="287" class="marker-text">1</text>
<text x="458" y="285" class="legend-item">Lay part 1 flat on the bench as</text>
<text x="458" y="290" class="legend-item">the base.</text>
<circle cx="446" cy="305" r="4.5" class="marker-badge" />
<text x="446" y="305" class="marker-text">2</text>
<text x="458" y="303" class="legend-item">Fit parts 3, 4, 6, 7 into the</text>
<text x="458" y="308" class="legend-item">bottom slots and keep the shell</text>
<text x="458" y="313" class="legend-item">square.</text>
<circle cx="446" cy="328" r="4.5" class="marker-badge" />
<text x="446" y="328" class="marker-text">3</text>
<text x="458" y="326" class="legend-item">Insert part 5 into the bottom</text>
<text x="458" y="331" class="legend-item">mortises first.</text>
<circle cx="446" cy="346" r="4.5" class="marker-badge" />
<text x="446" y="346" class="marker-text">4</text>
<text x="458" y="344" class="legend-item">Lock parts 8, 9, 10 into the</text>
<text x="458" y="349" class="legend-item">primaries and side walls.</text>
<circle cx="446" cy="364" r="4.5" class="marker-badge" />
<text x="446" y="364" class="marker-text">5</text>
<text x="458" y="362" class="legend-item">Check the rail path, then slide</text>
<text x="458" y="367" class="legend-item">part 2 into place.</text>
<circle cx="446" cy="382" r="4.5" class="marker-badge" />
<text x="446" y="382" class="marker-text">6</text>
<text x="458" y="380" class="legend-item">Do a full dry-fit before glue,</text>
<text x="458" y="385" class="legend-item">screws, or final clamping.</text>
</g>
</svg>