<?xml version="1.0" encoding="UTF-8"?>
<svg xmlns="http://www.w3.org/2000/svg" width="434.05mm" height="497.2mm" viewBox="0 0 434.05 497.2">
<style>
.cut { fill: none; stroke: #000000; stroke-width: 0.15; vector-effect: non-scaling-stroke; }
</style>
<rect x="0" y="0" width="434.05" height="497.2" fill="#ffffff" />
<path d="M 209.05 14.95 L 212.05 14.95 L 212.05 27.05 L 209.05 27.05 L 209.05 38.95 L 212.05 38.95 L 212.05 51.05 L 209.05 51.05 L 209.05 62.95 L 212.05 62.95 L 212.05 75.05 L 209.05 75.05 L 209.05 86.95 L 212.05 86.95 L 212.05 99.05 L 209.05 99.05 L 209.05 110.95 L 212.05 110.95 L 212.05 123.05 L 209.05 123.05 L 209.05 134.95 L 212.05 134.95 L 212.05 147.05 L 209.05 147.05 L 209.05 162.05 L 196.825 162.05 L 196.825 159.05 L 184.8 159.05 L 184.8 162.05 L 172.575 162.05 L 172.575 159.05 L 160.55 159.05 L 160.55 162.05 L 148.325 162.05 L 148.325 159.05 L 136.3 159.05 L 136.3 162.05 L 124.075 162.05 L 124.075 159.05 L 112.05 159.05 L 112.05 162.05 L 99.825 162.05 L 99.825 159.05 L 87.8 159.05 L 87.8 162.05 L 75.575 162.05 L 75.575 159.05 L 63.55 159.05 L 63.55 162.05 L 51.325 162.05 L 51.325 159.05 L 39.3 159.05 L 39.3 162.05 L 27.075 162.05 L 27.075 159.05 L 11.95 159.05 L 11.95 146.95 L 14.95 146.95 L 14.95 135.05 L 11.95 135.05 L 11.95 122.95 L 14.95 122.95 L 14.95 111.05 L 11.95 111.05 L 11.95 98.95 L 14.95 98.95 L 14.95 87.05 L 11.95 87.05 L 11.95 74.95 L 14.95 74.95 L 14.95 63.05 L 11.95 63.05 L 11.95 50.95 L 14.95 50.95 L 14.95 39.05 L 11.95 39.05 L 11.95 26.95 L 14.95 26.95 L 14.95 14.95 L 27.075 14.95 L 27.075 11.95 L 39.3 11.95 L 39.3 14.95 L 51.325 14.95 L 51.325 11.95 L 63.55 11.95 L 63.55 14.95 L 75.575 14.95 L 75.575 11.95 L 87.8 11.95 L 87.8 14.95 L 99.825 14.95 L 99.825 11.95 L 112.05 11.95 L 112.05 14.95 L 124.075 14.95 L 124.075 11.95 L 136.3 11.95 L 136.3 14.95 L 148.325 14.95 L 148.325 11.95 L 160.55 11.95 L 160.55 14.95 L 172.575 14.95 L 172.575 11.95 L 184.8 11.95 L 184.8 14.95 L 196.825 14.95 L 196.825 11.95 L 209.05 11.95 Z" class="cut" />
<path d="M 100.5 24.8 L 100.5 29.2 L 97.5 29.2 L 97.5 24.8 Z" class="cut" />
<path d="M 100.5 144.8 L 100.5 149.2 L 97.5 149.2 L 97.5 144.8 Z" class="cut" />
<path d="M 199.2 61.5 L 199.2 64.5 L 194.8 64.5 L 194.8 61.5 Z" class="cut" />
<path d="M 113.2 61.5 L 113.2 64.5 L 108.8 64.5 L 108.8 61.5 Z" class="cut" />
<path d="M 422.05 11.95 L 422.05 156.05 L 221.95 156.05 L 221.95 11.95 Z" class="cut" />
<path d="M 212.05 171.95 L 212.05 184.55 L 209.05 184.55 L 209.05 196.95 L 212.05 196.95 L 212.05 209.55 L 209.05 209.55 L 209.05 221.95 L 212.05 221.95 L 212.05 234.55 L 209.05 234.55 L 209.05 246.95 L 212.05 246.95 L 212.05 259.55 L 209.05 259.55 L 209.05 269.05 L 196.925 269.05 L 196.925 272.05 L 184.7 272.05 L 184.7 269.05 L 172.675 269.05 L 172.675 272.05 L 160.45 272.05 L 160.45 269.05 L 148.425 269.05 L 148.425 272.05 L 136.2 272.05 L 136.2 269.05 L 124.175 269.05 L 124.175 272.05 L 111.95 272.05 L 111.95 269.05 L 99.925 269.05 L 99.925 272.05 L 87.7 272.05 L 87.7 269.05 L 75.675 269.05 L 75.675 272.05 L 63.45 272.05 L 63.45 269.05 L 51.425 269.05 L 51.425 272.05 L 39.2 272.05 L 39.2 269.05 L 27.175 269.05 L 27.175 272.05 L 14.95 272.05 L 14.95 259.55 L 11.95 259.55 L 11.95 246.95 L 14.95 246.95 L 14.95 234.55 L 11.95 234.55 L 11.95 221.95 L 14.95 221.95 L 14.95 209.55 L 11.95 209.55 L 11.95 196.95 L 14.95 196.95 L 14.95 184.55 L 11.95 184.55 L 11.95 171.95 Z" class="cut" />
<path d="M 15.05 175.05 L 208.95 175.05 L 208.95 178.15 L 20.95 178.15 L 20.95 181.15 L 15.05 181.15 Z" class="cut" />
<path d="M 123.5 259.05 L 126.5 259.05 L 126.5 263.45 L 123.5 263.45 Z" class="cut" />
<path d="M 422.05 171.95 L 422.05 184.55 L 419.05 184.55 L 419.05 196.95 L 422.05 196.95 L 422.05 209.55 L 419.05 209.55 L 419.05 221.95 L 422.05 221.95 L 422.05 234.55 L 419.05 234.55 L 419.05 246.95 L 422.05 246.95 L 422.05 259.55 L 419.05 259.55 L 419.05 269.05 L 406.925 269.05 L 406.925 272.05 L 394.7 272.05 L 394.7 269.05 L 382.675 269.05 L 382.675 272.05 L 370.45 272.05 L 370.45 269.05 L 358.425 269.05 L 358.425 272.05 L 346.2 272.05 L 346.2 269.05 L 334.175 269.05 L 334.175 272.05 L 321.95 272.05 L 321.95 269.05 L 309.925 269.05 L 309.925 272.05 L 297.7 272.05 L 297.7 269.05 L 285.675 269.05 L 285.675 272.05 L 273.45 272.05 L 273.45 269.05 L 261.425 269.05 L 261.425 272.05 L 249.2 272.05 L 249.2 269.05 L 237.175 269.05 L 237.175 272.05 L 224.95 272.05 L 224.95 259.55 L 221.95 259.55 L 221.95 246.95 L 224.95 246.95 L 224.95 234.55 L 221.95 234.55 L 221.95 221.95 L 224.95 221.95 L 224.95 209.55 L 221.95 209.55 L 221.95 196.95 L 224.95 196.95 L 224.95 184.55 L 221.95 184.55 L 221.95 171.95 Z" class="cut" />
<path d="M 225.05 175.05 L 418.95 175.05 L 418.95 178.15 L 230.95 178.15 L 230.95 181.15 L 225.05 181.15 Z" class="cut" />
<path d="M 333.5 259.05 L 336.5 259.05 L 336.5 263.45 L 333.5 263.45 Z" class="cut" />
<path d="M 159.05 281.95 L 159.05 294.45 L 162.05 294.45 L 162.05 307.05 L 159.05 307.05 L 159.05 319.45 L 162.05 319.45 L 162.05 332.05 L 159.05 332.05 L 159.05 344.45 L 162.05 344.45 L 162.05 357.05 L 159.05 357.05 L 159.05 369.45 L 162.05 369.45 L 162.05 379.05 L 149.55 379.05 L 149.55 382.05 L 136.95 382.05 L 136.95 379.05 L 124.55 379.05 L 124.55 382.05 L 111.95 382.05 L 111.95 379.05 L 99.55 379.05 L 99.55 382.05 L 86.95 382.05 L 86.95 379.05 L 74.55 379.05 L 74.55 382.05 L 61.95 382.05 L 61.95 379.05 L 49.55 379.05 L 49.55 382.05 L 36.95 382.05 L 36.95 379.05 L 24.55 379.05 L 24.55 382.05 L 11.95 382.05 L 11.95 369.45 L 14.95 369.45 L 14.95 357.05 L 11.95 357.05 L 11.95 344.45 L 14.95 344.45 L 14.95 332.05 L 11.95 332.05 L 11.95 319.45 L 14.95 319.45 L 14.95 307.05 L 11.95 307.05 L 11.95 294.45 L 14.95 294.45 L 14.95 281.95 Z" class="cut" />
<path d="M 61.5 369.05 L 64.5 369.05 L 64.5 373.45 L 61.5 373.45 Z" class="cut" />
<path d="M 319.05 281.95 L 319.05 294.45 L 322.05 294.45 L 322.05 307.05 L 319.05 307.05 L 319.05 319.45 L 322.05 319.45 L 322.05 332.05 L 319.05 332.05 L 319.05 344.45 L 322.05 344.45 L 322.05 357.05 L 319.05 357.05 L 319.05 369.45 L 322.05 369.45 L 322.05 379.05 L 309.55 379.05 L 309.55 382.05 L 296.95 382.05 L 296.95 379.05 L 284.55 379.05 L 284.55 382.05 L 271.95 382.05 L 271.95 379.05 L 259.55 379.05 L 259.55 382.05 L 246.95 382.05 L 246.95 379.05 L 234.55 379.05 L 234.55 382.05 L 221.95 382.05 L 221.95 379.05 L 209.55 379.05 L 209.55 382.05 L 196.95 382.05 L 196.95 379.05 L 184.55 379.05 L 184.55 382.05 L 171.95 382.05 L 171.95 369.45 L 174.95 369.45 L 174.95 357.05 L 171.95 357.05 L 171.95 344.45 L 174.95 344.45 L 174.95 332.05 L 171.95 332.05 L 171.95 319.45 L 174.95 319.45 L 174.95 307.05 L 171.95 307.05 L 171.95 294.45 L 174.95 294.45 L 174.95 281.95 Z" class="cut" />
<path d="M 221.5 369.05 L 224.5 369.05 L 224.5 373.45 L 221.5 373.45 Z" class="cut" />
<path d="M 14.85 391.95 L 158.95 391.95 L 158.95 469.2 L 161.85 469.2 L 161.85 473.8 L 158.95 473.8 L 158.95 482.3 L 149.2 482.3 L 149.2 485.2 L 144.6 485.2 L 144.6 482.3 L 29.2 482.3 L 29.2 485.2 L 24.6 485.2 L 24.6 482.3 L 14.85 482.3 L 14.85 473.8 L 11.95 473.8 L 11.95 469.2 L 14.85 469.2 Z" class="cut" />
<path d="M 61.4 471.8 L 64.4 471.8 L 64.4 476.2 L 61.4 476.2 Z" class="cut" />
<path d="M 174.65 391.95 L 284.75 391.95 L 284.75 469.2 L 287.65 469.2 L 287.65 473.8 L 284.75 473.8 L 284.75 482.3 L 275 482.3 L 275 485.2 L 270.4 485.2 L 270.4 482.3 L 189 482.3 L 189 485.2 L 184.4 485.2 L 184.4 482.3 L 174.65 482.3 L 174.65 473.8 L 171.75 473.8 L 171.75 469.2 L 174.65 469.2 Z" class="cut" />
</svg>