<?xml version="1.0" encoding="UTF-8"?>
<svg xmlns="http://www.w3.org/2000/svg" width="344.05mm" height="634.3mm" viewBox="0 0 344.05 634.3">
<style>
.cut { fill: none; stroke: #000000; stroke-width: 0.15; vector-effect: non-scaling-stroke; }
</style>
<rect x="0" y="0" width="344.05" height="634.3" fill="#ffffff" />
<path d="M 14.95 14.95 L 14.95 11.95 L 26.8 11.95 L 26.8 14.95 L 38.45 14.95 L 38.45 11.95 L 50.3 11.95 L 50.3 14.95 L 61.95 14.95 L 61.95 11.95 L 73.8 11.95 L 73.8 14.95 L 85.45 14.95 L 85.45 11.95 L 97.3 11.95 L 97.3 14.95 L 112.05 14.95 L 112.05 26.8 L 109.05 26.8 L 109.05 38.45 L 112.05 38.45 L 112.05 50.3 L 109.05 50.3 L 109.05 61.95 L 112.05 61.95 L 112.05 73.8 L 109.05 73.8 L 109.05 85.45 L 112.05 85.45 L 112.05 97.3 L 109.05 97.3 L 109.05 112.05 L 97.2 112.05 L 97.2 109.05 L 85.55 109.05 L 85.55 112.05 L 73.7 112.05 L 73.7 109.05 L 62.05 109.05 L 62.05 112.05 L 50.2 112.05 L 50.2 109.05 L 38.55 109.05 L 38.55 112.05 L 26.7 112.05 L 26.7 109.05 L 14.95 109.05 L 14.95 97.3 L 11.95 97.3 L 11.95 85.45 L 14.95 85.45 L 14.95 73.8 L 11.95 73.8 L 11.95 61.95 L 14.95 61.95 L 14.95 50.3 L 11.95 50.3 L 11.95 38.45 L 14.95 38.45 L 14.95 26.8 L 11.95 26.8 L 11.95 14.95 Z" class="cut" />
<path d="M 219.05 11.95 L 219.05 24.45 L 222.05 24.45 L 222.05 37.05 L 219.05 37.05 L 219.05 49.45 L 222.05 49.45 L 222.05 62.05 L 219.05 62.05 L 219.05 74.45 L 222.05 74.45 L 222.05 87.05 L 219.05 87.05 L 219.05 99.45 L 222.05 99.45 L 222.05 112.05 L 219.05 112.05 L 219.05 124.45 L 222.05 124.45 L 222.05 137.05 L 219.05 137.05 L 219.05 149.45 L 222.05 149.45 L 222.05 162.05 L 219.05 162.05 L 219.05 174.45 L 222.05 174.45 L 222.05 187.05 L 219.05 187.05 L 219.05 199.45 L 222.05 199.45 L 222.05 209.05 L 209.55 209.05 L 209.55 212.05 L 196.95 212.05 L 196.95 209.05 L 184.55 209.05 L 184.55 212.05 L 171.95 212.05 L 171.95 209.05 L 159.55 209.05 L 159.55 212.05 L 146.95 212.05 L 146.95 209.05 L 134.55 209.05 L 134.55 212.05 L 121.95 212.05 L 121.95 199.45 L 124.95 199.45 L 124.95 187.05 L 121.95 187.05 L 121.95 174.45 L 124.95 174.45 L 124.95 162.05 L 121.95 162.05 L 121.95 149.45 L 124.95 149.45 L 124.95 137.05 L 121.95 137.05 L 121.95 124.45 L 124.95 124.45 L 124.95 112.05 L 121.95 112.05 L 121.95 99.45 L 124.95 99.45 L 124.95 87.05 L 121.95 87.05 L 121.95 74.45 L 124.95 74.45 L 124.95 62.05 L 121.95 62.05 L 121.95 49.45 L 124.95 49.45 L 124.95 37.05 L 121.95 37.05 L 121.95 24.45 L 124.95 24.45 L 124.95 11.95 Z" class="cut" />
<path d="M 145.5 201.55 L 148.5 201.55 L 148.5 205.95 L 145.5 205.95 Z" class="cut" />
<path d="M 170.5 201.55 L 173.5 201.55 L 173.5 205.95 L 170.5 205.95 Z" class="cut" />
<path d="M 195.5 201.55 L 198.5 201.55 L 198.5 205.95 L 195.5 205.95 Z" class="cut" />
<path d="M 329.05 11.95 L 329.05 24.45 L 332.05 24.45 L 332.05 37.05 L 329.05 37.05 L 329.05 49.45 L 332.05 49.45 L 332.05 62.05 L 329.05 62.05 L 329.05 74.45 L 332.05 74.45 L 332.05 87.05 L 329.05 87.05 L 329.05 99.45 L 332.05 99.45 L 332.05 112.05 L 329.05 112.05 L 329.05 124.45 L 332.05 124.45 L 332.05 137.05 L 329.05 137.05 L 329.05 149.45 L 332.05 149.45 L 332.05 162.05 L 329.05 162.05 L 329.05 174.45 L 332.05 174.45 L 332.05 187.05 L 329.05 187.05 L 329.05 199.45 L 332.05 199.45 L 332.05 209.05 L 319.55 209.05 L 319.55 212.05 L 306.95 212.05 L 306.95 209.05 L 294.55 209.05 L 294.55 212.05 L 281.95 212.05 L 281.95 209.05 L 269.55 209.05 L 269.55 212.05 L 256.95 212.05 L 256.95 209.05 L 244.55 209.05 L 244.55 212.05 L 231.95 212.05 L 231.95 199.45 L 234.95 199.45 L 234.95 187.05 L 231.95 187.05 L 231.95 174.45 L 234.95 174.45 L 234.95 162.05 L 231.95 162.05 L 231.95 149.45 L 234.95 149.45 L 234.95 137.05 L 231.95 137.05 L 231.95 124.45 L 234.95 124.45 L 234.95 112.05 L 231.95 112.05 L 231.95 99.45 L 234.95 99.45 L 234.95 87.05 L 231.95 87.05 L 231.95 74.45 L 234.95 74.45 L 234.95 62.05 L 231.95 62.05 L 231.95 49.45 L 234.95 49.45 L 234.95 37.05 L 231.95 37.05 L 231.95 24.45 L 234.95 24.45 L 234.95 11.95 Z" class="cut" />
<path d="M 255.5 201.55 L 258.5 201.55 L 258.5 205.95 L 255.5 205.95 Z" class="cut" />
<path d="M 280.5 201.55 L 283.5 201.55 L 283.5 205.95 L 280.5 205.95 Z" class="cut" />
<path d="M 305.5 201.55 L 308.5 201.55 L 308.5 205.95 L 305.5 205.95 Z" class="cut" />
<path d="M 112.05 221.95 L 112.05 234.55 L 109.05 234.55 L 109.05 246.95 L 112.05 246.95 L 112.05 259.55 L 109.05 259.55 L 109.05 271.95 L 112.05 271.95 L 112.05 284.55 L 109.05 284.55 L 109.05 296.95 L 112.05 296.95 L 112.05 309.55 L 109.05 309.55 L 109.05 321.95 L 112.05 321.95 L 112.05 334.55 L 109.05 334.55 L 109.05 346.95 L 112.05 346.95 L 112.05 359.55 L 109.05 359.55 L 109.05 371.95 L 112.05 371.95 L 112.05 384.55 L 109.05 384.55 L 109.05 396.95 L 112.05 396.95 L 112.05 409.55 L 109.05 409.55 L 109.05 419.05 L 97.3 419.05 L 97.3 422.05 L 85.45 422.05 L 85.45 419.05 L 73.8 419.05 L 73.8 422.05 L 61.95 422.05 L 61.95 419.05 L 50.3 419.05 L 50.3 422.05 L 38.45 422.05 L 38.45 419.05 L 26.8 419.05 L 26.8 422.05 L 14.95 422.05 L 14.95 409.55 L 11.95 409.55 L 11.95 396.95 L 14.95 396.95 L 14.95 384.55 L 11.95 384.55 L 11.95 371.95 L 14.95 371.95 L 14.95 359.55 L 11.95 359.55 L 11.95 346.95 L 14.95 346.95 L 14.95 334.55 L 11.95 334.55 L 11.95 321.95 L 14.95 321.95 L 14.95 309.55 L 11.95 309.55 L 11.95 296.95 L 14.95 296.95 L 14.95 284.55 L 11.95 284.55 L 11.95 271.95 L 14.95 271.95 L 14.95 259.55 L 11.95 259.55 L 11.95 246.95 L 14.95 246.95 L 14.95 234.55 L 11.95 234.55 L 11.95 221.95 Z" class="cut" />
<path d="M 15.05 225.05 L 108.95 225.05 L 108.95 228.15 L 20.95 228.15 L 20.95 231.15 L 15.05 231.15 Z" class="cut" />
<path d="M 222.05 221.95 L 222.05 234.55 L 219.05 234.55 L 219.05 246.95 L 222.05 246.95 L 222.05 259.55 L 219.05 259.55 L 219.05 271.95 L 222.05 271.95 L 222.05 284.55 L 219.05 284.55 L 219.05 296.95 L 222.05 296.95 L 222.05 309.55 L 219.05 309.55 L 219.05 321.95 L 222.05 321.95 L 222.05 334.55 L 219.05 334.55 L 219.05 346.95 L 222.05 346.95 L 222.05 359.55 L 219.05 359.55 L 219.05 371.95 L 222.05 371.95 L 222.05 384.55 L 219.05 384.55 L 219.05 396.95 L 222.05 396.95 L 222.05 409.55 L 219.05 409.55 L 219.05 419.05 L 207.3 419.05 L 207.3 422.05 L 195.45 422.05 L 195.45 419.05 L 183.8 419.05 L 183.8 422.05 L 171.95 422.05 L 171.95 419.05 L 160.3 419.05 L 160.3 422.05 L 148.45 422.05 L 148.45 419.05 L 136.8 419.05 L 136.8 422.05 L 124.95 422.05 L 124.95 409.55 L 121.95 409.55 L 121.95 396.95 L 124.95 396.95 L 124.95 384.55 L 121.95 384.55 L 121.95 371.95 L 124.95 371.95 L 124.95 359.55 L 121.95 359.55 L 121.95 346.95 L 124.95 346.95 L 124.95 334.55 L 121.95 334.55 L 121.95 321.95 L 124.95 321.95 L 124.95 309.55 L 121.95 309.55 L 121.95 296.95 L 124.95 296.95 L 124.95 284.55 L 121.95 284.55 L 121.95 271.95 L 124.95 271.95 L 124.95 259.55 L 121.95 259.55 L 121.95 246.95 L 124.95 246.95 L 124.95 234.55 L 121.95 234.55 L 121.95 221.95 Z" class="cut" />
<path d="M 125.05 225.05 L 218.95 225.05 L 218.95 228.15 L 130.95 228.15 L 130.95 231.15 L 125.05 231.15 Z" class="cut" />
<path d="M 231.95 221.95 L 326.05 221.95 L 326.05 322.05 L 231.95 322.05 Z" class="cut" />
<path d="M 14.85 431.95 L 108.95 431.95 L 108.95 615.7 L 111.85 615.7 L 111.85 619.3 L 108.95 619.3 L 108.95 622.3 L 14.85 622.3 L 14.85 619.3 L 11.95 619.3 L 11.95 615.7 L 14.85 615.7 Z" class="cut" />
</svg>