<?xml version="1.0" encoding="UTF-8"?>
<svg xmlns="http://www.w3.org/2000/svg" width="510mm" height="692.25mm" viewBox="0 0 510 692.25">
<style>
text { font-family: "Segoe UI", sans-serif; fill: #1f2937; }
.title { font-size: 8px; font-weight: 700; }
.meta { font-size: 4.2px; }
.label { font-size: 5px; font-weight: 600; }
.note { font-size: 3.2px; }
.sheet { fill: #f8fafc; stroke: #64748b; stroke-width: 0.5; stroke-dasharray: 3 2; }
.part { fill: #e2e8f0; stroke: #0f172a; stroke-width: 0.4; }
.inner-cut { fill: rgba(148, 163, 184, 0.18); stroke: #475569; stroke-width: 0.25; }
.marker-line { stroke: #64748b; stroke-width: 0.35; }
.marker-badge { fill: #ffffff; stroke: #0f172a; stroke-width: 0.35; }
.marker-text { font-size: 3.2px; font-weight: 700; text-anchor: middle; dominant-baseline: central; }
.legend-box { fill: #ffffff; stroke: #cbd5e1; stroke-width: 0.4; }
.legend-title { font-size: 5px; font-weight: 700; }
.legend-item { font-size: 3.4px; }
</style>
<rect x="0" y="0" width="510" height="692.25" fill="#ffffff" />
<text x="12" y="12" class="title">Box50 Layout</text>
<text x="12" y="20" class="meta">Type A • Material 3 mm • Kerf 0.1 mm</text>
<text x="12" y="26" class="meta">External 100 × 100 × 200 mm</text>
<text x="12" y="32" class="meta">Internal 94.00 × 94.00 × 190.75 mm</text>
<text x="12" y="38" class="meta">Required sheet envelope 320.00 × 610.25 mm</text>
<text x="12" y="44" class="meta">Layout shows placed parts and internal cuts for sheet-size estimation.</text>
<rect x="12" y="70" width="320" height="610.25" class="sheet" />
<g>
<path d="M 15 73 L 15 70 L 26.75 70 L 26.75 73 L 38.5 73 L 38.5 70 L 50.25 70 L 50.25 73 L 62 73 L 62 70 L 73.75 70 L 73.75 73 L 85.5 73 L 85.5 70 L 97.25 70 L 97.25 73 L 109 73 L 112 73 L 112 84.75 L 109 84.75 L 109 96.5 L 112 96.5 L 112 108.25 L 109 108.25 L 109 120 L 112 120 L 112 131.75 L 109 131.75 L 109 143.5 L 112 143.5 L 112 155.25 L 109 155.25 L 109 167 L 109 170 L 97.25 170 L 97.25 167 L 85.5 167 L 85.5 170 L 73.75 170 L 73.75 167 L 62 167 L 62 170 L 50.25 170 L 50.25 167 L 38.5 167 L 38.5 170 L 26.75 170 L 26.75 167 L 15 167 L 15 155.25 L 12 155.25 L 12 143.5 L 15 143.5 L 15 131.75 L 12 131.75 L 12 120 L 15 120 L 15 108.25 L 12 108.25 L 12 96.5 L 15 96.5 L 15 84.75 L 12 84.75 L 12 73 Z" class="part" />

<line x1="62" y1="68.5" x2="62" y2="70" class="marker-line" />
<circle cx="62" cy="64" r="4.5" class="marker-badge" />
<text x="62" y="64" class="marker-text">1</text>
</g>
<g>
<path d="M 122 70 L 222 70 L 219 70 L 219 82.5 L 222 82.5 L 222 95 L 219 95 L 219 107.5 L 222 107.5 L 222 120 L 219 120 L 219 132.5 L 222 132.5 L 222 145 L 219 145 L 219 157.5 L 222 157.5 L 222 170 L 219 170 L 219 182.5 L 222 182.5 L 222 195 L 219 195 L 219 207.5 L 222 207.5 L 222 220 L 219 220 L 219 232.5 L 222 232.5 L 222 245 L 219 245 L 219 257.5 L 222 257.5 L 222 270 L 222 267 L 209.5 267 L 209.5 270 L 197 270 L 197 267 L 184.5 267 L 184.5 270 L 172 270 L 172 267 L 159.5 267 L 159.5 270 L 147 270 L 147 267 L 134.5 267 L 134.5 270 L 122 270 L 122 257.5 L 125 257.5 L 125 245 L 122 245 L 122 232.5 L 125 232.5 L 125 220 L 122 220 L 122 207.5 L 125 207.5 L 125 195 L 122 195 L 122 182.5 L 125 182.5 L 125 170 L 122 170 L 122 157.5 L 125 157.5 L 125 145 L 122 145 L 122 132.5 L 125 132.5 L 125 120 L 122 120 L 122 107.5 L 125 107.5 L 125 95 L 122 95 L 122 82.5 L 125 82.5 L 125 70 Z" class="part" />
<path d="M 145.45 259.5 L 148.55 259.5 L 148.55 264 L 145.45 264 Z" class="inner-cut" />
<path d="M 170.45 259.5 L 173.55 259.5 L 173.55 264 L 170.45 264 Z" class="inner-cut" />
<path d="M 195.45 259.5 L 198.55 259.5 L 198.55 264 L 195.45 264 Z" class="inner-cut" />
<line x1="172" y1="68.5" x2="172" y2="70" class="marker-line" />
<circle cx="172" cy="64" r="4.5" class="marker-badge" />
<text x="172" y="64" class="marker-text">2</text>
</g>
<g>
<path d="M 232 70 L 332 70 L 329 70 L 329 82.5 L 332 82.5 L 332 95 L 329 95 L 329 107.5 L 332 107.5 L 332 120 L 329 120 L 329 132.5 L 332 132.5 L 332 145 L 329 145 L 329 157.5 L 332 157.5 L 332 170 L 329 170 L 329 182.5 L 332 182.5 L 332 195 L 329 195 L 329 207.5 L 332 207.5 L 332 220 L 329 220 L 329 232.5 L 332 232.5 L 332 245 L 329 245 L 329 257.5 L 332 257.5 L 332 270 L 332 267 L 319.5 267 L 319.5 270 L 307 270 L 307 267 L 294.5 267 L 294.5 270 L 282 270 L 282 267 L 269.5 267 L 269.5 270 L 257 270 L 257 267 L 244.5 267 L 244.5 270 L 232 270 L 232 257.5 L 235 257.5 L 235 245 L 232 245 L 232 232.5 L 235 232.5 L 235 220 L 232 220 L 232 207.5 L 235 207.5 L 235 195 L 232 195 L 232 182.5 L 235 182.5 L 235 170 L 232 170 L 232 157.5 L 235 157.5 L 235 145 L 232 145 L 232 132.5 L 235 132.5 L 235 120 L 232 120 L 232 107.5 L 235 107.5 L 235 95 L 232 95 L 232 82.5 L 235 82.5 L 235 70 Z" class="part" />
<path d="M 255.45 259.5 L 258.55 259.5 L 258.55 264 L 255.45 264 Z" class="inner-cut" />
<path d="M 280.45 259.5 L 283.55 259.5 L 283.55 264 L 280.45 264 Z" class="inner-cut" />
<path d="M 305.45 259.5 L 308.55 259.5 L 308.55 264 L 305.45 264 Z" class="inner-cut" />
<line x1="282" y1="68.5" x2="282" y2="70" class="marker-line" />
<circle cx="282" cy="64" r="4.5" class="marker-badge" />
<text x="282" y="64" class="marker-text">3</text>
</g>
<g>
<path d="M 15 280 L 109 280 L 112 280 L 112 292.5 L 109 292.5 L 109 305 L 112 305 L 112 317.5 L 109 317.5 L 109 330 L 112 330 L 112 342.5 L 109 342.5 L 109 355 L 112 355 L 112 367.5 L 109 367.5 L 109 380 L 112 380 L 112 392.5 L 109 392.5 L 109 405 L 112 405 L 112 417.5 L 109 417.5 L 109 430 L 112 430 L 112 442.5 L 109 442.5 L 109 455 L 112 455 L 112 467.5 L 109 467.5 L 109 480 L 109 477 L 97.25 477 L 97.25 480 L 85.5 480 L 85.5 477 L 73.75 477 L 73.75 480 L 62 480 L 62 477 L 50.25 477 L 50.25 480 L 38.5 480 L 38.5 477 L 26.75 477 L 26.75 480 L 15 480 L 15 467.5 L 12 467.5 L 12 455 L 15 455 L 15 442.5 L 12 442.5 L 12 430 L 15 430 L 15 417.5 L 12 417.5 L 12 405 L 15 405 L 15 392.5 L 12 392.5 L 12 380 L 15 380 L 15 367.5 L 12 367.5 L 12 355 L 15 355 L 15 342.5 L 12 342.5 L 12 330 L 15 330 L 15 317.5 L 12 317.5 L 12 305 L 15 305 L 15 292.5 L 12 292.5 L 12 280 Z" class="part" />
<path d="M 15 283 L 109 283 L 109 286.2 L 21 286.2 L 21 289.2 L 15 289.2 Z" class="inner-cut" />
<line x1="62" y1="277" x2="62" y2="280" class="marker-line" />
<circle cx="62" cy="272.5" r="4.5" class="marker-badge" />
<text x="62" y="272.5" class="marker-text">4</text>
</g>
<g>
<path d="M 125 280 L 219 280 L 222 280 L 222 292.5 L 219 292.5 L 219 305 L 222 305 L 222 317.5 L 219 317.5 L 219 330 L 222 330 L 222 342.5 L 219 342.5 L 219 355 L 222 355 L 222 367.5 L 219 367.5 L 219 380 L 222 380 L 222 392.5 L 219 392.5 L 219 405 L 222 405 L 222 417.5 L 219 417.5 L 219 430 L 222 430 L 222 442.5 L 219 442.5 L 219 455 L 222 455 L 222 467.5 L 219 467.5 L 219 480 L 219 477 L 207.25 477 L 207.25 480 L 195.5 480 L 195.5 477 L 183.75 477 L 183.75 480 L 172 480 L 172 477 L 160.25 477 L 160.25 480 L 148.5 480 L 148.5 477 L 136.75 477 L 136.75 480 L 125 480 L 125 467.5 L 122 467.5 L 122 455 L 125 455 L 125 442.5 L 122 442.5 L 122 430 L 125 430 L 125 417.5 L 122 417.5 L 122 405 L 125 405 L 125 392.5 L 122 392.5 L 122 380 L 125 380 L 125 367.5 L 122 367.5 L 122 355 L 125 355 L 125 342.5 L 122 342.5 L 122 330 L 125 330 L 125 317.5 L 122 317.5 L 122 305 L 125 305 L 125 292.5 L 122 292.5 L 122 280 Z" class="part" />
<path d="M 125 283 L 219 283 L 219 286.2 L 131 286.2 L 131 289.2 L 125 289.2 Z" class="inner-cut" />
<line x1="172" y1="277" x2="172" y2="280" class="marker-line" />
<circle cx="172" cy="272.5" r="4.5" class="marker-badge" />
<text x="172" y="272.5" class="marker-text">5</text>
</g>
<g>
<path d="M 232 280 L 326 280 L 326 380 L 232 380 Z" class="part" />

<line x1="279" y1="277" x2="279" y2="280" class="marker-line" />
<circle cx="279" cy="272.5" r="4.5" class="marker-badge" />
<text x="279" y="272.5" class="marker-text">6</text>
</g>
<g>
<path d="M 14.9 490 L 108.9 490 L 108.9 673.75 L 111.8 673.75 L 111.8 677.25 L 108.9 677.25 L 108.9 680.25 L 14.9 680.25 L 14.9 677.25 L 12 677.25 L 12 673.75 L 14.9 673.75 Z" class="part" />

<line x1="61.9" y1="487" x2="61.9" y2="490" class="marker-line" />
<circle cx="61.9" cy="482.5" r="4.5" class="marker-badge" />
<text x="61.9" y="482.5" class="marker-text">7</text>
</g>
<g>
<rect x="348" y="70" width="150" height="120" rx="3" class="legend-box" />
<text x="356" y="78" class="legend-title">Placed Parts</text>
<circle cx="356" cy="82" r="4.5" class="marker-badge" />
<text x="356" y="82" class="marker-text">1</text>
<text x="366" y="80" class="legend-item">bottom ×1</text>
<text x="366" y="85" class="legend-item">100 × 100 mm</text>
<text x="366" y="90" class="legend-item">Base panel</text>
<circle cx="356" cy="98" r="4.5" class="marker-badge" />
<text x="356" y="98" class="marker-text">2</text>
<text x="366" y="96" class="legend-item">front-back ×1</text>
<text x="366" y="101" class="legend-item">100 × 200 mm</text>
<text x="366" y="106" class="legend-item">Main walls. Universal layout, rem…</text>
<circle cx="356" cy="114" r="4.5" class="marker-badge" />
<text x="356" y="114" class="marker-text">3</text>
<text x="366" y="112" class="legend-item">front-back ×1</text>
<text x="366" y="117" class="legend-item">100 × 200 mm</text>
<text x="366" y="122" class="legend-item">Main walls. Universal layout, rem…</text>
<circle cx="356" cy="130" r="4.5" class="marker-badge" />
<text x="356" y="130" class="marker-text">4</text>
<text x="366" y="128" class="legend-item">left-right ×1</text>
<text x="366" y="133" class="legend-item">100 × 200 mm</text>
<text x="366" y="138" class="legend-item">Side walls with stepped lid-rail …</text>
<circle cx="356" cy="146" r="4.5" class="marker-badge" />
<text x="356" y="146" class="marker-text">5</text>
<text x="366" y="144" class="legend-item">left-right ×1</text>
<text x="366" y="149" class="legend-item">100 × 200 mm</text>
<text x="366" y="154" class="legend-item">Side walls with stepped lid-rail …</text>
<circle cx="356" cy="162" r="4.5" class="marker-badge" />
<text x="356" y="162" class="marker-text">6</text>
<text x="366" y="160" class="legend-item">lid ×1</text>
<text x="366" y="165" class="legend-item">94 × 100 mm</text>
<text x="366" y="170" class="legend-item">Sliding lid with clearance 0.25 mm</text>
<circle cx="356" cy="178" r="4.5" class="marker-badge" />
<text x="356" y="178" class="marker-text">7</text>
<text x="366" y="176" class="legend-item">divider-depth-template ×1</text>
<text x="366" y="181" class="legend-item">99.8 × 190.25 mm</text>
<text x="366" y="186" class="legend-item">First removable divider template …</text>
</g>
</svg>