<?xml version="1.0" encoding="UTF-8"?>
<svg xmlns="http://www.w3.org/2000/svg" width="344mm" height="634.25mm" viewBox="0 0 344 634.25">
<style>
.cut { fill: none; stroke: #000000; stroke-width: 0.15; vector-effect: non-scaling-stroke; }
</style>
<rect x="0" y="0" width="344" height="634.25" fill="#ffffff" />
<path d="M 15 15 L 15 12 L 26.75 12 L 26.75 15 L 38.5 15 L 38.5 12 L 50.25 12 L 50.25 15 L 62 15 L 62 12 L 73.75 12 L 73.75 15 L 85.5 15 L 85.5 12 L 97.25 12 L 97.25 15 L 109 15 L 112 15 L 112 26.75 L 109 26.75 L 109 38.5 L 112 38.5 L 112 50.25 L 109 50.25 L 109 62 L 112 62 L 112 73.75 L 109 73.75 L 109 85.5 L 112 85.5 L 112 97.25 L 109 97.25 L 109 109 L 109 112 L 97.25 112 L 97.25 109 L 85.5 109 L 85.5 112 L 73.75 112 L 73.75 109 L 62 109 L 62 112 L 50.25 112 L 50.25 109 L 38.5 109 L 38.5 112 L 26.75 112 L 26.75 109 L 15 109 L 15 97.25 L 12 97.25 L 12 85.5 L 15 85.5 L 15 73.75 L 12 73.75 L 12 62 L 15 62 L 15 50.25 L 12 50.25 L 12 38.5 L 15 38.5 L 15 26.75 L 12 26.75 L 12 15 Z" class="cut" />
<path d="M 122 12 L 222 12 L 219 12 L 219 24.5 L 222 24.5 L 222 37 L 219 37 L 219 49.5 L 222 49.5 L 222 62 L 219 62 L 219 74.5 L 222 74.5 L 222 87 L 219 87 L 219 99.5 L 222 99.5 L 222 112 L 219 112 L 219 124.5 L 222 124.5 L 222 137 L 219 137 L 219 149.5 L 222 149.5 L 222 162 L 219 162 L 219 174.5 L 222 174.5 L 222 187 L 219 187 L 219 199.5 L 222 199.5 L 222 212 L 222 209 L 209.5 209 L 209.5 212 L 197 212 L 197 209 L 184.5 209 L 184.5 212 L 172 212 L 172 209 L 159.5 209 L 159.5 212 L 147 212 L 147 209 L 134.5 209 L 134.5 212 L 122 212 L 122 199.5 L 125 199.5 L 125 187 L 122 187 L 122 174.5 L 125 174.5 L 125 162 L 122 162 L 122 149.5 L 125 149.5 L 125 137 L 122 137 L 122 124.5 L 125 124.5 L 125 112 L 122 112 L 122 99.5 L 125 99.5 L 125 87 L 122 87 L 122 74.5 L 125 74.5 L 125 62 L 122 62 L 122 49.5 L 125 49.5 L 125 37 L 122 37 L 122 24.5 L 125 24.5 L 125 12 Z" class="cut" />
<path d="M 145.45 201.5 L 148.55 201.5 L 148.55 206 L 145.45 206 Z" class="cut" />
<path d="M 170.45 201.5 L 173.55 201.5 L 173.55 206 L 170.45 206 Z" class="cut" />
<path d="M 195.45 201.5 L 198.55 201.5 L 198.55 206 L 195.45 206 Z" class="cut" />
<path d="M 232 12 L 332 12 L 329 12 L 329 24.5 L 332 24.5 L 332 37 L 329 37 L 329 49.5 L 332 49.5 L 332 62 L 329 62 L 329 74.5 L 332 74.5 L 332 87 L 329 87 L 329 99.5 L 332 99.5 L 332 112 L 329 112 L 329 124.5 L 332 124.5 L 332 137 L 329 137 L 329 149.5 L 332 149.5 L 332 162 L 329 162 L 329 174.5 L 332 174.5 L 332 187 L 329 187 L 329 199.5 L 332 199.5 L 332 212 L 332 209 L 319.5 209 L 319.5 212 L 307 212 L 307 209 L 294.5 209 L 294.5 212 L 282 212 L 282 209 L 269.5 209 L 269.5 212 L 257 212 L 257 209 L 244.5 209 L 244.5 212 L 232 212 L 232 199.5 L 235 199.5 L 235 187 L 232 187 L 232 174.5 L 235 174.5 L 235 162 L 232 162 L 232 149.5 L 235 149.5 L 235 137 L 232 137 L 232 124.5 L 235 124.5 L 235 112 L 232 112 L 232 99.5 L 235 99.5 L 235 87 L 232 87 L 232 74.5 L 235 74.5 L 235 62 L 232 62 L 232 49.5 L 235 49.5 L 235 37 L 232 37 L 232 24.5 L 235 24.5 L 235 12 Z" class="cut" />
<path d="M 255.45 201.5 L 258.55 201.5 L 258.55 206 L 255.45 206 Z" class="cut" />
<path d="M 280.45 201.5 L 283.55 201.5 L 283.55 206 L 280.45 206 Z" class="cut" />
<path d="M 305.45 201.5 L 308.55 201.5 L 308.55 206 L 305.45 206 Z" class="cut" />
<path d="M 15 222 L 109 222 L 112 222 L 112 234.5 L 109 234.5 L 109 247 L 112 247 L 112 259.5 L 109 259.5 L 109 272 L 112 272 L 112 284.5 L 109 284.5 L 109 297 L 112 297 L 112 309.5 L 109 309.5 L 109 322 L 112 322 L 112 334.5 L 109 334.5 L 109 347 L 112 347 L 112 359.5 L 109 359.5 L 109 372 L 112 372 L 112 384.5 L 109 384.5 L 109 397 L 112 397 L 112 409.5 L 109 409.5 L 109 422 L 109 419 L 97.25 419 L 97.25 422 L 85.5 422 L 85.5 419 L 73.75 419 L 73.75 422 L 62 422 L 62 419 L 50.25 419 L 50.25 422 L 38.5 422 L 38.5 419 L 26.75 419 L 26.75 422 L 15 422 L 15 409.5 L 12 409.5 L 12 397 L 15 397 L 15 384.5 L 12 384.5 L 12 372 L 15 372 L 15 359.5 L 12 359.5 L 12 347 L 15 347 L 15 334.5 L 12 334.5 L 12 322 L 15 322 L 15 309.5 L 12 309.5 L 12 297 L 15 297 L 15 284.5 L 12 284.5 L 12 272 L 15 272 L 15 259.5 L 12 259.5 L 12 247 L 15 247 L 15 234.5 L 12 234.5 L 12 222 Z" class="cut" />
<path d="M 15 225 L 109 225 L 109 228.2 L 15 228.2 Z" class="cut" />
<path d="M 125 222 L 219 222 L 222 222 L 222 234.5 L 219 234.5 L 219 247 L 222 247 L 222 259.5 L 219 259.5 L 219 272 L 222 272 L 222 284.5 L 219 284.5 L 219 297 L 222 297 L 222 309.5 L 219 309.5 L 219 322 L 222 322 L 222 334.5 L 219 334.5 L 219 347 L 222 347 L 222 359.5 L 219 359.5 L 219 372 L 222 372 L 222 384.5 L 219 384.5 L 219 397 L 222 397 L 222 409.5 L 219 409.5 L 219 422 L 219 419 L 207.25 419 L 207.25 422 L 195.5 422 L 195.5 419 L 183.75 419 L 183.75 422 L 172 422 L 172 419 L 160.25 419 L 160.25 422 L 148.5 422 L 148.5 419 L 136.75 419 L 136.75 422 L 125 422 L 125 409.5 L 122 409.5 L 122 397 L 125 397 L 125 384.5 L 122 384.5 L 122 372 L 125 372 L 125 359.5 L 122 359.5 L 122 347 L 125 347 L 125 334.5 L 122 334.5 L 122 322 L 125 322 L 125 309.5 L 122 309.5 L 122 297 L 125 297 L 125 284.5 L 122 284.5 L 122 272 L 125 272 L 125 259.5 L 122 259.5 L 122 247 L 125 247 L 125 234.5 L 122 234.5 L 122 222 Z" class="cut" />
<path d="M 125 225 L 219 225 L 219 228.2 L 125 228.2 Z" class="cut" />
<path d="M 232 222 L 326 222 L 326 322 L 232 322 Z" class="cut" />
<path d="M 14.9 432 L 108.9 432 L 108.9 615.75 L 111.8 615.75 L 111.8 619.25 L 108.9 619.25 L 108.9 622.25 L 14.9 622.25 L 14.9 619.25 L 12 619.25 L 12 615.75 L 14.9 615.75 Z" class="cut" />
</svg>