<?xml version="1.0" encoding="UTF-8"?>
<svg xmlns="http://www.w3.org/2000/svg" width="344.05mm" height="334.3mm" viewBox="0 0 344.05 334.3">
<style>
.cut { fill: none; stroke: #000000; stroke-width: 0.15; vector-effect: non-scaling-stroke; }
</style>
<rect x="0" y="0" width="344.05" height="334.3" fill="#ffffff" />
<path d="M 14.95 14.95 L 14.95 11.95 L 26.8 11.95 L 26.8 14.95 L 38.45 14.95 L 38.45 11.95 L 50.3 11.95 L 50.3 14.95 L 61.95 14.95 L 61.95 11.95 L 73.8 11.95 L 73.8 14.95 L 85.45 14.95 L 85.45 11.95 L 97.3 11.95 L 97.3 14.95 L 112.05 14.95 L 112.05 26.8 L 109.05 26.8 L 109.05 38.45 L 112.05 38.45 L 112.05 50.3 L 109.05 50.3 L 109.05 61.95 L 112.05 61.95 L 112.05 73.8 L 109.05 73.8 L 109.05 85.45 L 112.05 85.45 L 112.05 97.3 L 109.05 97.3 L 109.05 112.05 L 97.2 112.05 L 97.2 109.05 L 85.55 109.05 L 85.55 112.05 L 73.7 112.05 L 73.7 109.05 L 62.05 109.05 L 62.05 112.05 L 50.2 112.05 L 50.2 109.05 L 38.55 109.05 L 38.55 112.05 L 26.7 112.05 L 26.7 109.05 L 14.95 109.05 L 14.95 97.3 L 11.95 97.3 L 11.95 85.45 L 14.95 85.45 L 14.95 73.8 L 11.95 73.8 L 11.95 61.95 L 14.95 61.95 L 14.95 50.3 L 11.95 50.3 L 11.95 38.45 L 14.95 38.45 L 14.95 26.8 L 11.95 26.8 L 11.95 14.95 Z" class="cut" />
<path d="M 219.05 11.95 L 219.05 24.45 L 222.05 24.45 L 222.05 37.05 L 219.05 37.05 L 219.05 49.45 L 222.05 49.45 L 222.05 62.05 L 219.05 62.05 L 219.05 74.45 L 222.05 74.45 L 222.05 87.05 L 219.05 87.05 L 219.05 99.45 L 222.05 99.45 L 222.05 109.05 L 209.55 109.05 L 209.55 112.05 L 196.95 112.05 L 196.95 109.05 L 184.55 109.05 L 184.55 112.05 L 171.95 112.05 L 171.95 109.05 L 159.55 109.05 L 159.55 112.05 L 146.95 112.05 L 146.95 109.05 L 134.55 109.05 L 134.55 112.05 L 121.95 112.05 L 121.95 99.45 L 124.95 99.45 L 124.95 87.05 L 121.95 87.05 L 121.95 74.45 L 124.95 74.45 L 124.95 62.05 L 121.95 62.05 L 121.95 49.45 L 124.95 49.45 L 124.95 37.05 L 121.95 37.05 L 121.95 24.45 L 124.95 24.45 L 124.95 11.95 Z" class="cut" />
<path d="M 145.5 101.55 L 148.5 101.55 L 148.5 105.95 L 145.5 105.95 Z" class="cut" />
<path d="M 170.5 101.55 L 173.5 101.55 L 173.5 105.95 L 170.5 105.95 Z" class="cut" />
<path d="M 195.5 101.55 L 198.5 101.55 L 198.5 105.95 L 195.5 105.95 Z" class="cut" />
<path d="M 329.05 11.95 L 329.05 24.45 L 332.05 24.45 L 332.05 37.05 L 329.05 37.05 L 329.05 49.45 L 332.05 49.45 L 332.05 62.05 L 329.05 62.05 L 329.05 74.45 L 332.05 74.45 L 332.05 87.05 L 329.05 87.05 L 329.05 99.45 L 332.05 99.45 L 332.05 109.05 L 319.55 109.05 L 319.55 112.05 L 306.95 112.05 L 306.95 109.05 L 294.55 109.05 L 294.55 112.05 L 281.95 112.05 L 281.95 109.05 L 269.55 109.05 L 269.55 112.05 L 256.95 112.05 L 256.95 109.05 L 244.55 109.05 L 244.55 112.05 L 231.95 112.05 L 231.95 99.45 L 234.95 99.45 L 234.95 87.05 L 231.95 87.05 L 231.95 74.45 L 234.95 74.45 L 234.95 62.05 L 231.95 62.05 L 231.95 49.45 L 234.95 49.45 L 234.95 37.05 L 231.95 37.05 L 231.95 24.45 L 234.95 24.45 L 234.95 11.95 Z" class="cut" />
<path d="M 255.5 101.55 L 258.5 101.55 L 258.5 105.95 L 255.5 105.95 Z" class="cut" />
<path d="M 280.5 101.55 L 283.5 101.55 L 283.5 105.95 L 280.5 105.95 Z" class="cut" />
<path d="M 305.5 101.55 L 308.5 101.55 L 308.5 105.95 L 305.5 105.95 Z" class="cut" />
<path d="M 112.05 121.95 L 112.05 134.55 L 109.05 134.55 L 109.05 146.95 L 112.05 146.95 L 112.05 159.55 L 109.05 159.55 L 109.05 171.95 L 112.05 171.95 L 112.05 184.55 L 109.05 184.55 L 109.05 196.95 L 112.05 196.95 L 112.05 209.55 L 109.05 209.55 L 109.05 219.05 L 97.3 219.05 L 97.3 222.05 L 85.45 222.05 L 85.45 219.05 L 73.8 219.05 L 73.8 222.05 L 61.95 222.05 L 61.95 219.05 L 50.3 219.05 L 50.3 222.05 L 38.45 222.05 L 38.45 219.05 L 26.8 219.05 L 26.8 222.05 L 14.95 222.05 L 14.95 209.55 L 11.95 209.55 L 11.95 196.95 L 14.95 196.95 L 14.95 184.55 L 11.95 184.55 L 11.95 171.95 L 14.95 171.95 L 14.95 159.55 L 11.95 159.55 L 11.95 146.95 L 14.95 146.95 L 14.95 134.55 L 11.95 134.55 L 11.95 121.95 Z" class="cut" />
<path d="M 15.05 125.05 L 108.95 125.05 L 108.95 128.15 L 20.95 128.15 L 20.95 131.15 L 15.05 131.15 Z" class="cut" />
<path d="M 222.05 121.95 L 222.05 134.55 L 219.05 134.55 L 219.05 146.95 L 222.05 146.95 L 222.05 159.55 L 219.05 159.55 L 219.05 171.95 L 222.05 171.95 L 222.05 184.55 L 219.05 184.55 L 219.05 196.95 L 222.05 196.95 L 222.05 209.55 L 219.05 209.55 L 219.05 219.05 L 207.3 219.05 L 207.3 222.05 L 195.45 222.05 L 195.45 219.05 L 183.8 219.05 L 183.8 222.05 L 171.95 222.05 L 171.95 219.05 L 160.3 219.05 L 160.3 222.05 L 148.45 222.05 L 148.45 219.05 L 136.8 219.05 L 136.8 222.05 L 124.95 222.05 L 124.95 209.55 L 121.95 209.55 L 121.95 196.95 L 124.95 196.95 L 124.95 184.55 L 121.95 184.55 L 121.95 171.95 L 124.95 171.95 L 124.95 159.55 L 121.95 159.55 L 121.95 146.95 L 124.95 146.95 L 124.95 134.55 L 121.95 134.55 L 121.95 121.95 Z" class="cut" />
<path d="M 125.05 125.05 L 218.95 125.05 L 218.95 128.15 L 130.95 128.15 L 130.95 131.15 L 125.05 131.15 Z" class="cut" />
<path d="M 231.95 121.95 L 326.05 121.95 L 326.05 222.05 L 231.95 222.05 Z" class="cut" />
<path d="M 14.85 231.95 L 108.95 231.95 L 108.95 315.7 L 111.85 315.7 L 111.85 319.3 L 108.95 319.3 L 108.95 322.3 L 14.85 322.3 L 14.85 319.3 L 11.95 319.3 L 11.95 315.7 L 14.85 315.7 Z" class="cut" />
</svg>