<?xml version="1.0" encoding="UTF-8"?>
<svg xmlns="http://www.w3.org/2000/svg" width="344mm" height="644.25mm" viewBox="0 0 344 644.25">
<style>
.cut { fill: none; stroke: #000000; stroke-width: 0.15; vector-effect: non-scaling-stroke; }
</style>
<rect x="0" y="0" width="344" height="644.25" fill="#ffffff" />
<path d="M 15 15 L 15 12 L 26.75 12 L 26.75 15 L 38.5 15 L 38.5 12 L 50.25 12 L 50.25 15 L 62 15 L 62 12 L 73.75 12 L 73.75 15 L 85.5 15 L 85.5 12 L 97.25 12 L 97.25 15 L 109 15 L 112 15 L 112 27.125 L 109 27.125 L 109 39.25 L 112 39.25 L 112 51.375 L 109 51.375 L 109 63.5 L 112 63.5 L 112 75.625 L 109 75.625 L 109 87.75 L 112 87.75 L 112 99.875 L 109 99.875 L 109 112 L 112 112 L 112 124.125 L 109 124.125 L 109 136.25 L 112 136.25 L 112 148.375 L 109 148.375 L 109 160.5 L 112 160.5 L 112 172.625 L 109 172.625 L 109 184.75 L 112 184.75 L 112 196.875 L 109 196.875 L 109 209 L 109 212 L 97.25 212 L 97.25 209 L 85.5 209 L 85.5 212 L 73.75 212 L 73.75 209 L 62 209 L 62 212 L 50.25 212 L 50.25 209 L 38.5 209 L 38.5 212 L 26.75 212 L 26.75 209 L 15 209 L 15 196.875 L 12 196.875 L 12 184.75 L 15 184.75 L 15 172.625 L 12 172.625 L 12 160.5 L 15 160.5 L 15 148.375 L 12 148.375 L 12 136.25 L 15 136.25 L 15 124.125 L 12 124.125 L 12 112 L 15 112 L 15 99.875 L 12 99.875 L 12 87.75 L 15 87.75 L 15 75.625 L 12 75.625 L 12 63.5 L 15 63.5 L 15 51.375 L 12 51.375 L 12 39.25 L 15 39.25 L 15 27.125 L 12 27.125 L 12 15 Z" class="cut" />
<path d="M 122 12 L 222 12 L 219 12 L 219 24.5 L 222 24.5 L 222 37 L 219 37 L 219 49.5 L 222 49.5 L 222 62 L 219 62 L 219 74.5 L 222 74.5 L 222 87 L 219 87 L 219 99.5 L 222 99.5 L 222 112 L 222 109 L 209.5 109 L 209.5 112 L 197 112 L 197 109 L 184.5 109 L 184.5 112 L 172 112 L 172 109 L 159.5 109 L 159.5 112 L 147 112 L 147 109 L 134.5 109 L 134.5 112 L 122 112 L 122 99.5 L 125 99.5 L 125 87 L 122 87 L 122 74.5 L 125 74.5 L 125 62 L 122 62 L 122 49.5 L 125 49.5 L 125 37 L 122 37 L 122 24.5 L 125 24.5 L 125 12 Z" class="cut" />
<path d="M 145.45 101.5 L 148.55 101.5 L 148.55 106 L 145.45 106 Z" class="cut" />
<path d="M 170.45 101.5 L 173.55 101.5 L 173.55 106 L 170.45 106 Z" class="cut" />
<path d="M 195.45 101.5 L 198.55 101.5 L 198.55 106 L 195.45 106 Z" class="cut" />
<path d="M 232 12 L 332 12 L 329 12 L 329 24.5 L 332 24.5 L 332 37 L 329 37 L 329 49.5 L 332 49.5 L 332 62 L 329 62 L 329 74.5 L 332 74.5 L 332 87 L 329 87 L 329 99.5 L 332 99.5 L 332 112 L 332 109 L 319.5 109 L 319.5 112 L 307 112 L 307 109 L 294.5 109 L 294.5 112 L 282 112 L 282 109 L 269.5 109 L 269.5 112 L 257 112 L 257 109 L 244.5 109 L 244.5 112 L 232 112 L 232 99.5 L 235 99.5 L 235 87 L 232 87 L 232 74.5 L 235 74.5 L 235 62 L 232 62 L 232 49.5 L 235 49.5 L 235 37 L 232 37 L 232 24.5 L 235 24.5 L 235 12 Z" class="cut" />
<path d="M 255.45 101.5 L 258.55 101.5 L 258.55 106 L 255.45 106 Z" class="cut" />
<path d="M 280.45 101.5 L 283.55 101.5 L 283.55 106 L 280.45 106 Z" class="cut" />
<path d="M 305.45 101.5 L 308.55 101.5 L 308.55 106 L 305.45 106 Z" class="cut" />
<path d="M 15 222 L 209 222 L 212 222 L 212 234.5 L 209 234.5 L 209 247 L 212 247 L 212 259.5 L 209 259.5 L 209 272 L 212 272 L 212 284.5 L 209 284.5 L 209 297 L 212 297 L 212 309.5 L 209 309.5 L 209 322 L 209 319 L 196.875 319 L 196.875 322 L 184.75 322 L 184.75 319 L 172.625 319 L 172.625 322 L 160.5 322 L 160.5 319 L 148.375 319 L 148.375 322 L 136.25 322 L 136.25 319 L 124.125 319 L 124.125 322 L 112 322 L 112 319 L 99.875 319 L 99.875 322 L 87.75 322 L 87.75 319 L 75.625 319 L 75.625 322 L 63.5 322 L 63.5 319 L 51.375 319 L 51.375 322 L 39.25 322 L 39.25 319 L 27.125 319 L 27.125 322 L 15 322 L 15 309.5 L 12 309.5 L 12 297 L 15 297 L 15 284.5 L 12 284.5 L 12 272 L 15 272 L 15 259.5 L 12 259.5 L 12 247 L 15 247 L 15 234.5 L 12 234.5 L 12 222 Z" class="cut" />
<path d="M 15 225 L 209 225 L 209 228.2 L 15 228.2 Z" class="cut" />
<path d="M 15 332 L 209 332 L 212 332 L 212 344.5 L 209 344.5 L 209 357 L 212 357 L 212 369.5 L 209 369.5 L 209 382 L 212 382 L 212 394.5 L 209 394.5 L 209 407 L 212 407 L 212 419.5 L 209 419.5 L 209 432 L 209 429 L 196.875 429 L 196.875 432 L 184.75 432 L 184.75 429 L 172.625 429 L 172.625 432 L 160.5 432 L 160.5 429 L 148.375 429 L 148.375 432 L 136.25 432 L 136.25 429 L 124.125 429 L 124.125 432 L 112 432 L 112 429 L 99.875 429 L 99.875 432 L 87.75 432 L 87.75 429 L 75.625 429 L 75.625 432 L 63.5 432 L 63.5 429 L 51.375 429 L 51.375 432 L 39.25 432 L 39.25 429 L 27.125 429 L 27.125 432 L 15 432 L 15 419.5 L 12 419.5 L 12 407 L 15 407 L 15 394.5 L 12 394.5 L 12 382 L 15 382 L 15 369.5 L 12 369.5 L 12 357 L 15 357 L 15 344.5 L 12 344.5 L 12 332 Z" class="cut" />
<path d="M 15 335 L 209 335 L 209 338.2 L 15 338.2 Z" class="cut" />
<path d="M 222 332 L 316 332 L 316 532 L 222 532 Z" class="cut" />
<path d="M 14.9 542 L 208.9 542 L 208.9 625.75 L 211.8 625.75 L 211.8 629.25 L 208.9 629.25 L 208.9 632.25 L 14.9 632.25 L 14.9 629.25 L 12 629.25 L 12 625.75 L 14.9 625.75 Z" class="cut" />
</svg>