<?xml version="1.0" encoding="UTF-8"?>
<svg xmlns="http://www.w3.org/2000/svg" width="510mm" height="602.25mm" viewBox="0 0 510 602.25">
<style>
text { font-family: "Segoe UI", sans-serif; fill: #1f2937; }
.title { font-size: 8px; font-weight: 700; }
.meta { font-size: 4.2px; }
.label { font-size: 5px; font-weight: 600; }
.note { font-size: 3.2px; }
.sheet { fill: #f8fafc; stroke: #64748b; stroke-width: 0.5; stroke-dasharray: 3 2; }
.part { fill: #e2e8f0; stroke: #0f172a; stroke-width: 0.4; }
.inner-cut { fill: rgba(148, 163, 184, 0.18); stroke: #475569; stroke-width: 0.25; }
.marker-line { stroke: #64748b; stroke-width: 0.35; }
.marker-badge { fill: #ffffff; stroke: #0f172a; stroke-width: 0.35; }
.marker-text { font-size: 3.2px; font-weight: 700; text-anchor: middle; dominant-baseline: central; }
.legend-box { fill: #ffffff; stroke: #cbd5e1; stroke-width: 0.4; }
.legend-title { font-size: 5px; font-weight: 700; }
.legend-item { font-size: 3.4px; }
</style>
<rect x="0" y="0" width="510" height="602.25" fill="#ffffff" />
<text x="12" y="12" class="title">Box50 Layout Preview</text>
<text x="12" y="20" class="meta">Type A • Material 3 mm • Kerf 0.1 mm</text>
<text x="12" y="26" class="meta">External 100 × 200 × 50 mm</text>
<text x="12" y="32" class="meta">Internal 94.00 × 194.00 × 40.75 mm</text>
<text x="12" y="38" class="meta">Required sheet envelope 320.00 × 520.25 mm</text>
<text x="12" y="44" class="meta">Preview shows placed parts and internal cuts for sheet-size estimation.</text>
<rect x="12" y="70" width="320" height="520.25" class="sheet" />
<g>
<path d="M 15 73 L 15 70 L 26.75 70 L 26.75 73 L 38.5 73 L 38.5 70 L 50.25 70 L 50.25 73 L 62 73 L 62 70 L 73.75 70 L 73.75 73 L 85.5 73 L 85.5 70 L 97.25 70 L 97.25 73 L 109 73 L 112 73 L 112 85.125 L 109 85.125 L 109 97.25 L 112 97.25 L 112 109.375 L 109 109.375 L 109 121.5 L 112 121.5 L 112 133.625 L 109 133.625 L 109 145.75 L 112 145.75 L 112 157.875 L 109 157.875 L 109 170 L 112 170 L 112 182.125 L 109 182.125 L 109 194.25 L 112 194.25 L 112 206.375 L 109 206.375 L 109 218.5 L 112 218.5 L 112 230.625 L 109 230.625 L 109 242.75 L 112 242.75 L 112 254.875 L 109 254.875 L 109 267 L 109 270 L 97.25 270 L 97.25 267 L 85.5 267 L 85.5 270 L 73.75 270 L 73.75 267 L 62 267 L 62 270 L 50.25 270 L 50.25 267 L 38.5 267 L 38.5 270 L 26.75 270 L 26.75 267 L 15 267 L 15 254.875 L 12 254.875 L 12 242.75 L 15 242.75 L 15 230.625 L 12 230.625 L 12 218.5 L 15 218.5 L 15 206.375 L 12 206.375 L 12 194.25 L 15 194.25 L 15 182.125 L 12 182.125 L 12 170 L 15 170 L 15 157.875 L 12 157.875 L 12 145.75 L 15 145.75 L 15 133.625 L 12 133.625 L 12 121.5 L 15 121.5 L 15 109.375 L 12 109.375 L 12 97.25 L 15 97.25 L 15 85.125 L 12 85.125 L 12 73 Z" class="part" />

<line x1="62" y1="68.5" x2="62" y2="70" class="marker-line" />
<circle cx="62" cy="64" r="4.5" class="marker-badge" />
<text x="62" y="64" class="marker-text">1</text>
</g>
<g>
<path d="M 122 70 L 222 70 L 219 70 L 219 82.5 L 222 82.5 L 222 95 L 219 95 L 219 107.5 L 222 107.5 L 222 120 L 222 117 L 209.5 117 L 209.5 120 L 197 120 L 197 117 L 184.5 117 L 184.5 120 L 172 120 L 172 117 L 159.5 117 L 159.5 120 L 147 120 L 147 117 L 134.5 117 L 134.5 120 L 122 120 L 122 107.5 L 125 107.5 L 125 95 L 122 95 L 122 82.5 L 125 82.5 L 125 70 Z" class="part" />
<path d="M 145.45 109.5 L 148.55 109.5 L 148.55 114 L 145.45 114 Z" class="inner-cut" />
<path d="M 170.45 109.5 L 173.55 109.5 L 173.55 114 L 170.45 114 Z" class="inner-cut" />
<path d="M 195.45 109.5 L 198.55 109.5 L 198.55 114 L 195.45 114 Z" class="inner-cut" />
<line x1="172" y1="68.5" x2="172" y2="70" class="marker-line" />
<circle cx="172" cy="64" r="4.5" class="marker-badge" />
<text x="172" y="64" class="marker-text">2</text>
</g>
<g>
<path d="M 232 70 L 332 70 L 329 70 L 329 82.5 L 332 82.5 L 332 95 L 329 95 L 329 107.5 L 332 107.5 L 332 120 L 332 117 L 319.5 117 L 319.5 120 L 307 120 L 307 117 L 294.5 117 L 294.5 120 L 282 120 L 282 117 L 269.5 117 L 269.5 120 L 257 120 L 257 117 L 244.5 117 L 244.5 120 L 232 120 L 232 107.5 L 235 107.5 L 235 95 L 232 95 L 232 82.5 L 235 82.5 L 235 70 Z" class="part" />
<path d="M 255.45 109.5 L 258.55 109.5 L 258.55 114 L 255.45 114 Z" class="inner-cut" />
<path d="M 280.45 109.5 L 283.55 109.5 L 283.55 114 L 280.45 114 Z" class="inner-cut" />
<path d="M 305.45 109.5 L 308.55 109.5 L 308.55 114 L 305.45 114 Z" class="inner-cut" />
<line x1="282" y1="68.5" x2="282" y2="70" class="marker-line" />
<circle cx="282" cy="64" r="4.5" class="marker-badge" />
<text x="282" y="64" class="marker-text">3</text>
</g>
<g>
<path d="M 15 280 L 209 280 L 212 280 L 212 292.5 L 209 292.5 L 209 305 L 212 305 L 212 317.5 L 209 317.5 L 209 330 L 209 327 L 196.875 327 L 196.875 330 L 184.75 330 L 184.75 327 L 172.625 327 L 172.625 330 L 160.5 330 L 160.5 327 L 148.375 327 L 148.375 330 L 136.25 330 L 136.25 327 L 124.125 327 L 124.125 330 L 112 330 L 112 327 L 99.875 327 L 99.875 330 L 87.75 330 L 87.75 327 L 75.625 327 L 75.625 330 L 63.5 330 L 63.5 327 L 51.375 327 L 51.375 330 L 39.25 330 L 39.25 327 L 27.125 327 L 27.125 330 L 15 330 L 15 317.5 L 12 317.5 L 12 305 L 15 305 L 15 292.5 L 12 292.5 L 12 280 Z" class="part" />
<path d="M 15 283 L 209 283 L 209 286.2 L 15 286.2 Z" class="inner-cut" />
<line x1="112" y1="277" x2="112" y2="280" class="marker-line" />
<circle cx="112" cy="272.5" r="4.5" class="marker-badge" />
<text x="112" y="272.5" class="marker-text">4</text>
</g>
<g>
<path d="M 15 340 L 209 340 L 212 340 L 212 352.5 L 209 352.5 L 209 365 L 212 365 L 212 377.5 L 209 377.5 L 209 390 L 209 387 L 196.875 387 L 196.875 390 L 184.75 390 L 184.75 387 L 172.625 387 L 172.625 390 L 160.5 390 L 160.5 387 L 148.375 387 L 148.375 390 L 136.25 390 L 136.25 387 L 124.125 387 L 124.125 390 L 112 390 L 112 387 L 99.875 387 L 99.875 390 L 87.75 390 L 87.75 387 L 75.625 387 L 75.625 390 L 63.5 390 L 63.5 387 L 51.375 387 L 51.375 390 L 39.25 390 L 39.25 387 L 27.125 387 L 27.125 390 L 15 390 L 15 377.5 L 12 377.5 L 12 365 L 15 365 L 15 352.5 L 12 352.5 L 12 340 Z" class="part" />
<path d="M 15 343 L 209 343 L 209 346.2 L 15 346.2 Z" class="inner-cut" />
<line x1="112" y1="337" x2="112" y2="340" class="marker-line" />
<circle cx="112" cy="332.5" r="4.5" class="marker-badge" />
<text x="112" y="332.5" class="marker-text">5</text>
</g>
<g>
<path d="M 222 340 L 316 340 L 316 540 L 222 540 Z" class="part" />

<line x1="269" y1="337" x2="269" y2="340" class="marker-line" />
<circle cx="269" cy="332.5" r="4.5" class="marker-badge" />
<text x="269" y="332.5" class="marker-text">6</text>
</g>
<g>
<path d="M 14.9 550 L 208.9 550 L 208.9 583.75 L 211.8 583.75 L 211.8 587.25 L 208.9 587.25 L 208.9 590.25 L 14.9 590.25 L 14.9 587.25 L 12 587.25 L 12 583.75 L 14.9 583.75 Z" class="part" />

<line x1="111.9" y1="547" x2="111.9" y2="550" class="marker-line" />
<circle cx="111.9" cy="542.5" r="4.5" class="marker-badge" />
<text x="111.9" y="542.5" class="marker-text">7</text>
</g>
<g>
<rect x="348" y="70" width="150" height="120" rx="3" class="legend-box" />
<text x="356" y="78" class="legend-title">Placed Parts</text>
<circle cx="356" cy="82" r="4.5" class="marker-badge" />
<text x="356" y="82" class="marker-text">1</text>
<text x="366" y="80" class="legend-item">bottom ×1</text>
<text x="366" y="85" class="legend-item">100 × 200 mm</text>
<text x="366" y="90" class="legend-item">Base panel</text>
<circle cx="356" cy="98" r="4.5" class="marker-badge" />
<text x="356" y="98" class="marker-text">2</text>
<text x="366" y="96" class="legend-item">front-back ×1</text>
<text x="366" y="101" class="legend-item">100 × 50 mm</text>
<text x="366" y="106" class="legend-item">Main walls. Universal layout, rem…</text>
<circle cx="356" cy="114" r="4.5" class="marker-badge" />
<text x="356" y="114" class="marker-text">3</text>
<text x="366" y="112" class="legend-item">front-back ×1</text>
<text x="366" y="117" class="legend-item">100 × 50 mm</text>
<text x="366" y="122" class="legend-item">Main walls. Universal layout, rem…</text>
<circle cx="356" cy="130" r="4.5" class="marker-badge" />
<text x="356" y="130" class="marker-text">4</text>
<text x="366" y="128" class="legend-item">left-right ×1</text>
<text x="366" y="133" class="legend-item">200 × 50 mm</text>
<text x="366" y="138" class="legend-item">Side walls with future lid-rail g…</text>
<circle cx="356" cy="146" r="4.5" class="marker-badge" />
<text x="356" y="146" class="marker-text">5</text>
<text x="366" y="144" class="legend-item">left-right ×1</text>
<text x="366" y="149" class="legend-item">200 × 50 mm</text>
<text x="366" y="154" class="legend-item">Side walls with future lid-rail g…</text>
<circle cx="356" cy="162" r="4.5" class="marker-badge" />
<text x="356" y="162" class="marker-text">6</text>
<text x="366" y="160" class="legend-item">lid ×1</text>
<text x="366" y="165" class="legend-item">94 × 200 mm</text>
<text x="366" y="170" class="legend-item">Sliding lid with clearance 0.25 mm</text>
<circle cx="356" cy="178" r="4.5" class="marker-badge" />
<text x="356" y="178" class="marker-text">7</text>
<text x="366" y="176" class="legend-item">divider-depth-template ×1</text>
<text x="366" y="181" class="legend-item">199.8 × 40.25 mm</text>
<text x="366" y="186" class="legend-item">First removable divider template …</text>
</g>
</svg>