<?xml version="1.0" encoding="UTF-8"?>
<svg xmlns="http://www.w3.org/2000/svg" width="344mm" height="544.25mm" viewBox="0 0 344 544.25">
<style>
.cut { fill: none; stroke: #000000; stroke-width: 0.15; vector-effect: non-scaling-stroke; }
</style>
<rect x="0" y="0" width="344" height="544.25" fill="#ffffff" />
<path d="M 15 15 L 15 12 L 26.75 12 L 26.75 15 L 38.5 15 L 38.5 12 L 50.25 12 L 50.25 15 L 62 15 L 62 12 L 73.75 12 L 73.75 15 L 85.5 15 L 85.5 12 L 97.25 12 L 97.25 15 L 109 15 L 112 15 L 112 27.125 L 109 27.125 L 109 39.25 L 112 39.25 L 112 51.375 L 109 51.375 L 109 63.5 L 112 63.5 L 112 75.625 L 109 75.625 L 109 87.75 L 112 87.75 L 112 99.875 L 109 99.875 L 109 112 L 112 112 L 112 124.125 L 109 124.125 L 109 136.25 L 112 136.25 L 112 148.375 L 109 148.375 L 109 160.5 L 112 160.5 L 112 172.625 L 109 172.625 L 109 184.75 L 112 184.75 L 112 196.875 L 109 196.875 L 109 209 L 109 212 L 97.25 212 L 97.25 209 L 85.5 209 L 85.5 212 L 73.75 212 L 73.75 209 L 62 209 L 62 212 L 50.25 212 L 50.25 209 L 38.5 209 L 38.5 212 L 26.75 212 L 26.75 209 L 15 209 L 15 196.875 L 12 196.875 L 12 184.75 L 15 184.75 L 15 172.625 L 12 172.625 L 12 160.5 L 15 160.5 L 15 148.375 L 12 148.375 L 12 136.25 L 15 136.25 L 15 124.125 L 12 124.125 L 12 112 L 15 112 L 15 99.875 L 12 99.875 L 12 87.75 L 15 87.75 L 15 75.625 L 12 75.625 L 12 63.5 L 15 63.5 L 15 51.375 L 12 51.375 L 12 39.25 L 15 39.25 L 15 27.125 L 12 27.125 L 12 15 Z" class="cut" />
<path d="M 122 12 L 222 12 L 219 12 L 219 24.5 L 222 24.5 L 222 37 L 219 37 L 219 49.5 L 222 49.5 L 222 62 L 222 59 L 209.5 59 L 209.5 62 L 197 62 L 197 59 L 184.5 59 L 184.5 62 L 172 62 L 172 59 L 159.5 59 L 159.5 62 L 147 62 L 147 59 L 134.5 59 L 134.5 62 L 122 62 L 122 49.5 L 125 49.5 L 125 37 L 122 37 L 122 24.5 L 125 24.5 L 125 12 Z" class="cut" />
<path d="M 145.45 51.5 L 148.55 51.5 L 148.55 56 L 145.45 56 Z" class="cut" />
<path d="M 170.45 51.5 L 173.55 51.5 L 173.55 56 L 170.45 56 Z" class="cut" />
<path d="M 195.45 51.5 L 198.55 51.5 L 198.55 56 L 195.45 56 Z" class="cut" />
<path d="M 232 12 L 332 12 L 329 12 L 329 24.5 L 332 24.5 L 332 37 L 329 37 L 329 49.5 L 332 49.5 L 332 62 L 332 59 L 319.5 59 L 319.5 62 L 307 62 L 307 59 L 294.5 59 L 294.5 62 L 282 62 L 282 59 L 269.5 59 L 269.5 62 L 257 62 L 257 59 L 244.5 59 L 244.5 62 L 232 62 L 232 49.5 L 235 49.5 L 235 37 L 232 37 L 232 24.5 L 235 24.5 L 235 12 Z" class="cut" />
<path d="M 255.45 51.5 L 258.55 51.5 L 258.55 56 L 255.45 56 Z" class="cut" />
<path d="M 280.45 51.5 L 283.55 51.5 L 283.55 56 L 280.45 56 Z" class="cut" />
<path d="M 305.45 51.5 L 308.55 51.5 L 308.55 56 L 305.45 56 Z" class="cut" />
<path d="M 15 222 L 209 222 L 212 222 L 212 234.5 L 209 234.5 L 209 247 L 212 247 L 212 259.5 L 209 259.5 L 209 272 L 209 269 L 196.875 269 L 196.875 272 L 184.75 272 L 184.75 269 L 172.625 269 L 172.625 272 L 160.5 272 L 160.5 269 L 148.375 269 L 148.375 272 L 136.25 272 L 136.25 269 L 124.125 269 L 124.125 272 L 112 272 L 112 269 L 99.875 269 L 99.875 272 L 87.75 272 L 87.75 269 L 75.625 269 L 75.625 272 L 63.5 272 L 63.5 269 L 51.375 269 L 51.375 272 L 39.25 272 L 39.25 269 L 27.125 269 L 27.125 272 L 15 272 L 15 259.5 L 12 259.5 L 12 247 L 15 247 L 15 234.5 L 12 234.5 L 12 222 Z" class="cut" />
<path d="M 15 225 L 209 225 L 209 228.2 L 15 228.2 Z" class="cut" />
<path d="M 15 282 L 209 282 L 212 282 L 212 294.5 L 209 294.5 L 209 307 L 212 307 L 212 319.5 L 209 319.5 L 209 332 L 209 329 L 196.875 329 L 196.875 332 L 184.75 332 L 184.75 329 L 172.625 329 L 172.625 332 L 160.5 332 L 160.5 329 L 148.375 329 L 148.375 332 L 136.25 332 L 136.25 329 L 124.125 329 L 124.125 332 L 112 332 L 112 329 L 99.875 329 L 99.875 332 L 87.75 332 L 87.75 329 L 75.625 329 L 75.625 332 L 63.5 332 L 63.5 329 L 51.375 329 L 51.375 332 L 39.25 332 L 39.25 329 L 27.125 329 L 27.125 332 L 15 332 L 15 319.5 L 12 319.5 L 12 307 L 15 307 L 15 294.5 L 12 294.5 L 12 282 Z" class="cut" />
<path d="M 15 285 L 209 285 L 209 288.2 L 15 288.2 Z" class="cut" />
<path d="M 222 282 L 316 282 L 316 482 L 222 482 Z" class="cut" />
<path d="M 14.9 492 L 208.9 492 L 208.9 525.75 L 211.8 525.75 L 211.8 529.25 L 208.9 529.25 L 208.9 532.25 L 14.9 532.25 L 14.9 529.25 L 12 529.25 L 12 525.75 L 14.9 525.75 Z" class="cut" />
</svg>