<?xml version="1.0" encoding="UTF-8"?>
<svg xmlns="http://www.w3.org/2000/svg" width="344.05mm" height="744.3mm" viewBox="0 0 344.05 744.3">
<style>
.cut { fill: none; stroke: #000000; stroke-width: 0.15; vector-effect: non-scaling-stroke; }
</style>
<rect x="0" y="0" width="344.05" height="744.3" fill="#ffffff" />
<path d="M 14.95 14.95 L 14.95 11.95 L 26.8 11.95 L 26.8 14.95 L 38.45 14.95 L 38.45 11.95 L 50.3 11.95 L 50.3 14.95 L 61.95 14.95 L 61.95 11.95 L 73.8 11.95 L 73.8 14.95 L 85.45 14.95 L 85.45 11.95 L 97.3 11.95 L 97.3 14.95 L 112.05 14.95 L 112.05 27.175 L 109.05 27.175 L 109.05 39.2 L 112.05 39.2 L 112.05 51.425 L 109.05 51.425 L 109.05 63.45 L 112.05 63.45 L 112.05 75.675 L 109.05 75.675 L 109.05 87.7 L 112.05 87.7 L 112.05 99.925 L 109.05 99.925 L 109.05 111.95 L 112.05 111.95 L 112.05 124.175 L 109.05 124.175 L 109.05 136.2 L 112.05 136.2 L 112.05 148.425 L 109.05 148.425 L 109.05 160.45 L 112.05 160.45 L 112.05 172.675 L 109.05 172.675 L 109.05 184.7 L 112.05 184.7 L 112.05 196.925 L 109.05 196.925 L 109.05 212.05 L 97.2 212.05 L 97.2 209.05 L 85.55 209.05 L 85.55 212.05 L 73.7 212.05 L 73.7 209.05 L 62.05 209.05 L 62.05 212.05 L 50.2 212.05 L 50.2 209.05 L 38.55 209.05 L 38.55 212.05 L 26.7 212.05 L 26.7 209.05 L 14.95 209.05 L 14.95 196.925 L 11.95 196.925 L 11.95 184.7 L 14.95 184.7 L 14.95 172.675 L 11.95 172.675 L 11.95 160.45 L 14.95 160.45 L 14.95 148.425 L 11.95 148.425 L 11.95 136.2 L 14.95 136.2 L 14.95 124.175 L 11.95 124.175 L 11.95 111.95 L 14.95 111.95 L 14.95 99.925 L 11.95 99.925 L 11.95 87.7 L 14.95 87.7 L 14.95 75.675 L 11.95 75.675 L 11.95 63.45 L 14.95 63.45 L 14.95 51.425 L 11.95 51.425 L 11.95 39.2 L 14.95 39.2 L 14.95 27.175 L 11.95 27.175 L 11.95 14.95 Z" class="cut" />
<path d="M 219.05 11.95 L 219.05 24.45 L 222.05 24.45 L 222.05 37.05 L 219.05 37.05 L 219.05 49.45 L 222.05 49.45 L 222.05 62.05 L 219.05 62.05 L 219.05 74.45 L 222.05 74.45 L 222.05 87.05 L 219.05 87.05 L 219.05 99.45 L 222.05 99.45 L 222.05 112.05 L 219.05 112.05 L 219.05 124.45 L 222.05 124.45 L 222.05 137.05 L 219.05 137.05 L 219.05 149.45 L 222.05 149.45 L 222.05 159.05 L 209.55 159.05 L 209.55 162.05 L 196.95 162.05 L 196.95 159.05 L 184.55 159.05 L 184.55 162.05 L 171.95 162.05 L 171.95 159.05 L 159.55 159.05 L 159.55 162.05 L 146.95 162.05 L 146.95 159.05 L 134.55 159.05 L 134.55 162.05 L 121.95 162.05 L 121.95 149.45 L 124.95 149.45 L 124.95 137.05 L 121.95 137.05 L 121.95 124.45 L 124.95 124.45 L 124.95 112.05 L 121.95 112.05 L 121.95 99.45 L 124.95 99.45 L 124.95 87.05 L 121.95 87.05 L 121.95 74.45 L 124.95 74.45 L 124.95 62.05 L 121.95 62.05 L 121.95 49.45 L 124.95 49.45 L 124.95 37.05 L 121.95 37.05 L 121.95 24.45 L 124.95 24.45 L 124.95 11.95 Z" class="cut" />
<path d="M 145.5 151.55 L 148.5 151.55 L 148.5 155.95 L 145.5 155.95 Z" class="cut" />
<path d="M 170.5 151.55 L 173.5 151.55 L 173.5 155.95 L 170.5 155.95 Z" class="cut" />
<path d="M 195.5 151.55 L 198.5 151.55 L 198.5 155.95 L 195.5 155.95 Z" class="cut" />
<path d="M 329.05 11.95 L 329.05 24.45 L 332.05 24.45 L 332.05 37.05 L 329.05 37.05 L 329.05 49.45 L 332.05 49.45 L 332.05 62.05 L 329.05 62.05 L 329.05 74.45 L 332.05 74.45 L 332.05 87.05 L 329.05 87.05 L 329.05 99.45 L 332.05 99.45 L 332.05 112.05 L 329.05 112.05 L 329.05 124.45 L 332.05 124.45 L 332.05 137.05 L 329.05 137.05 L 329.05 149.45 L 332.05 149.45 L 332.05 159.05 L 319.55 159.05 L 319.55 162.05 L 306.95 162.05 L 306.95 159.05 L 294.55 159.05 L 294.55 162.05 L 281.95 162.05 L 281.95 159.05 L 269.55 159.05 L 269.55 162.05 L 256.95 162.05 L 256.95 159.05 L 244.55 159.05 L 244.55 162.05 L 231.95 162.05 L 231.95 149.45 L 234.95 149.45 L 234.95 137.05 L 231.95 137.05 L 231.95 124.45 L 234.95 124.45 L 234.95 112.05 L 231.95 112.05 L 231.95 99.45 L 234.95 99.45 L 234.95 87.05 L 231.95 87.05 L 231.95 74.45 L 234.95 74.45 L 234.95 62.05 L 231.95 62.05 L 231.95 49.45 L 234.95 49.45 L 234.95 37.05 L 231.95 37.05 L 231.95 24.45 L 234.95 24.45 L 234.95 11.95 Z" class="cut" />
<path d="M 255.5 151.55 L 258.5 151.55 L 258.5 155.95 L 255.5 155.95 Z" class="cut" />
<path d="M 280.5 151.55 L 283.5 151.55 L 283.5 155.95 L 280.5 155.95 Z" class="cut" />
<path d="M 305.5 151.55 L 308.5 151.55 L 308.5 155.95 L 305.5 155.95 Z" class="cut" />
<path d="M 212.05 221.95 L 212.05 234.55 L 209.05 234.55 L 209.05 246.95 L 212.05 246.95 L 212.05 259.55 L 209.05 259.55 L 209.05 271.95 L 212.05 271.95 L 212.05 284.55 L 209.05 284.55 L 209.05 296.95 L 212.05 296.95 L 212.05 309.55 L 209.05 309.55 L 209.05 321.95 L 212.05 321.95 L 212.05 334.55 L 209.05 334.55 L 209.05 346.95 L 212.05 346.95 L 212.05 359.55 L 209.05 359.55 L 209.05 369.05 L 196.925 369.05 L 196.925 372.05 L 184.7 372.05 L 184.7 369.05 L 172.675 369.05 L 172.675 372.05 L 160.45 372.05 L 160.45 369.05 L 148.425 369.05 L 148.425 372.05 L 136.2 372.05 L 136.2 369.05 L 124.175 369.05 L 124.175 372.05 L 111.95 372.05 L 111.95 369.05 L 99.925 369.05 L 99.925 372.05 L 87.7 372.05 L 87.7 369.05 L 75.675 369.05 L 75.675 372.05 L 63.45 372.05 L 63.45 369.05 L 51.425 369.05 L 51.425 372.05 L 39.2 372.05 L 39.2 369.05 L 27.175 369.05 L 27.175 372.05 L 14.95 372.05 L 14.95 359.55 L 11.95 359.55 L 11.95 346.95 L 14.95 346.95 L 14.95 334.55 L 11.95 334.55 L 11.95 321.95 L 14.95 321.95 L 14.95 309.55 L 11.95 309.55 L 11.95 296.95 L 14.95 296.95 L 14.95 284.55 L 11.95 284.55 L 11.95 271.95 L 14.95 271.95 L 14.95 259.55 L 11.95 259.55 L 11.95 246.95 L 14.95 246.95 L 14.95 234.55 L 11.95 234.55 L 11.95 221.95 Z" class="cut" />
<path d="M 15.05 225.05 L 208.95 225.05 L 208.95 228.15 L 20.95 228.15 L 20.95 231.15 L 15.05 231.15 Z" class="cut" />
<path d="M 212.05 381.95 L 212.05 394.55 L 209.05 394.55 L 209.05 406.95 L 212.05 406.95 L 212.05 419.55 L 209.05 419.55 L 209.05 431.95 L 212.05 431.95 L 212.05 444.55 L 209.05 444.55 L 209.05 456.95 L 212.05 456.95 L 212.05 469.55 L 209.05 469.55 L 209.05 481.95 L 212.05 481.95 L 212.05 494.55 L 209.05 494.55 L 209.05 506.95 L 212.05 506.95 L 212.05 519.55 L 209.05 519.55 L 209.05 529.05 L 196.925 529.05 L 196.925 532.05 L 184.7 532.05 L 184.7 529.05 L 172.675 529.05 L 172.675 532.05 L 160.45 532.05 L 160.45 529.05 L 148.425 529.05 L 148.425 532.05 L 136.2 532.05 L 136.2 529.05 L 124.175 529.05 L 124.175 532.05 L 111.95 532.05 L 111.95 529.05 L 99.925 529.05 L 99.925 532.05 L 87.7 532.05 L 87.7 529.05 L 75.675 529.05 L 75.675 532.05 L 63.45 532.05 L 63.45 529.05 L 51.425 529.05 L 51.425 532.05 L 39.2 532.05 L 39.2 529.05 L 27.175 529.05 L 27.175 532.05 L 14.95 532.05 L 14.95 519.55 L 11.95 519.55 L 11.95 506.95 L 14.95 506.95 L 14.95 494.55 L 11.95 494.55 L 11.95 481.95 L 14.95 481.95 L 14.95 469.55 L 11.95 469.55 L 11.95 456.95 L 14.95 456.95 L 14.95 444.55 L 11.95 444.55 L 11.95 431.95 L 14.95 431.95 L 14.95 419.55 L 11.95 419.55 L 11.95 406.95 L 14.95 406.95 L 14.95 394.55 L 11.95 394.55 L 11.95 381.95 Z" class="cut" />
<path d="M 15.05 385.05 L 208.95 385.05 L 208.95 388.15 L 20.95 388.15 L 20.95 391.15 L 15.05 391.15 Z" class="cut" />
<path d="M 221.95 381.95 L 316.05 381.95 L 316.05 582.05 L 221.95 582.05 Z" class="cut" />
<path d="M 14.85 591.95 L 208.95 591.95 L 208.95 725.7 L 211.85 725.7 L 211.85 729.3 L 208.95 729.3 L 208.95 732.3 L 14.85 732.3 L 14.85 729.3 L 11.95 729.3 L 11.95 725.7 L 14.85 725.7 Z" class="cut" />
</svg>