<?xml version="1.0" encoding="UTF-8"?>
<svg xmlns="http://www.w3.org/2000/svg" width="344mm" height="844.25mm" viewBox="0 0 344 844.25">
<style>
.cut { fill: none; stroke: #000000; stroke-width: 0.15; vector-effect: non-scaling-stroke; }
</style>
<rect x="0" y="0" width="344" height="844.25" fill="#ffffff" />
<path d="M 15 15 L 15 12 L 26.75 12 L 26.75 15 L 38.5 15 L 38.5 12 L 50.25 12 L 50.25 15 L 62 15 L 62 12 L 73.75 12 L 73.75 15 L 85.5 15 L 85.5 12 L 97.25 12 L 97.25 15 L 109 15 L 112 15 L 112 27.125 L 109 27.125 L 109 39.25 L 112 39.25 L 112 51.375 L 109 51.375 L 109 63.5 L 112 63.5 L 112 75.625 L 109 75.625 L 109 87.75 L 112 87.75 L 112 99.875 L 109 99.875 L 109 112 L 112 112 L 112 124.125 L 109 124.125 L 109 136.25 L 112 136.25 L 112 148.375 L 109 148.375 L 109 160.5 L 112 160.5 L 112 172.625 L 109 172.625 L 109 184.75 L 112 184.75 L 112 196.875 L 109 196.875 L 109 209 L 109 212 L 97.25 212 L 97.25 209 L 85.5 209 L 85.5 212 L 73.75 212 L 73.75 209 L 62 209 L 62 212 L 50.25 212 L 50.25 209 L 38.5 209 L 38.5 212 L 26.75 212 L 26.75 209 L 15 209 L 15 196.875 L 12 196.875 L 12 184.75 L 15 184.75 L 15 172.625 L 12 172.625 L 12 160.5 L 15 160.5 L 15 148.375 L 12 148.375 L 12 136.25 L 15 136.25 L 15 124.125 L 12 124.125 L 12 112 L 15 112 L 15 99.875 L 12 99.875 L 12 87.75 L 15 87.75 L 15 75.625 L 12 75.625 L 12 63.5 L 15 63.5 L 15 51.375 L 12 51.375 L 12 39.25 L 15 39.25 L 15 27.125 L 12 27.125 L 12 15 Z" class="cut" />
<path d="M 122 12 L 222 12 L 219 12 L 219 24.5 L 222 24.5 L 222 37 L 219 37 L 219 49.5 L 222 49.5 L 222 62 L 219 62 L 219 74.5 L 222 74.5 L 222 87 L 219 87 L 219 99.5 L 222 99.5 L 222 112 L 219 112 L 219 124.5 L 222 124.5 L 222 137 L 219 137 L 219 149.5 L 222 149.5 L 222 162 L 219 162 L 219 174.5 L 222 174.5 L 222 187 L 219 187 L 219 199.5 L 222 199.5 L 222 212 L 222 209 L 209.5 209 L 209.5 212 L 197 212 L 197 209 L 184.5 209 L 184.5 212 L 172 212 L 172 209 L 159.5 209 L 159.5 212 L 147 212 L 147 209 L 134.5 209 L 134.5 212 L 122 212 L 122 199.5 L 125 199.5 L 125 187 L 122 187 L 122 174.5 L 125 174.5 L 125 162 L 122 162 L 122 149.5 L 125 149.5 L 125 137 L 122 137 L 122 124.5 L 125 124.5 L 125 112 L 122 112 L 122 99.5 L 125 99.5 L 125 87 L 122 87 L 122 74.5 L 125 74.5 L 125 62 L 122 62 L 122 49.5 L 125 49.5 L 125 37 L 122 37 L 122 24.5 L 125 24.5 L 125 12 Z" class="cut" />
<path d="M 145.45 201.5 L 148.55 201.5 L 148.55 206 L 145.45 206 Z" class="cut" />
<path d="M 170.45 201.5 L 173.55 201.5 L 173.55 206 L 170.45 206 Z" class="cut" />
<path d="M 195.45 201.5 L 198.55 201.5 L 198.55 206 L 195.45 206 Z" class="cut" />
<path d="M 232 12 L 332 12 L 329 12 L 329 24.5 L 332 24.5 L 332 37 L 329 37 L 329 49.5 L 332 49.5 L 332 62 L 329 62 L 329 74.5 L 332 74.5 L 332 87 L 329 87 L 329 99.5 L 332 99.5 L 332 112 L 329 112 L 329 124.5 L 332 124.5 L 332 137 L 329 137 L 329 149.5 L 332 149.5 L 332 162 L 329 162 L 329 174.5 L 332 174.5 L 332 187 L 329 187 L 329 199.5 L 332 199.5 L 332 212 L 332 209 L 319.5 209 L 319.5 212 L 307 212 L 307 209 L 294.5 209 L 294.5 212 L 282 212 L 282 209 L 269.5 209 L 269.5 212 L 257 212 L 257 209 L 244.5 209 L 244.5 212 L 232 212 L 232 199.5 L 235 199.5 L 235 187 L 232 187 L 232 174.5 L 235 174.5 L 235 162 L 232 162 L 232 149.5 L 235 149.5 L 235 137 L 232 137 L 232 124.5 L 235 124.5 L 235 112 L 232 112 L 232 99.5 L 235 99.5 L 235 87 L 232 87 L 232 74.5 L 235 74.5 L 235 62 L 232 62 L 232 49.5 L 235 49.5 L 235 37 L 232 37 L 232 24.5 L 235 24.5 L 235 12 Z" class="cut" />
<path d="M 255.45 201.5 L 258.55 201.5 L 258.55 206 L 255.45 206 Z" class="cut" />
<path d="M 280.45 201.5 L 283.55 201.5 L 283.55 206 L 280.45 206 Z" class="cut" />
<path d="M 305.45 201.5 L 308.55 201.5 L 308.55 206 L 305.45 206 Z" class="cut" />
<path d="M 15 222 L 209 222 L 212 222 L 212 234.5 L 209 234.5 L 209 247 L 212 247 L 212 259.5 L 209 259.5 L 209 272 L 212 272 L 212 284.5 L 209 284.5 L 209 297 L 212 297 L 212 309.5 L 209 309.5 L 209 322 L 212 322 L 212 334.5 L 209 334.5 L 209 347 L 212 347 L 212 359.5 L 209 359.5 L 209 372 L 212 372 L 212 384.5 L 209 384.5 L 209 397 L 212 397 L 212 409.5 L 209 409.5 L 209 422 L 209 419 L 196.875 419 L 196.875 422 L 184.75 422 L 184.75 419 L 172.625 419 L 172.625 422 L 160.5 422 L 160.5 419 L 148.375 419 L 148.375 422 L 136.25 422 L 136.25 419 L 124.125 419 L 124.125 422 L 112 422 L 112 419 L 99.875 419 L 99.875 422 L 87.75 422 L 87.75 419 L 75.625 419 L 75.625 422 L 63.5 422 L 63.5 419 L 51.375 419 L 51.375 422 L 39.25 422 L 39.25 419 L 27.125 419 L 27.125 422 L 15 422 L 15 409.5 L 12 409.5 L 12 397 L 15 397 L 15 384.5 L 12 384.5 L 12 372 L 15 372 L 15 359.5 L 12 359.5 L 12 347 L 15 347 L 15 334.5 L 12 334.5 L 12 322 L 15 322 L 15 309.5 L 12 309.5 L 12 297 L 15 297 L 15 284.5 L 12 284.5 L 12 272 L 15 272 L 15 259.5 L 12 259.5 L 12 247 L 15 247 L 15 234.5 L 12 234.5 L 12 222 Z" class="cut" />
<path d="M 15 225 L 209 225 L 209 228.2 L 15 228.2 Z" class="cut" />
<path d="M 15 432 L 209 432 L 212 432 L 212 444.5 L 209 444.5 L 209 457 L 212 457 L 212 469.5 L 209 469.5 L 209 482 L 212 482 L 212 494.5 L 209 494.5 L 209 507 L 212 507 L 212 519.5 L 209 519.5 L 209 532 L 212 532 L 212 544.5 L 209 544.5 L 209 557 L 212 557 L 212 569.5 L 209 569.5 L 209 582 L 212 582 L 212 594.5 L 209 594.5 L 209 607 L 212 607 L 212 619.5 L 209 619.5 L 209 632 L 209 629 L 196.875 629 L 196.875 632 L 184.75 632 L 184.75 629 L 172.625 629 L 172.625 632 L 160.5 632 L 160.5 629 L 148.375 629 L 148.375 632 L 136.25 632 L 136.25 629 L 124.125 629 L 124.125 632 L 112 632 L 112 629 L 99.875 629 L 99.875 632 L 87.75 632 L 87.75 629 L 75.625 629 L 75.625 632 L 63.5 632 L 63.5 629 L 51.375 629 L 51.375 632 L 39.25 632 L 39.25 629 L 27.125 629 L 27.125 632 L 15 632 L 15 619.5 L 12 619.5 L 12 607 L 15 607 L 15 594.5 L 12 594.5 L 12 582 L 15 582 L 15 569.5 L 12 569.5 L 12 557 L 15 557 L 15 544.5 L 12 544.5 L 12 532 L 15 532 L 15 519.5 L 12 519.5 L 12 507 L 15 507 L 15 494.5 L 12 494.5 L 12 482 L 15 482 L 15 469.5 L 12 469.5 L 12 457 L 15 457 L 15 444.5 L 12 444.5 L 12 432 Z" class="cut" />
<path d="M 15 435 L 209 435 L 209 438.2 L 15 438.2 Z" class="cut" />
<path d="M 222 432 L 316 432 L 316 632 L 222 632 Z" class="cut" />
<path d="M 14.9 642 L 208.9 642 L 208.9 825.75 L 211.8 825.75 L 211.8 829.25 L 208.9 829.25 L 208.9 832.25 L 14.9 832.25 L 14.9 829.25 L 12 829.25 L 12 825.75 L 14.9 825.75 Z" class="cut" />
</svg>