<?xml version="1.0" encoding="UTF-8"?>
<svg xmlns="http://www.w3.org/2000/svg" width="384.05mm" height="644.3mm" viewBox="0 0 384.05 644.3">
<style>
.cut { fill: none; stroke: #000000; stroke-width: 0.15; vector-effect: non-scaling-stroke; }
</style>
<rect x="0" y="0" width="384.05" height="644.3" fill="#ffffff" />
<path d="M 14.95 14.95 L 14.95 11.95 L 27.05 11.95 L 27.05 14.95 L 38.95 14.95 L 38.95 11.95 L 51.05 11.95 L 51.05 14.95 L 62.95 14.95 L 62.95 11.95 L 75.05 11.95 L 75.05 14.95 L 86.95 14.95 L 86.95 11.95 L 99.05 11.95 L 99.05 14.95 L 110.95 14.95 L 110.95 11.95 L 123.05 11.95 L 123.05 14.95 L 134.95 14.95 L 134.95 11.95 L 147.05 11.95 L 147.05 14.95 L 162.05 14.95 L 162.05 27.175 L 159.05 27.175 L 159.05 39.2 L 162.05 39.2 L 162.05 51.425 L 159.05 51.425 L 159.05 63.45 L 162.05 63.45 L 162.05 75.675 L 159.05 75.675 L 159.05 87.7 L 162.05 87.7 L 162.05 99.925 L 159.05 99.925 L 159.05 111.95 L 162.05 111.95 L 162.05 124.175 L 159.05 124.175 L 159.05 136.2 L 162.05 136.2 L 162.05 148.425 L 159.05 148.425 L 159.05 160.45 L 162.05 160.45 L 162.05 172.675 L 159.05 172.675 L 159.05 184.7 L 162.05 184.7 L 162.05 196.925 L 159.05 196.925 L 159.05 212.05 L 146.95 212.05 L 146.95 209.05 L 135.05 209.05 L 135.05 212.05 L 122.95 212.05 L 122.95 209.05 L 111.05 209.05 L 111.05 212.05 L 98.95 212.05 L 98.95 209.05 L 87.05 209.05 L 87.05 212.05 L 74.95 212.05 L 74.95 209.05 L 63.05 209.05 L 63.05 212.05 L 50.95 212.05 L 50.95 209.05 L 39.05 209.05 L 39.05 212.05 L 26.95 212.05 L 26.95 209.05 L 14.95 209.05 L 14.95 196.925 L 11.95 196.925 L 11.95 184.7 L 14.95 184.7 L 14.95 172.675 L 11.95 172.675 L 11.95 160.45 L 14.95 160.45 L 14.95 148.425 L 11.95 148.425 L 11.95 136.2 L 14.95 136.2 L 14.95 124.175 L 11.95 124.175 L 11.95 111.95 L 14.95 111.95 L 14.95 99.925 L 11.95 99.925 L 11.95 87.7 L 14.95 87.7 L 14.95 75.675 L 11.95 75.675 L 11.95 63.45 L 14.95 63.45 L 14.95 51.425 L 11.95 51.425 L 11.95 39.2 L 14.95 39.2 L 14.95 27.175 L 11.95 27.175 L 11.95 14.95 Z" class="cut" />
<path d="M 103.5 24.8 L 106.5 24.8 L 106.5 29.2 L 103.5 29.2 Z" class="cut" />
<path d="M 103.5 194.8 L 106.5 194.8 L 106.5 199.2 L 103.5 199.2 Z" class="cut" />
<path d="M 114.8 110.5 L 119.2 110.5 L 119.2 113.5 L 114.8 113.5 Z" class="cut" />
<path d="M 144.8 110.5 L 149.2 110.5 L 149.2 113.5 L 144.8 113.5 Z" class="cut" />
<path d="M 319.05 11.95 L 319.05 24.45 L 322.05 24.45 L 322.05 37.05 L 319.05 37.05 L 319.05 49.45 L 322.05 49.45 L 322.05 62.05 L 319.05 62.05 L 319.05 74.45 L 322.05 74.45 L 322.05 87.05 L 319.05 87.05 L 319.05 99.45 L 322.05 99.45 L 322.05 109.05 L 309.55 109.05 L 309.55 112.05 L 296.95 112.05 L 296.95 109.05 L 284.55 109.05 L 284.55 112.05 L 271.95 112.05 L 271.95 109.05 L 259.55 109.05 L 259.55 112.05 L 246.95 112.05 L 246.95 109.05 L 234.55 109.05 L 234.55 112.05 L 221.95 112.05 L 221.95 109.05 L 209.55 109.05 L 209.55 112.05 L 196.95 112.05 L 196.95 109.05 L 184.55 109.05 L 184.55 112.05 L 171.95 112.05 L 171.95 99.45 L 174.95 99.45 L 174.95 87.05 L 171.95 87.05 L 171.95 74.45 L 174.95 74.45 L 174.95 62.05 L 171.95 62.05 L 171.95 49.45 L 174.95 49.45 L 174.95 37.05 L 171.95 37.05 L 171.95 24.45 L 174.95 24.45 L 174.95 11.95 Z" class="cut" />
<path d="M 263.5 99.05 L 266.5 99.05 L 266.5 103.45 L 263.5 103.45 Z" class="cut" />
<path d="M 159.05 221.95 L 159.05 234.45 L 162.05 234.45 L 162.05 247.05 L 159.05 247.05 L 159.05 259.45 L 162.05 259.45 L 162.05 272.05 L 159.05 272.05 L 159.05 284.45 L 162.05 284.45 L 162.05 297.05 L 159.05 297.05 L 159.05 309.45 L 162.05 309.45 L 162.05 319.05 L 149.55 319.05 L 149.55 322.05 L 136.95 322.05 L 136.95 319.05 L 124.55 319.05 L 124.55 322.05 L 111.95 322.05 L 111.95 319.05 L 99.55 319.05 L 99.55 322.05 L 86.95 322.05 L 86.95 319.05 L 74.55 319.05 L 74.55 322.05 L 61.95 322.05 L 61.95 319.05 L 49.55 319.05 L 49.55 322.05 L 36.95 322.05 L 36.95 319.05 L 24.55 319.05 L 24.55 322.05 L 11.95 322.05 L 11.95 309.45 L 14.95 309.45 L 14.95 297.05 L 11.95 297.05 L 11.95 284.45 L 14.95 284.45 L 14.95 272.05 L 11.95 272.05 L 11.95 259.45 L 14.95 259.45 L 14.95 247.05 L 11.95 247.05 L 11.95 234.45 L 14.95 234.45 L 14.95 221.95 Z" class="cut" />
<path d="M 103.5 309.05 L 106.5 309.05 L 106.5 313.45 L 103.5 313.45 Z" class="cut" />
<path d="M 372.05 221.95 L 372.05 234.55 L 369.05 234.55 L 369.05 246.95 L 372.05 246.95 L 372.05 259.55 L 369.05 259.55 L 369.05 271.95 L 372.05 271.95 L 372.05 284.55 L 369.05 284.55 L 369.05 296.95 L 372.05 296.95 L 372.05 309.55 L 369.05 309.55 L 369.05 319.05 L 356.925 319.05 L 356.925 322.05 L 344.7 322.05 L 344.7 319.05 L 332.675 319.05 L 332.675 322.05 L 320.45 322.05 L 320.45 319.05 L 308.425 319.05 L 308.425 322.05 L 296.2 322.05 L 296.2 319.05 L 284.175 319.05 L 284.175 322.05 L 271.95 322.05 L 271.95 319.05 L 259.925 319.05 L 259.925 322.05 L 247.7 322.05 L 247.7 319.05 L 235.675 319.05 L 235.675 322.05 L 223.45 322.05 L 223.45 319.05 L 211.425 319.05 L 211.425 322.05 L 199.2 322.05 L 199.2 319.05 L 187.175 319.05 L 187.175 322.05 L 174.95 322.05 L 174.95 309.55 L 171.95 309.55 L 171.95 296.95 L 174.95 296.95 L 174.95 284.55 L 171.95 284.55 L 171.95 271.95 L 174.95 271.95 L 174.95 259.55 L 171.95 259.55 L 171.95 246.95 L 174.95 246.95 L 174.95 234.55 L 171.95 234.55 L 171.95 221.95 Z" class="cut" />
<path d="M 175.05 225.05 L 368.95 225.05 L 368.95 228.15 L 180.95 228.15 L 180.95 231.15 L 175.05 231.15 Z" class="cut" />
<path d="M 270.5 309.05 L 273.5 309.05 L 273.5 313.45 L 270.5 313.45 Z" class="cut" />
<path d="M 212.05 331.95 L 212.05 344.55 L 209.05 344.55 L 209.05 356.95 L 212.05 356.95 L 212.05 369.55 L 209.05 369.55 L 209.05 381.95 L 212.05 381.95 L 212.05 394.55 L 209.05 394.55 L 209.05 406.95 L 212.05 406.95 L 212.05 419.55 L 209.05 419.55 L 209.05 429.05 L 196.925 429.05 L 196.925 432.05 L 184.7 432.05 L 184.7 429.05 L 172.675 429.05 L 172.675 432.05 L 160.45 432.05 L 160.45 429.05 L 148.425 429.05 L 148.425 432.05 L 136.2 432.05 L 136.2 429.05 L 124.175 429.05 L 124.175 432.05 L 111.95 432.05 L 111.95 429.05 L 99.925 429.05 L 99.925 432.05 L 87.7 432.05 L 87.7 429.05 L 75.675 429.05 L 75.675 432.05 L 63.45 432.05 L 63.45 429.05 L 51.425 429.05 L 51.425 432.05 L 39.2 432.05 L 39.2 429.05 L 27.175 429.05 L 27.175 432.05 L 14.95 432.05 L 14.95 419.55 L 11.95 419.55 L 11.95 406.95 L 14.95 406.95 L 14.95 394.55 L 11.95 394.55 L 11.95 381.95 L 14.95 381.95 L 14.95 369.55 L 11.95 369.55 L 11.95 356.95 L 14.95 356.95 L 14.95 344.55 L 11.95 344.55 L 11.95 331.95 Z" class="cut" />
<path d="M 15.05 335.05 L 208.95 335.05 L 208.95 338.15 L 20.95 338.15 L 20.95 341.15 L 15.05 341.15 Z" class="cut" />
<path d="M 110.5 419.05 L 113.5 419.05 L 113.5 423.45 L 110.5 423.45 Z" class="cut" />
<path d="M 221.95 331.95 L 366.05 331.95 L 366.05 532.05 L 221.95 532.05 Z" class="cut" />
<path d="M 14.85 541.95 L 208.95 541.95 L 208.95 619.2 L 211.85 619.2 L 211.85 623.8 L 208.95 623.8 L 208.95 625.7 L 211.85 625.7 L 211.85 629.3 L 208.95 629.3 L 208.95 632.3 L 14.85 632.3 L 14.85 629.3 L 11.95 629.3 L 11.95 625.7 L 14.85 625.7 L 14.85 623.8 L 11.95 623.8 L 11.95 619.2 L 14.85 619.2 Z" class="cut" />
<path d="M 110.4 621.8 L 113.4 621.8 L 113.4 626.2 L 110.4 626.2 Z" class="cut" />
<path d="M 224.65 541.95 L 278.75 541.95 L 278.75 619.2 L 281.65 619.2 L 281.65 623.8 L 278.75 623.8 L 278.75 625.7 L 281.65 625.7 L 281.65 629.3 L 278.75 629.3 L 278.75 632.3 L 224.65 632.3 L 224.65 629.3 L 221.75 629.3 L 221.75 625.7 L 224.65 625.7 L 224.65 623.8 L 221.75 623.8 L 221.75 619.2 L 224.65 619.2 Z" class="cut" />
</svg>