<?xml version="1.0" encoding="UTF-8"?>
<svg xmlns="http://www.w3.org/2000/svg" width="434.05mm" height="444.3mm" viewBox="0 0 434.05 444.3">
<style>
.cut { fill: none; stroke: #000000; stroke-width: 0.15; vector-effect: non-scaling-stroke; }
</style>
<rect x="0" y="0" width="434.05" height="444.3" fill="#ffffff" />
<path d="M 209.05 14.95 L 212.05 14.95 L 212.05 26.8 L 209.05 26.8 L 209.05 38.45 L 212.05 38.45 L 212.05 50.3 L 209.05 50.3 L 209.05 61.95 L 212.05 61.95 L 212.05 73.8 L 209.05 73.8 L 209.05 85.45 L 212.05 85.45 L 212.05 97.3 L 209.05 97.3 L 209.05 112.05 L 196.825 112.05 L 196.825 109.05 L 184.8 109.05 L 184.8 112.05 L 172.575 112.05 L 172.575 109.05 L 160.55 109.05 L 160.55 112.05 L 148.325 112.05 L 148.325 109.05 L 136.3 109.05 L 136.3 112.05 L 124.075 112.05 L 124.075 109.05 L 112.05 109.05 L 112.05 112.05 L 99.825 112.05 L 99.825 109.05 L 87.8 109.05 L 87.8 112.05 L 75.575 112.05 L 75.575 109.05 L 63.55 109.05 L 63.55 112.05 L 51.325 112.05 L 51.325 109.05 L 39.3 109.05 L 39.3 112.05 L 27.075 112.05 L 27.075 109.05 L 11.95 109.05 L 11.95 97.2 L 14.95 97.2 L 14.95 85.55 L 11.95 85.55 L 11.95 73.7 L 14.95 73.7 L 14.95 62.05 L 11.95 62.05 L 11.95 50.2 L 14.95 50.2 L 14.95 38.55 L 11.95 38.55 L 11.95 26.7 L 14.95 26.7 L 14.95 14.95 L 27.075 14.95 L 27.075 11.95 L 39.3 11.95 L 39.3 14.95 L 51.325 14.95 L 51.325 11.95 L 63.55 11.95 L 63.55 14.95 L 75.575 14.95 L 75.575 11.95 L 87.8 11.95 L 87.8 14.95 L 99.825 14.95 L 99.825 11.95 L 112.05 11.95 L 112.05 14.95 L 124.075 14.95 L 124.075 11.95 L 136.3 11.95 L 136.3 14.95 L 148.325 14.95 L 148.325 11.95 L 160.55 11.95 L 160.55 14.95 L 172.575 14.95 L 172.575 11.95 L 184.8 11.95 L 184.8 14.95 L 196.825 14.95 L 196.825 11.95 L 209.05 11.95 Z" class="cut" />
<path d="M 199.2 60.5 L 199.2 63.5 L 194.8 63.5 L 194.8 60.5 Z" class="cut" />
<path d="M 29.2 60.5 L 29.2 63.5 L 24.8 63.5 L 24.8 60.5 Z" class="cut" />
<path d="M 422.05 11.95 L 422.05 106.05 L 221.95 106.05 L 221.95 11.95 Z" class="cut" />
<path d="M 212.05 121.95 L 212.05 134.55 L 209.05 134.55 L 209.05 146.95 L 212.05 146.95 L 212.05 159.55 L 209.05 159.55 L 209.05 171.95 L 212.05 171.95 L 212.05 184.55 L 209.05 184.55 L 209.05 196.95 L 212.05 196.95 L 212.05 209.55 L 209.05 209.55 L 209.05 219.05 L 196.925 219.05 L 196.925 222.05 L 184.7 222.05 L 184.7 219.05 L 172.675 219.05 L 172.675 222.05 L 160.45 222.05 L 160.45 219.05 L 148.425 219.05 L 148.425 222.05 L 136.2 222.05 L 136.2 219.05 L 124.175 219.05 L 124.175 222.05 L 111.95 222.05 L 111.95 219.05 L 99.925 219.05 L 99.925 222.05 L 87.7 222.05 L 87.7 219.05 L 75.675 219.05 L 75.675 222.05 L 63.45 222.05 L 63.45 219.05 L 51.425 219.05 L 51.425 222.05 L 39.2 222.05 L 39.2 219.05 L 27.175 219.05 L 27.175 222.05 L 14.95 222.05 L 14.95 209.55 L 11.95 209.55 L 11.95 196.95 L 14.95 196.95 L 14.95 184.55 L 11.95 184.55 L 11.95 171.95 L 14.95 171.95 L 14.95 159.55 L 11.95 159.55 L 11.95 146.95 L 14.95 146.95 L 14.95 134.55 L 11.95 134.55 L 11.95 121.95 Z" class="cut" />
<path d="M 15.05 125.05 L 208.95 125.05 L 208.95 128.15 L 20.95 128.15 L 20.95 131.15 L 15.05 131.15 Z" class="cut" />
<path d="M 422.05 121.95 L 422.05 134.55 L 419.05 134.55 L 419.05 146.95 L 422.05 146.95 L 422.05 159.55 L 419.05 159.55 L 419.05 171.95 L 422.05 171.95 L 422.05 184.55 L 419.05 184.55 L 419.05 196.95 L 422.05 196.95 L 422.05 209.55 L 419.05 209.55 L 419.05 219.05 L 406.925 219.05 L 406.925 222.05 L 394.7 222.05 L 394.7 219.05 L 382.675 219.05 L 382.675 222.05 L 370.45 222.05 L 370.45 219.05 L 358.425 219.05 L 358.425 222.05 L 346.2 222.05 L 346.2 219.05 L 334.175 219.05 L 334.175 222.05 L 321.95 222.05 L 321.95 219.05 L 309.925 219.05 L 309.925 222.05 L 297.7 222.05 L 297.7 219.05 L 285.675 219.05 L 285.675 222.05 L 273.45 222.05 L 273.45 219.05 L 261.425 219.05 L 261.425 222.05 L 249.2 222.05 L 249.2 219.05 L 237.175 219.05 L 237.175 222.05 L 224.95 222.05 L 224.95 209.55 L 221.95 209.55 L 221.95 196.95 L 224.95 196.95 L 224.95 184.55 L 221.95 184.55 L 221.95 171.95 L 224.95 171.95 L 224.95 159.55 L 221.95 159.55 L 221.95 146.95 L 224.95 146.95 L 224.95 134.55 L 221.95 134.55 L 221.95 121.95 Z" class="cut" />
<path d="M 225.05 125.05 L 418.95 125.05 L 418.95 128.15 L 230.95 128.15 L 230.95 131.15 L 225.05 131.15 Z" class="cut" />
<path d="M 14.85 231.95 L 208.95 231.95 L 208.95 309.2 L 211.85 309.2 L 211.85 313.8 L 208.95 313.8 L 208.95 322.3 L 199.2 322.3 L 199.2 325.2 L 194.6 325.2 L 194.6 322.3 L 29.2 322.3 L 29.2 325.2 L 24.6 325.2 L 24.6 322.3 L 14.85 322.3 L 14.85 313.8 L 11.95 313.8 L 11.95 309.2 L 14.85 309.2 Z" class="cut" />
<path d="M 109.05 332.2 L 109.05 344.7 L 112.05 344.7 L 112.05 357.3 L 109.05 357.3 L 109.05 369.7 L 112.05 369.7 L 112.05 382.3 L 109.05 382.3 L 109.05 394.7 L 112.05 394.7 L 112.05 407.3 L 109.05 407.3 L 109.05 419.7 L 112.05 419.7 L 112.05 429.3 L 99.55 429.3 L 99.55 432.3 L 86.95 432.3 L 86.95 429.3 L 74.55 429.3 L 74.55 432.3 L 61.95 432.3 L 61.95 429.3 L 49.55 429.3 L 49.55 432.3 L 36.95 432.3 L 36.95 429.3 L 24.55 429.3 L 24.55 432.3 L 11.95 432.3 L 11.95 419.7 L 14.95 419.7 L 14.95 407.3 L 11.95 407.3 L 11.95 394.7 L 14.95 394.7 L 14.95 382.3 L 11.95 382.3 L 11.95 369.7 L 14.95 369.7 L 14.95 357.3 L 11.95 357.3 L 11.95 344.7 L 14.95 344.7 L 14.95 332.2 Z" class="cut" />
<path d="M 60.5 419.3 L 63.5 419.3 L 63.5 423.7 L 60.5 423.7 Z" class="cut" />
<path d="M 219.05 332.2 L 219.05 344.7 L 222.05 344.7 L 222.05 357.3 L 219.05 357.3 L 219.05 369.7 L 222.05 369.7 L 222.05 382.3 L 219.05 382.3 L 219.05 394.7 L 222.05 394.7 L 222.05 407.3 L 219.05 407.3 L 219.05 419.7 L 222.05 419.7 L 222.05 429.3 L 209.55 429.3 L 209.55 432.3 L 196.95 432.3 L 196.95 429.3 L 184.55 429.3 L 184.55 432.3 L 171.95 432.3 L 171.95 429.3 L 159.55 429.3 L 159.55 432.3 L 146.95 432.3 L 146.95 429.3 L 134.55 429.3 L 134.55 432.3 L 121.95 432.3 L 121.95 419.7 L 124.95 419.7 L 124.95 407.3 L 121.95 407.3 L 121.95 394.7 L 124.95 394.7 L 124.95 382.3 L 121.95 382.3 L 121.95 369.7 L 124.95 369.7 L 124.95 357.3 L 121.95 357.3 L 121.95 344.7 L 124.95 344.7 L 124.95 332.2 Z" class="cut" />
<path d="M 170.5 419.3 L 173.5 419.3 L 173.5 423.7 L 170.5 423.7 Z" class="cut" />
</svg>