<?xml version="1.0" encoding="UTF-8"?>
<svg xmlns="http://www.w3.org/2000/svg" width="344.05mm" height="544.3mm" viewBox="0 0 344.05 544.3">
<style>
.cut { fill: none; stroke: #000000; stroke-width: 0.15; vector-effect: non-scaling-stroke; }
</style>
<rect x="0" y="0" width="344.05" height="544.3" fill="#ffffff" />
<path d="M 14.95 14.95 L 14.95 11.95 L 26.8 11.95 L 26.8 14.95 L 38.45 14.95 L 38.45 11.95 L 50.3 11.95 L 50.3 14.95 L 61.95 14.95 L 61.95 11.95 L 73.8 11.95 L 73.8 14.95 L 85.45 14.95 L 85.45 11.95 L 97.3 11.95 L 97.3 14.95 L 112.05 14.95 L 112.05 27.175 L 109.05 27.175 L 109.05 39.2 L 112.05 39.2 L 112.05 51.425 L 109.05 51.425 L 109.05 63.45 L 112.05 63.45 L 112.05 75.675 L 109.05 75.675 L 109.05 87.7 L 112.05 87.7 L 112.05 99.925 L 109.05 99.925 L 109.05 111.95 L 112.05 111.95 L 112.05 124.175 L 109.05 124.175 L 109.05 136.2 L 112.05 136.2 L 112.05 148.425 L 109.05 148.425 L 109.05 160.45 L 112.05 160.45 L 112.05 172.675 L 109.05 172.675 L 109.05 184.7 L 112.05 184.7 L 112.05 196.925 L 109.05 196.925 L 109.05 212.05 L 97.2 212.05 L 97.2 209.05 L 85.55 209.05 L 85.55 212.05 L 73.7 212.05 L 73.7 209.05 L 62.05 209.05 L 62.05 212.05 L 50.2 212.05 L 50.2 209.05 L 38.55 209.05 L 38.55 212.05 L 26.7 212.05 L 26.7 209.05 L 14.95 209.05 L 14.95 196.925 L 11.95 196.925 L 11.95 184.7 L 14.95 184.7 L 14.95 172.675 L 11.95 172.675 L 11.95 160.45 L 14.95 160.45 L 14.95 148.425 L 11.95 148.425 L 11.95 136.2 L 14.95 136.2 L 14.95 124.175 L 11.95 124.175 L 11.95 111.95 L 14.95 111.95 L 14.95 99.925 L 11.95 99.925 L 11.95 87.7 L 14.95 87.7 L 14.95 75.675 L 11.95 75.675 L 11.95 63.45 L 14.95 63.45 L 14.95 51.425 L 11.95 51.425 L 11.95 39.2 L 14.95 39.2 L 14.95 27.175 L 11.95 27.175 L 11.95 14.95 Z" class="cut" />
<path d="M 219.05 11.95 L 219.05 24.45 L 222.05 24.45 L 222.05 37.05 L 219.05 37.05 L 219.05 49.45 L 222.05 49.45 L 222.05 59.05 L 209.55 59.05 L 209.55 62.05 L 196.95 62.05 L 196.95 59.05 L 184.55 59.05 L 184.55 62.05 L 171.95 62.05 L 171.95 59.05 L 159.55 59.05 L 159.55 62.05 L 146.95 62.05 L 146.95 59.05 L 134.55 59.05 L 134.55 62.05 L 121.95 62.05 L 121.95 49.45 L 124.95 49.45 L 124.95 37.05 L 121.95 37.05 L 121.95 24.45 L 124.95 24.45 L 124.95 11.95 Z" class="cut" />
<path d="M 145.5 51.55 L 148.5 51.55 L 148.5 55.95 L 145.5 55.95 Z" class="cut" />
<path d="M 170.5 51.55 L 173.5 51.55 L 173.5 55.95 L 170.5 55.95 Z" class="cut" />
<path d="M 195.5 51.55 L 198.5 51.55 L 198.5 55.95 L 195.5 55.95 Z" class="cut" />
<path d="M 329.05 11.95 L 329.05 24.45 L 332.05 24.45 L 332.05 37.05 L 329.05 37.05 L 329.05 49.45 L 332.05 49.45 L 332.05 59.05 L 319.55 59.05 L 319.55 62.05 L 306.95 62.05 L 306.95 59.05 L 294.55 59.05 L 294.55 62.05 L 281.95 62.05 L 281.95 59.05 L 269.55 59.05 L 269.55 62.05 L 256.95 62.05 L 256.95 59.05 L 244.55 59.05 L 244.55 62.05 L 231.95 62.05 L 231.95 49.45 L 234.95 49.45 L 234.95 37.05 L 231.95 37.05 L 231.95 24.45 L 234.95 24.45 L 234.95 11.95 Z" class="cut" />
<path d="M 255.5 51.55 L 258.5 51.55 L 258.5 55.95 L 255.5 55.95 Z" class="cut" />
<path d="M 280.5 51.55 L 283.5 51.55 L 283.5 55.95 L 280.5 55.95 Z" class="cut" />
<path d="M 305.5 51.55 L 308.5 51.55 L 308.5 55.95 L 305.5 55.95 Z" class="cut" />
<path d="M 212.05 221.95 L 212.05 234.55 L 209.05 234.55 L 209.05 246.95 L 212.05 246.95 L 212.05 259.55 L 209.05 259.55 L 209.05 269.05 L 196.925 269.05 L 196.925 272.05 L 184.7 272.05 L 184.7 269.05 L 172.675 269.05 L 172.675 272.05 L 160.45 272.05 L 160.45 269.05 L 148.425 269.05 L 148.425 272.05 L 136.2 272.05 L 136.2 269.05 L 124.175 269.05 L 124.175 272.05 L 111.95 272.05 L 111.95 269.05 L 99.925 269.05 L 99.925 272.05 L 87.7 272.05 L 87.7 269.05 L 75.675 269.05 L 75.675 272.05 L 63.45 272.05 L 63.45 269.05 L 51.425 269.05 L 51.425 272.05 L 39.2 272.05 L 39.2 269.05 L 27.175 269.05 L 27.175 272.05 L 14.95 272.05 L 14.95 259.55 L 11.95 259.55 L 11.95 246.95 L 14.95 246.95 L 14.95 234.55 L 11.95 234.55 L 11.95 221.95 Z" class="cut" />
<path d="M 15.05 225.05 L 208.95 225.05 L 208.95 228.15 L 20.95 228.15 L 20.95 231.15 L 15.05 231.15 Z" class="cut" />
<path d="M 212.05 281.95 L 212.05 294.55 L 209.05 294.55 L 209.05 306.95 L 212.05 306.95 L 212.05 319.55 L 209.05 319.55 L 209.05 329.05 L 196.925 329.05 L 196.925 332.05 L 184.7 332.05 L 184.7 329.05 L 172.675 329.05 L 172.675 332.05 L 160.45 332.05 L 160.45 329.05 L 148.425 329.05 L 148.425 332.05 L 136.2 332.05 L 136.2 329.05 L 124.175 329.05 L 124.175 332.05 L 111.95 332.05 L 111.95 329.05 L 99.925 329.05 L 99.925 332.05 L 87.7 332.05 L 87.7 329.05 L 75.675 329.05 L 75.675 332.05 L 63.45 332.05 L 63.45 329.05 L 51.425 329.05 L 51.425 332.05 L 39.2 332.05 L 39.2 329.05 L 27.175 329.05 L 27.175 332.05 L 14.95 332.05 L 14.95 319.55 L 11.95 319.55 L 11.95 306.95 L 14.95 306.95 L 14.95 294.55 L 11.95 294.55 L 11.95 281.95 Z" class="cut" />
<path d="M 15.05 285.05 L 208.95 285.05 L 208.95 288.15 L 20.95 288.15 L 20.95 291.15 L 15.05 291.15 Z" class="cut" />
<path d="M 221.95 281.95 L 316.05 281.95 L 316.05 482.05 L 221.95 482.05 Z" class="cut" />
<path d="M 14.85 491.95 L 208.95 491.95 L 208.95 525.7 L 211.85 525.7 L 211.85 529.3 L 208.95 529.3 L 208.95 532.3 L 14.85 532.3 L 14.85 529.3 L 11.95 529.3 L 11.95 525.7 L 14.85 525.7 Z" class="cut" />
</svg>