<?xml version="1.0" encoding="UTF-8"?>
<svg xmlns="http://www.w3.org/2000/svg" width="427.85mm" height="74.05mm" viewBox="0 0 427.85 74.05">
<style>
.cut { fill: none; stroke: #000000; stroke-width: 0.15; vector-effect: non-scaling-stroke; }
</style>
<rect x="0" y="0" width="427.85" height="74.05" fill="#ffffff" />
<path d="M 14.95 14.95 L 14.95 11.95 L 26.05 11.95 L 26.05 14.95 L 36.95 14.95 L 36.95 11.95 L 48.05 11.95 L 48.05 14.95 L 62.05 14.95 L 62.05 26.05 L 59.05 26.05 L 59.05 36.95 L 62.05 36.95 L 62.05 48.05 L 59.05 48.05 L 59.05 62.05 L 47.95 62.05 L 47.95 59.05 L 37.05 59.05 L 37.05 62.05 L 25.95 62.05 L 25.95 59.05 L 14.95 59.05 L 14.95 48.05 L 11.95 48.05 L 11.95 36.95 L 14.95 36.95 L 14.95 26.05 L 11.95 26.05 L 11.95 14.95 Z" class="cut" />
<path d="M 119.05 11.95 L 119.05 24.45 L 122.05 24.45 L 122.05 37.05 L 119.05 37.05 L 119.05 49.45 L 122.05 49.45 L 122.05 59.05 L 109.55 59.05 L 109.55 62.05 L 96.95 62.05 L 96.95 59.05 L 84.55 59.05 L 84.55 62.05 L 71.95 62.05 L 71.95 49.45 L 74.95 49.45 L 74.95 37.05 L 71.95 37.05 L 71.95 24.45 L 74.95 24.45 L 74.95 11.95 Z" class="cut" />
<path d="M 95.5 51.55 L 98.5 51.55 L 98.5 55.95 L 95.5 55.95 Z" class="cut" />
<path d="M 179.05 11.95 L 179.05 24.45 L 182.05 24.45 L 182.05 37.05 L 179.05 37.05 L 179.05 49.45 L 182.05 49.45 L 182.05 59.05 L 169.55 59.05 L 169.55 62.05 L 156.95 62.05 L 156.95 59.05 L 144.55 59.05 L 144.55 62.05 L 131.95 62.05 L 131.95 49.45 L 134.95 49.45 L 134.95 37.05 L 131.95 37.05 L 131.95 24.45 L 134.95 24.45 L 134.95 11.95 Z" class="cut" />
<path d="M 155.5 51.55 L 158.5 51.55 L 158.5 55.95 L 155.5 55.95 Z" class="cut" />
<path d="M 242.05 11.95 L 242.05 24.55 L 239.05 24.55 L 239.05 36.95 L 242.05 36.95 L 242.05 49.55 L 239.05 49.55 L 239.05 59.05 L 228.05 59.05 L 228.05 62.05 L 216.95 62.05 L 216.95 59.05 L 206.05 59.05 L 206.05 62.05 L 194.95 62.05 L 194.95 49.55 L 191.95 49.55 L 191.95 36.95 L 194.95 36.95 L 194.95 24.55 L 191.95 24.55 L 191.95 11.95 Z" class="cut" />
<path d="M 195.05 15.05 L 238.95 15.05 L 238.95 18.15 L 200.95 18.15 L 200.95 21.15 L 195.05 21.15 Z" class="cut" />
<path d="M 302.05 11.95 L 302.05 24.55 L 299.05 24.55 L 299.05 36.95 L 302.05 36.95 L 302.05 49.55 L 299.05 49.55 L 299.05 59.05 L 288.05 59.05 L 288.05 62.05 L 276.95 62.05 L 276.95 59.05 L 266.05 59.05 L 266.05 62.05 L 254.95 62.05 L 254.95 49.55 L 251.95 49.55 L 251.95 36.95 L 254.95 36.95 L 254.95 24.55 L 251.95 24.55 L 251.95 11.95 Z" class="cut" />
<path d="M 255.05 15.05 L 298.95 15.05 L 298.95 18.15 L 260.95 18.15 L 260.95 21.15 L 255.05 21.15 Z" class="cut" />
<path d="M 311.95 11.95 L 356.05 11.95 L 356.05 62.05 L 311.95 62.05 Z" class="cut" />
<path d="M 368.85 11.95 L 412.95 11.95 L 412.95 45.7 L 415.85 45.7 L 415.85 49.3 L 412.95 49.3 L 412.95 52.3 L 368.85 52.3 L 368.85 49.3 L 365.95 49.3 L 365.95 45.7 L 368.85 45.7 Z" class="cut" />
</svg>