<?xml version="1.0" encoding="UTF-8"?>
<svg xmlns="http://www.w3.org/2000/svg" width="427.8mm" height="74mm" viewBox="0 0 427.8 74">
<style>
.cut { fill: none; stroke: #000000; stroke-width: 0.15; vector-effect: non-scaling-stroke; }
</style>
<rect x="0" y="0" width="427.8" height="74" fill="#ffffff" />
<path d="M 15 15 L 15 12 L 26 12 L 26 15 L 37 15 L 37 12 L 48 12 L 48 15 L 59 15 L 62 15 L 62 26 L 59 26 L 59 37 L 62 37 L 62 48 L 59 48 L 59 59 L 59 62 L 48 62 L 48 59 L 37 59 L 37 62 L 26 62 L 26 59 L 15 59 L 15 48 L 12 48 L 12 37 L 15 37 L 15 26 L 12 26 L 12 15 Z" class="cut" />
<path d="M 72 12 L 122 12 L 119 12 L 119 24.5 L 122 24.5 L 122 37 L 119 37 L 119 49.5 L 122 49.5 L 122 62 L 122 59 L 109.5 59 L 109.5 62 L 97 62 L 97 59 L 84.5 59 L 84.5 62 L 72 62 L 72 49.5 L 75 49.5 L 75 37 L 72 37 L 72 24.5 L 75 24.5 L 75 12 Z" class="cut" />
<path d="M 95.45 51.5 L 98.55 51.5 L 98.55 56 L 95.45 56 Z" class="cut" />
<path d="M 132 12 L 182 12 L 179 12 L 179 24.5 L 182 24.5 L 182 37 L 179 37 L 179 49.5 L 182 49.5 L 182 62 L 182 59 L 169.5 59 L 169.5 62 L 157 62 L 157 59 L 144.5 59 L 144.5 62 L 132 62 L 132 49.5 L 135 49.5 L 135 37 L 132 37 L 132 24.5 L 135 24.5 L 135 12 Z" class="cut" />
<path d="M 155.45 51.5 L 158.55 51.5 L 158.55 56 L 155.45 56 Z" class="cut" />
<path d="M 195 12 L 239 12 L 242 12 L 242 24.5 L 239 24.5 L 239 37 L 242 37 L 242 49.5 L 239 49.5 L 239 62 L 239 59 L 228 59 L 228 62 L 217 62 L 217 59 L 206 59 L 206 62 L 195 62 L 195 49.5 L 192 49.5 L 192 37 L 195 37 L 195 24.5 L 192 24.5 L 192 12 Z" class="cut" />
<path d="M 195 15 L 239 15 L 239 18.2 L 195 18.2 Z" class="cut" />
<path d="M 255 12 L 299 12 L 302 12 L 302 24.5 L 299 24.5 L 299 37 L 302 37 L 302 49.5 L 299 49.5 L 299 62 L 299 59 L 288 59 L 288 62 L 277 62 L 277 59 L 266 59 L 266 62 L 255 62 L 255 49.5 L 252 49.5 L 252 37 L 255 37 L 255 24.5 L 252 24.5 L 252 12 Z" class="cut" />
<path d="M 255 15 L 299 15 L 299 18.2 L 255 18.2 Z" class="cut" />
<path d="M 312 12 L 356 12 L 356 62 L 312 62 Z" class="cut" />
<path d="M 368.9 12 L 412.9 12 L 412.9 45.75 L 415.8 45.75 L 415.8 49.25 L 412.9 49.25 L 412.9 52.25 L 368.9 52.25 L 368.9 49.25 L 366 49.25 L 366 45.75 L 368.9 45.75 Z" class="cut" />
</svg>