<?xml version="1.0" encoding="UTF-8"?>
<svg xmlns="http://www.w3.org/2000/svg" width="593.8mm" height="202mm" viewBox="0 0 593.8 202">
<style>
text { font-family: "Segoe UI", sans-serif; fill: #1f2937; }
.title { font-size: 8px; font-weight: 700; }
.meta { font-size: 4.2px; }
.label { font-size: 5px; font-weight: 600; }
.note { font-size: 3.2px; }
.sheet { fill: #f8fafc; stroke: #64748b; stroke-width: 0.5; stroke-dasharray: 3 2; }
.part { fill: #e2e8f0; stroke: #0f172a; stroke-width: 0.4; }
.inner-cut { fill: rgba(148, 163, 184, 0.18); stroke: #475569; stroke-width: 0.25; }
.marker-line { stroke: #64748b; stroke-width: 0.35; }
.marker-badge { fill: #ffffff; stroke: #0f172a; stroke-width: 0.35; }
.marker-text { font-size: 3.2px; font-weight: 700; text-anchor: middle; dominant-baseline: central; }
.legend-box { fill: #ffffff; stroke: #cbd5e1; stroke-width: 0.4; }
.legend-title { font-size: 5px; font-weight: 700; }
.legend-item { font-size: 3.4px; }
</style>
<rect x="0" y="0" width="593.8" height="202" fill="#ffffff" />
<text x="12" y="12" class="title">Box50 Layout</text>
<text x="12" y="20" class="meta">Type A • Material 3 mm • Kerf 0.1 mm</text>
<text x="12" y="26" class="meta">External 50 × 50 × 100 mm</text>
<text x="12" y="32" class="meta">Internal 44.00 × 44.00 × 90.75 mm</text>
<text x="12" y="38" class="meta">Required sheet envelope 403.80 × 100.00 mm</text>
<text x="12" y="44" class="meta">Layout shows placed parts and internal cuts for sheet-size estimation.</text>
<rect x="12" y="70" width="403.8" height="100" class="sheet" />
<g>
<path d="M 15 73 L 15 70 L 26 70 L 26 73 L 37 73 L 37 70 L 48 70 L 48 73 L 59 73 L 62 73 L 62 84 L 59 84 L 59 95 L 62 95 L 62 106 L 59 106 L 59 117 L 59 120 L 48 120 L 48 117 L 37 117 L 37 120 L 26 120 L 26 117 L 15 117 L 15 106 L 12 106 L 12 95 L 15 95 L 15 84 L 12 84 L 12 73 Z" class="part" />

<line x1="37" y1="68.5" x2="37" y2="70" class="marker-line" />
<circle cx="37" cy="64" r="4.5" class="marker-badge" />
<text x="37" y="64" class="marker-text">1</text>
</g>
<g>
<path d="M 72 70 L 122 70 L 119 70 L 119 82.5 L 122 82.5 L 122 95 L 119 95 L 119 107.5 L 122 107.5 L 122 120 L 119 120 L 119 132.5 L 122 132.5 L 122 145 L 119 145 L 119 157.5 L 122 157.5 L 122 170 L 122 167 L 109.5 167 L 109.5 170 L 97 170 L 97 167 L 84.5 167 L 84.5 170 L 72 170 L 72 157.5 L 75 157.5 L 75 145 L 72 145 L 72 132.5 L 75 132.5 L 75 120 L 72 120 L 72 107.5 L 75 107.5 L 75 95 L 72 95 L 72 82.5 L 75 82.5 L 75 70 Z" class="part" />
<path d="M 95.45 159.5 L 98.55 159.5 L 98.55 164 L 95.45 164 Z" class="inner-cut" />
<line x1="97" y1="68.5" x2="97" y2="70" class="marker-line" />
<circle cx="97" cy="64" r="4.5" class="marker-badge" />
<text x="97" y="64" class="marker-text">2</text>
</g>
<g>
<path d="M 132 70 L 182 70 L 179 70 L 179 82.5 L 182 82.5 L 182 95 L 179 95 L 179 107.5 L 182 107.5 L 182 120 L 179 120 L 179 132.5 L 182 132.5 L 182 145 L 179 145 L 179 157.5 L 182 157.5 L 182 170 L 182 167 L 169.5 167 L 169.5 170 L 157 170 L 157 167 L 144.5 167 L 144.5 170 L 132 170 L 132 157.5 L 135 157.5 L 135 145 L 132 145 L 132 132.5 L 135 132.5 L 135 120 L 132 120 L 132 107.5 L 135 107.5 L 135 95 L 132 95 L 132 82.5 L 135 82.5 L 135 70 Z" class="part" />
<path d="M 155.45 159.5 L 158.55 159.5 L 158.55 164 L 155.45 164 Z" class="inner-cut" />
<line x1="157" y1="68.5" x2="157" y2="70" class="marker-line" />
<circle cx="157" cy="64" r="4.5" class="marker-badge" />
<text x="157" y="64" class="marker-text">3</text>
</g>
<g>
<path d="M 195 70 L 239 70 L 242 70 L 242 82.5 L 239 82.5 L 239 95 L 242 95 L 242 107.5 L 239 107.5 L 239 120 L 242 120 L 242 132.5 L 239 132.5 L 239 145 L 242 145 L 242 157.5 L 239 157.5 L 239 170 L 239 167 L 228 167 L 228 170 L 217 170 L 217 167 L 206 167 L 206 170 L 195 170 L 195 157.5 L 192 157.5 L 192 145 L 195 145 L 195 132.5 L 192 132.5 L 192 120 L 195 120 L 195 107.5 L 192 107.5 L 192 95 L 195 95 L 195 82.5 L 192 82.5 L 192 70 Z" class="part" />
<path d="M 195 73 L 239 73 L 239 76.2 L 201 76.2 L 201 79.2 L 195 79.2 Z" class="inner-cut" />
<line x1="217" y1="68.5" x2="217" y2="70" class="marker-line" />
<circle cx="217" cy="64" r="4.5" class="marker-badge" />
<text x="217" y="64" class="marker-text">4</text>
</g>
<g>
<path d="M 255 70 L 299 70 L 302 70 L 302 82.5 L 299 82.5 L 299 95 L 302 95 L 302 107.5 L 299 107.5 L 299 120 L 302 120 L 302 132.5 L 299 132.5 L 299 145 L 302 145 L 302 157.5 L 299 157.5 L 299 170 L 299 167 L 288 167 L 288 170 L 277 170 L 277 167 L 266 167 L 266 170 L 255 170 L 255 157.5 L 252 157.5 L 252 145 L 255 145 L 255 132.5 L 252 132.5 L 252 120 L 255 120 L 255 107.5 L 252 107.5 L 252 95 L 255 95 L 255 82.5 L 252 82.5 L 252 70 Z" class="part" />
<path d="M 255 73 L 299 73 L 299 76.2 L 261 76.2 L 261 79.2 L 255 79.2 Z" class="inner-cut" />
<line x1="277" y1="68.5" x2="277" y2="70" class="marker-line" />
<circle cx="277" cy="64" r="4.5" class="marker-badge" />
<text x="277" y="64" class="marker-text">5</text>
</g>
<g>
<path d="M 312 70 L 356 70 L 356 120 L 312 120 Z" class="part" />

<line x1="334" y1="68.5" x2="334" y2="70" class="marker-line" />
<circle cx="334" cy="64" r="4.5" class="marker-badge" />
<text x="334" y="64" class="marker-text">6</text>
</g>
<g>
<path d="M 368.9 70 L 412.9 70 L 412.9 153.75 L 415.8 153.75 L 415.8 157.25 L 412.9 157.25 L 412.9 160.25 L 368.9 160.25 L 368.9 157.25 L 366 157.25 L 366 153.75 L 368.9 153.75 Z" class="part" />

<line x1="390.9" y1="68.5" x2="390.9" y2="70" class="marker-line" />
<circle cx="390.9" cy="64" r="4.5" class="marker-badge" />
<text x="390.9" y="64" class="marker-text">7</text>
</g>
<g>
<rect x="431.8" y="70" width="150" height="120" rx="3" class="legend-box" />
<text x="439.8" y="78" class="legend-title">Placed Parts</text>
<circle cx="439.8" cy="82" r="4.5" class="marker-badge" />
<text x="439.8" y="82" class="marker-text">1</text>
<text x="449.8" y="80" class="legend-item">bottom ×1</text>
<text x="449.8" y="85" class="legend-item">50 × 50 mm</text>
<text x="449.8" y="90" class="legend-item">Base panel</text>
<circle cx="439.8" cy="98" r="4.5" class="marker-badge" />
<text x="439.8" y="98" class="marker-text">2</text>
<text x="449.8" y="96" class="legend-item">front-back ×1</text>
<text x="449.8" y="101" class="legend-item">50 × 100 mm</text>
<text x="449.8" y="106" class="legend-item">Main walls. Universal layout, rem…</text>
<circle cx="439.8" cy="114" r="4.5" class="marker-badge" />
<text x="439.8" y="114" class="marker-text">3</text>
<text x="449.8" y="112" class="legend-item">front-back ×1</text>
<text x="449.8" y="117" class="legend-item">50 × 100 mm</text>
<text x="449.8" y="122" class="legend-item">Main walls. Universal layout, rem…</text>
<circle cx="439.8" cy="130" r="4.5" class="marker-badge" />
<text x="439.8" y="130" class="marker-text">4</text>
<text x="449.8" y="128" class="legend-item">left-right ×1</text>
<text x="449.8" y="133" class="legend-item">50 × 100 mm</text>
<text x="449.8" y="138" class="legend-item">Side walls with stepped lid-rail …</text>
<circle cx="439.8" cy="146" r="4.5" class="marker-badge" />
<text x="439.8" y="146" class="marker-text">5</text>
<text x="449.8" y="144" class="legend-item">left-right ×1</text>
<text x="449.8" y="149" class="legend-item">50 × 100 mm</text>
<text x="449.8" y="154" class="legend-item">Side walls with stepped lid-rail …</text>
<circle cx="439.8" cy="162" r="4.5" class="marker-badge" />
<text x="439.8" y="162" class="marker-text">6</text>
<text x="449.8" y="160" class="legend-item">lid ×1</text>
<text x="449.8" y="165" class="legend-item">44 × 50 mm</text>
<text x="449.8" y="170" class="legend-item">Sliding lid with clearance 0.25 mm</text>
<circle cx="439.8" cy="178" r="4.5" class="marker-badge" />
<text x="439.8" y="178" class="marker-text">7</text>
<text x="449.8" y="176" class="legend-item">divider-depth-template ×1</text>
<text x="449.8" y="181" class="legend-item">49.8 × 90.25 mm</text>
<text x="449.8" y="186" class="legend-item">First removable divider template …</text>
</g>
</svg>