<?xml version="1.0" encoding="UTF-8"?>
<svg xmlns="http://www.w3.org/2000/svg" width="618mm" height="502.25mm" viewBox="0 0 618 502.25">
<style>
text { font-family: "Segoe UI", sans-serif; fill: #1f2937; }
.title { font-size: 8px; font-weight: 700; }
.subtitle { font-size: 6px; font-weight: 700; fill: #0f172a; }
.meta { font-size: 4.2px; }
.label { font-size: 5px; font-weight: 600; }
.note { font-size: 3.2px; }
.logo-frame { fill: #ffffff; stroke: #0f172a; stroke-width: 0.8; }
.logo-solid { fill: #0f172a; }
.logo-line { fill: none; stroke: #0f172a; stroke-width: 0.8; stroke-linecap: round; stroke-linejoin: round; }
.sheet { fill: #f8fafc; stroke: #64748b; stroke-width: 0.5; stroke-dasharray: 3 2; }
.part { fill: #e2e8f0; stroke: #0f172a; stroke-width: 0.4; }
.inner-cut { fill: rgba(148, 163, 184, 0.18); stroke: #475569; stroke-width: 0.25; }
.marker-line { stroke: #64748b; stroke-width: 0.35; }
.marker-badge { fill: #ffffff; stroke: #0f172a; stroke-width: 0.35; }
.marker-text { font-size: 3.2px; font-weight: 700; text-anchor: middle; dominant-baseline: central; }
.pictogram-line { fill: none; stroke: #0f172a; stroke-width: 0.8; stroke-linecap: round; stroke-linejoin: round; opacity: 0.9; }
.pictogram-chip { fill: #ffffff; stroke: #0f172a; stroke-width: 0.5; }
.pictogram-text { font-size: 4px; font-weight: 700; text-anchor: middle; dominant-baseline: central; fill: #0f172a; }
.legend-box { fill: #ffffff; stroke: #cbd5e1; stroke-width: 0.4; }
.legend-title { font-size: 5px; font-weight: 700; }
.legend-item { font-size: 3.4px; }
</style>
<rect x="0" y="0" width="618" height="502.25" fill="#ffffff" />
<g transform="translate(12 10)">
<rect x="0" y="0" width="26" height="26" rx="4" class="logo-frame" />
<path d="M 5.5 10.5 L 13 6.5 L 20.5 10.5 L 13 14.5 Z" class="logo-line" />
<path d="M 5.5 10.5 L 5.5 18.2 L 13 22 L 13 14.5" class="logo-line" />
<path d="M 20.5 10.5 L 20.5 18.2 L 13 22 L 13 14.5" class="logo-line" />
<path d="M 8.2 12.1 L 8.2 16.3 L 10.6 17.5 L 10.6 13.4 Z" class="logo-line" />
<path d="M 15.4 13.4 L 15.4 17.5 L 17.8 16.3 L 17.8 12.1 Z" class="logo-line" />
<path d="M 11.6 15.6 L 14.4 17" class="logo-line" />
<rect x="6.2" y="6.2" width="2.1" height="2.1" class="logo-solid" rx="0.5" />
<rect x="17.7" y="6.2" width="2.1" height="2.1" class="logo-solid" rx="0.5" />
</g>
<text x="48" y="17" class="subtitle">Bento 2 100x200x100</text>
<text x="48" y="24" class="meta">Standard • Material 3 mm • Kerf 0.1 mm</text>
<text x="48" y="30" class="meta">External 100 × 200 × 100 mm</text>
<text x="48" y="36" class="meta">Internal 94.00 × 194.00 × 90.75 mm</text>
<text x="48" y="42" class="meta">Required sheet envelope 410.00 × 420.25 mm</text>
<text x="48" y="48" class="meta">Layout shows placed parts and internal cuts for sheet-size estimation.</text>
<rect x="12" y="70" width="410" height="420.25" class="sheet" />
<g>
<path d="M 209 73 L 212 73 L 212 84.75 L 209 84.75 L 209 96.5 L 212 96.5 L 212 108.25 L 209 108.25 L 209 120 L 212 120 L 212 131.75 L 209 131.75 L 209 143.5 L 212 143.5 L 212 155.25 L 209 155.25 L 209 167 L 209 170 L 196.875 170 L 196.875 167 L 184.75 167 L 184.75 170 L 172.625 170 L 172.625 167 L 160.5 167 L 160.5 170 L 148.375 170 L 148.375 167 L 136.25 167 L 136.25 170 L 124.125 170 L 124.125 167 L 112 167 L 112 170 L 99.875 170 L 99.875 167 L 87.75 167 L 87.75 170 L 75.625 170 L 75.625 167 L 63.5 167 L 63.5 170 L 51.375 170 L 51.375 167 L 39.25 167 L 39.25 170 L 27.125 170 L 27.125 167 L 15 167 L 12 167 L 12 155.25 L 15 155.25 L 15 143.5 L 12 143.5 L 12 131.75 L 15 131.75 L 15 120 L 12 120 L 12 108.25 L 15 108.25 L 15 96.5 L 12 96.5 L 12 84.75 L 15 84.75 L 15 73 L 27.125 73 L 27.125 70 L 39.25 70 L 39.25 73 L 51.375 73 L 51.375 70 L 63.5 70 L 63.5 73 L 75.625 73 L 75.625 70 L 87.75 70 L 87.75 73 L 99.875 73 L 99.875 70 L 112 70 L 112 73 L 124.125 73 L 124.125 70 L 136.25 70 L 136.25 73 L 148.375 73 L 148.375 70 L 160.5 70 L 160.5 73 L 172.625 73 L 172.625 70 L 184.75 70 L 184.75 73 L 196.875 73 L 196.875 70 L 209 70 Z" class="part" />
<path d="M 199.25 118.45 L 199.25 121.55 L 194.75 121.55 L 194.75 118.45 Z" class="inner-cut" />
<path d="M 29.25 118.45 L 29.25 121.55 L 24.75 121.55 L 24.75 118.45 Z" class="inner-cut" />

<line x1="112" y1="68.5" x2="112" y2="70" class="marker-line" />
<circle cx="112" cy="64" r="4.5" class="marker-badge" />
<text x="112" y="64" class="marker-text">1</text>
</g>
<g>
<path d="M 422 70 L 422 164 L 222 164 L 222 70 Z" class="part" />

<line x1="305" y1="117" x2="339" y2="117" class="pictogram-line" />
<path d="M 308.5 113.5 L 305 117 L 308.5 120.5" class="pictogram-line" />
<path d="M 335.5 113.5 L 339 117 L 335.5 120.5" class="pictogram-line" />
<line x1="322" y1="68.5" x2="322" y2="70" class="marker-line" />
<circle cx="322" cy="64" r="4.5" class="marker-badge" />
<text x="322" y="64" class="marker-text">2</text>
</g>
<g>
<path d="M 15 180 L 209 180 L 212 180 L 212 192.5 L 209 192.5 L 209 205 L 212 205 L 212 217.5 L 209 217.5 L 209 230 L 212 230 L 212 242.5 L 209 242.5 L 209 255 L 212 255 L 212 267.5 L 209 267.5 L 209 280 L 209 277 L 196.875 277 L 196.875 280 L 184.75 280 L 184.75 277 L 172.625 277 L 172.625 280 L 160.5 280 L 160.5 277 L 148.375 277 L 148.375 280 L 136.25 280 L 136.25 277 L 124.125 277 L 124.125 280 L 112 280 L 112 277 L 99.875 277 L 99.875 280 L 87.75 280 L 87.75 277 L 75.625 277 L 75.625 280 L 63.5 280 L 63.5 277 L 51.375 277 L 51.375 280 L 39.25 280 L 39.25 277 L 27.125 277 L 27.125 280 L 15 280 L 15 267.5 L 12 267.5 L 12 255 L 15 255 L 15 242.5 L 12 242.5 L 12 230 L 15 230 L 15 217.5 L 12 217.5 L 12 205 L 15 205 L 15 192.5 L 12 192.5 L 12 180 Z" class="part" />
<path d="M 15 183 L 209 183 L 209 186.2 L 21 186.2 L 21 189.2 L 15 189.2 Z" class="inner-cut" />

<line x1="112" y1="177" x2="112" y2="180" class="marker-line" />
<circle cx="112" cy="172.5" r="4.5" class="marker-badge" />
<text x="112" y="172.5" class="marker-text">3</text>
</g>
<g>
<path d="M 225 180 L 419 180 L 422 180 L 422 192.5 L 419 192.5 L 419 205 L 422 205 L 422 217.5 L 419 217.5 L 419 230 L 422 230 L 422 242.5 L 419 242.5 L 419 255 L 422 255 L 422 267.5 L 419 267.5 L 419 280 L 419 277 L 406.875 277 L 406.875 280 L 394.75 280 L 394.75 277 L 382.625 277 L 382.625 280 L 370.5 280 L 370.5 277 L 358.375 277 L 358.375 280 L 346.25 280 L 346.25 277 L 334.125 277 L 334.125 280 L 322 280 L 322 277 L 309.875 277 L 309.875 280 L 297.75 280 L 297.75 277 L 285.625 277 L 285.625 280 L 273.5 280 L 273.5 277 L 261.375 277 L 261.375 280 L 249.25 280 L 249.25 277 L 237.125 277 L 237.125 280 L 225 280 L 225 267.5 L 222 267.5 L 222 255 L 225 255 L 225 242.5 L 222 242.5 L 222 230 L 225 230 L 225 217.5 L 222 217.5 L 222 205 L 225 205 L 225 192.5 L 222 192.5 L 222 180 Z" class="part" />
<path d="M 225 183 L 419 183 L 419 186.2 L 231 186.2 L 231 189.2 L 225 189.2 Z" class="inner-cut" />

<line x1="322" y1="177" x2="322" y2="180" class="marker-line" />
<circle cx="322" cy="172.5" r="4.5" class="marker-badge" />
<text x="322" y="172.5" class="marker-text">4</text>
</g>
<g>
<path d="M 14.9 290 L 208.9 290 L 208.9 367.25 L 211.8 367.25 L 211.8 371.75 L 208.9 371.75 L 208.9 380.25 L 199.15 380.25 L 199.15 383.15 L 194.65 383.15 L 194.65 380.25 L 29.15 380.25 L 29.15 383.15 L 24.65 383.15 L 24.65 380.25 L 14.9 380.25 L 14.9 371.75 L 12 371.75 L 12 367.25 L 14.9 367.25 Z" class="part" />

<line x1="111.9" y1="322.575" x2="111.9" y2="350.575" class="pictogram-line" />
<circle cx="111.9" cy="336.575" r="5" class="pictogram-chip" />
<text x="111.9" y="336.575" class="pictogram-text">P</text>
<line x1="111.9" y1="287" x2="111.9" y2="290" class="marker-line" />
<circle cx="111.9" cy="282.5" r="4.5" class="marker-badge" />
<text x="111.9" y="282.5" class="marker-text">5</text>
</g>
<g>
<path d="M 12 390.25 L 112 390.25 L 109 390.25 L 109 402.75 L 112 402.75 L 112 415.25 L 109 415.25 L 109 427.75 L 112 427.75 L 112 440.25 L 109 440.25 L 109 452.75 L 112 452.75 L 112 465.25 L 109 465.25 L 109 477.75 L 112 477.75 L 112 490.25 L 112 487.25 L 99.5 487.25 L 99.5 490.25 L 87 490.25 L 87 487.25 L 74.5 487.25 L 74.5 490.25 L 62 490.25 L 62 487.25 L 49.5 487.25 L 49.5 490.25 L 37 490.25 L 37 487.25 L 24.5 487.25 L 24.5 490.25 L 12 490.25 L 12 477.75 L 15 477.75 L 15 465.25 L 12 465.25 L 12 452.75 L 15 452.75 L 15 440.25 L 12 440.25 L 12 427.75 L 15 427.75 L 15 415.25 L 12 415.25 L 12 402.75 L 15 402.75 L 15 390.25 Z" class="part" />
<path d="M 60.45 477.25 L 63.55 477.25 L 63.55 481.75 L 60.45 481.75 Z" class="inner-cut" />

<line x1="62" y1="387.25" x2="62" y2="390.25" class="marker-line" />
<circle cx="62" cy="382.75" r="4.5" class="marker-badge" />
<text x="62" y="382.75" class="marker-text">6</text>
</g>
<g>
<path d="M 122 390.25 L 222 390.25 L 219 390.25 L 219 402.75 L 222 402.75 L 222 415.25 L 219 415.25 L 219 427.75 L 222 427.75 L 222 440.25 L 219 440.25 L 219 452.75 L 222 452.75 L 222 465.25 L 219 465.25 L 219 477.75 L 222 477.75 L 222 490.25 L 222 487.25 L 209.5 487.25 L 209.5 490.25 L 197 490.25 L 197 487.25 L 184.5 487.25 L 184.5 490.25 L 172 490.25 L 172 487.25 L 159.5 487.25 L 159.5 490.25 L 147 490.25 L 147 487.25 L 134.5 487.25 L 134.5 490.25 L 122 490.25 L 122 477.75 L 125 477.75 L 125 465.25 L 122 465.25 L 122 452.75 L 125 452.75 L 125 440.25 L 122 440.25 L 122 427.75 L 125 427.75 L 125 415.25 L 122 415.25 L 122 402.75 L 125 402.75 L 125 390.25 Z" class="part" />
<path d="M 170.45 477.25 L 173.55 477.25 L 173.55 481.75 L 170.45 481.75 Z" class="inner-cut" />

<line x1="172" y1="387.25" x2="172" y2="390.25" class="marker-line" />
<circle cx="172" cy="382.75" r="4.5" class="marker-badge" />
<text x="172" y="382.75" class="marker-text">7</text>
</g>
<g>
<rect x="438" y="70" width="168" height="136" rx="3" class="legend-box" />
<text x="458" y="79" class="legend-title">Placed Parts</text>
<circle cx="446" cy="90" r="4.5" class="marker-badge" />
<text x="446" y="90" class="marker-text">1</text>
<text x="458" y="88" class="legend-item">Bottom ×1</text>
<text x="458" y="93" class="legend-item">100 × 200 mm</text>
<text x="458" y="98" class="legend-item">Base panel</text>
<circle cx="446" cy="107" r="4.5" class="marker-badge" />
<text x="446" y="107" class="marker-text">2</text>
<text x="458" y="105" class="legend-item">Sliding lid ×1</text>
<text x="458" y="110" class="legend-item">94 × 200 mm</text>
<text x="458" y="115" class="legend-item">Sliding lid with clearance 0.25 mm</text>
<circle cx="446" cy="124" r="4.5" class="marker-badge" />
<text x="446" y="124" class="marker-text">3</text>
<text x="458" y="122" class="legend-item">Left/right wall ×1</text>
<text x="458" y="127" class="legend-item">200 × 100 mm</text>
<text x="458" y="132" class="legend-item">Side walls with stepped lid-rail …</text>
<circle cx="446" cy="141" r="4.5" class="marker-badge" />
<text x="446" y="141" class="marker-text">4</text>
<text x="458" y="139" class="legend-item">Left/right wall ×1</text>
<text x="458" y="144" class="legend-item">200 × 100 mm</text>
<text x="458" y="149" class="legend-item">Side walls with stepped lid-rail …</text>
<circle cx="446" cy="158" r="4.5" class="marker-badge" />
<text x="446" y="158" class="marker-text">5</text>
<text x="458" y="156" class="legend-item">Separator main vertical ×1</text>
<text x="458" y="161" class="legend-item">199.8 × 90.25 mm</text>
<text x="458" y="166" class="legend-item">Standard primary separator, vertica…</text>
<circle cx="446" cy="175" r="4.5" class="marker-badge" />
<text x="446" y="175" class="marker-text">6</text>
<text x="458" y="173" class="legend-item">Front/back wall ×1</text>
<text x="458" y="178" class="legend-item">100 × 100 mm</text>
<text x="458" y="183" class="legend-item">Main walls. Universal layout, rem…</text>
<circle cx="446" cy="192" r="4.5" class="marker-badge" />
<text x="446" y="192" class="marker-text">7</text>
<text x="458" y="190" class="legend-item">Front/back wall ×1</text>
<text x="458" y="195" class="legend-item">100 × 100 mm</text>
<text x="458" y="200" class="legend-item">Main walls. Universal layout, rem…</text>
</g>
<g>
<rect x="438" y="216" width="168" height="117" rx="3" class="legend-box" />
<text x="458" y="225" class="legend-title">Assembly Plan</text>
<circle cx="446" cy="236" r="4.5" class="marker-badge" />
<text x="446" y="236" class="marker-text">1</text>
<text x="458" y="234" class="legend-item">Lay part 1 flat on the bench as</text>
<text x="458" y="239" class="legend-item">the base.</text>
<circle cx="446" cy="254" r="4.5" class="marker-badge" />
<text x="446" y="254" class="marker-text">2</text>
<text x="458" y="252" class="legend-item">Fit parts 3, 4, 6, 7 into the</text>
<text x="458" y="257" class="legend-item">bottom slots and keep the shell</text>
<text x="458" y="262" class="legend-item">square.</text>
<circle cx="446" cy="277" r="4.5" class="marker-badge" />
<text x="446" y="277" class="marker-text">3</text>
<text x="458" y="275" class="legend-item">Insert part 5 into the bottom</text>
<text x="458" y="280" class="legend-item">mortises first.</text>
<circle cx="446" cy="295" r="4.5" class="marker-badge" />
<text x="446" y="295" class="marker-text">4</text>
<text x="458" y="293" class="legend-item">Check the rail path, then slide</text>
<text x="458" y="298" class="legend-item">part 2 into place.</text>
<circle cx="446" cy="313" r="4.5" class="marker-badge" />
<text x="446" y="313" class="marker-text">5</text>
<text x="458" y="311" class="legend-item">Do a full dry-fit before glue,</text>
<text x="458" y="316" class="legend-item">screws, or final clamping.</text>
</g>
</svg>