<?xml version="1.0" encoding="UTF-8"?>
<svg xmlns="http://www.w3.org/2000/svg" width="580mm" height="382.25mm" viewBox="0 0 580 382.25">
<style>
text { font-family: "Segoe UI", sans-serif; fill: #1f2937; }
.title { font-size: 8px; font-weight: 700; }
.meta { font-size: 4.2px; }
.label { font-size: 5px; font-weight: 600; }
.note { font-size: 3.2px; }
.sheet { fill: #f8fafc; stroke: #64748b; stroke-width: 0.5; stroke-dasharray: 3 2; }
.part { fill: #e2e8f0; stroke: #0f172a; stroke-width: 0.4; }
.inner-cut { fill: rgba(148, 163, 184, 0.18); stroke: #475569; stroke-width: 0.25; }
.marker-line { stroke: #64748b; stroke-width: 0.35; }
.marker-badge { fill: #ffffff; stroke: #0f172a; stroke-width: 0.35; }
.marker-text { font-size: 3.2px; font-weight: 700; text-anchor: middle; dominant-baseline: central; }
.legend-box { fill: #ffffff; stroke: #cbd5e1; stroke-width: 0.4; }
.legend-title { font-size: 5px; font-weight: 700; }
.legend-item { font-size: 3.4px; }
</style>
<rect x="0" y="0" width="580" height="382.25" fill="#ffffff" />
<text x="12" y="12" class="title">Box50 Layout</text>
<text x="12" y="20" class="meta">Type A • Material 3 mm • Kerf 0.1 mm</text>
<text x="12" y="26" class="meta">External 50 × 100 × 150 mm</text>
<text x="12" y="32" class="meta">Internal 44.00 × 94.00 × 140.75 mm</text>
<text x="12" y="38" class="meta">Required sheet envelope 390.00 × 300.25 mm</text>
<text x="12" y="44" class="meta">Layout shows placed parts and internal cuts for sheet-size estimation.</text>
<rect x="12" y="70" width="390" height="300.25" class="sheet" />
<g>
<path d="M 15 73 L 15 70 L 26 70 L 26 73 L 37 73 L 37 70 L 48 70 L 48 73 L 59 73 L 62 73 L 62 84.75 L 59 84.75 L 59 96.5 L 62 96.5 L 62 108.25 L 59 108.25 L 59 120 L 62 120 L 62 131.75 L 59 131.75 L 59 143.5 L 62 143.5 L 62 155.25 L 59 155.25 L 59 167 L 59 170 L 48 170 L 48 167 L 37 167 L 37 170 L 26 170 L 26 167 L 15 167 L 15 155.25 L 12 155.25 L 12 143.5 L 15 143.5 L 15 131.75 L 12 131.75 L 12 120 L 15 120 L 15 108.25 L 12 108.25 L 12 96.5 L 15 96.5 L 15 84.75 L 12 84.75 L 12 73 Z" class="part" />

<line x1="37" y1="68.5" x2="37" y2="70" class="marker-line" />
<circle cx="37" cy="64" r="4.5" class="marker-badge" />
<text x="37" y="64" class="marker-text">1</text>
</g>
<g>
<path d="M 72 70 L 122 70 L 119 70 L 119 82.5 L 122 82.5 L 122 95 L 119 95 L 119 107.5 L 122 107.5 L 122 120 L 119 120 L 119 132.5 L 122 132.5 L 122 145 L 119 145 L 119 157.5 L 122 157.5 L 122 170 L 119 170 L 119 182.5 L 122 182.5 L 122 195 L 119 195 L 119 207.5 L 122 207.5 L 122 220 L 122 217 L 109.5 217 L 109.5 220 L 97 220 L 97 217 L 84.5 217 L 84.5 220 L 72 220 L 72 207.5 L 75 207.5 L 75 195 L 72 195 L 72 182.5 L 75 182.5 L 75 170 L 72 170 L 72 157.5 L 75 157.5 L 75 145 L 72 145 L 72 132.5 L 75 132.5 L 75 120 L 72 120 L 72 107.5 L 75 107.5 L 75 95 L 72 95 L 72 82.5 L 75 82.5 L 75 70 Z" class="part" />
<path d="M 95.45 209.5 L 98.55 209.5 L 98.55 214 L 95.45 214 Z" class="inner-cut" />
<line x1="97" y1="68.5" x2="97" y2="70" class="marker-line" />
<circle cx="97" cy="64" r="4.5" class="marker-badge" />
<text x="97" y="64" class="marker-text">2</text>
</g>
<g>
<path d="M 132 70 L 182 70 L 179 70 L 179 82.5 L 182 82.5 L 182 95 L 179 95 L 179 107.5 L 182 107.5 L 182 120 L 179 120 L 179 132.5 L 182 132.5 L 182 145 L 179 145 L 179 157.5 L 182 157.5 L 182 170 L 179 170 L 179 182.5 L 182 182.5 L 182 195 L 179 195 L 179 207.5 L 182 207.5 L 182 220 L 182 217 L 169.5 217 L 169.5 220 L 157 220 L 157 217 L 144.5 217 L 144.5 220 L 132 220 L 132 207.5 L 135 207.5 L 135 195 L 132 195 L 132 182.5 L 135 182.5 L 135 170 L 132 170 L 132 157.5 L 135 157.5 L 135 145 L 132 145 L 132 132.5 L 135 132.5 L 135 120 L 132 120 L 132 107.5 L 135 107.5 L 135 95 L 132 95 L 132 82.5 L 135 82.5 L 135 70 Z" class="part" />
<path d="M 155.45 209.5 L 158.55 209.5 L 158.55 214 L 155.45 214 Z" class="inner-cut" />
<line x1="157" y1="68.5" x2="157" y2="70" class="marker-line" />
<circle cx="157" cy="64" r="4.5" class="marker-badge" />
<text x="157" y="64" class="marker-text">3</text>
</g>
<g>
<path d="M 195 70 L 289 70 L 292 70 L 292 82.5 L 289 82.5 L 289 95 L 292 95 L 292 107.5 L 289 107.5 L 289 120 L 292 120 L 292 132.5 L 289 132.5 L 289 145 L 292 145 L 292 157.5 L 289 157.5 L 289 170 L 292 170 L 292 182.5 L 289 182.5 L 289 195 L 292 195 L 292 207.5 L 289 207.5 L 289 220 L 289 217 L 277.25 217 L 277.25 220 L 265.5 220 L 265.5 217 L 253.75 217 L 253.75 220 L 242 220 L 242 217 L 230.25 217 L 230.25 220 L 218.5 220 L 218.5 217 L 206.75 217 L 206.75 220 L 195 220 L 195 207.5 L 192 207.5 L 192 195 L 195 195 L 195 182.5 L 192 182.5 L 192 170 L 195 170 L 195 157.5 L 192 157.5 L 192 145 L 195 145 L 195 132.5 L 192 132.5 L 192 120 L 195 120 L 195 107.5 L 192 107.5 L 192 95 L 195 95 L 195 82.5 L 192 82.5 L 192 70 Z" class="part" />
<path d="M 195 73 L 289 73 L 289 76.2 L 201 76.2 L 201 79.2 L 195 79.2 Z" class="inner-cut" />
<line x1="242" y1="68.5" x2="242" y2="70" class="marker-line" />
<circle cx="242" cy="64" r="4.5" class="marker-badge" />
<text x="242" y="64" class="marker-text">4</text>
</g>
<g>
<path d="M 305 70 L 399 70 L 402 70 L 402 82.5 L 399 82.5 L 399 95 L 402 95 L 402 107.5 L 399 107.5 L 399 120 L 402 120 L 402 132.5 L 399 132.5 L 399 145 L 402 145 L 402 157.5 L 399 157.5 L 399 170 L 402 170 L 402 182.5 L 399 182.5 L 399 195 L 402 195 L 402 207.5 L 399 207.5 L 399 220 L 399 217 L 387.25 217 L 387.25 220 L 375.5 220 L 375.5 217 L 363.75 217 L 363.75 220 L 352 220 L 352 217 L 340.25 217 L 340.25 220 L 328.5 220 L 328.5 217 L 316.75 217 L 316.75 220 L 305 220 L 305 207.5 L 302 207.5 L 302 195 L 305 195 L 305 182.5 L 302 182.5 L 302 170 L 305 170 L 305 157.5 L 302 157.5 L 302 145 L 305 145 L 305 132.5 L 302 132.5 L 302 120 L 305 120 L 305 107.5 L 302 107.5 L 302 95 L 305 95 L 305 82.5 L 302 82.5 L 302 70 Z" class="part" />
<path d="M 305 73 L 399 73 L 399 76.2 L 311 76.2 L 311 79.2 L 305 79.2 Z" class="inner-cut" />
<line x1="352" y1="68.5" x2="352" y2="70" class="marker-line" />
<circle cx="352" cy="64" r="4.5" class="marker-badge" />
<text x="352" y="64" class="marker-text">5</text>
</g>
<g>
<path d="M 12 230 L 56 230 L 56 330 L 12 330 Z" class="part" />

<line x1="34" y1="227" x2="34" y2="230" class="marker-line" />
<circle cx="34" cy="222.5" r="4.5" class="marker-badge" />
<text x="34" y="222.5" class="marker-text">6</text>
</g>
<g>
<path d="M 68.9 230 L 162.9 230 L 162.9 363.75 L 165.8 363.75 L 165.8 367.25 L 162.9 367.25 L 162.9 370.25 L 68.9 370.25 L 68.9 367.25 L 66 367.25 L 66 363.75 L 68.9 363.75 Z" class="part" />

<line x1="115.9" y1="227" x2="115.9" y2="230" class="marker-line" />
<circle cx="115.9" cy="222.5" r="4.5" class="marker-badge" />
<text x="115.9" y="222.5" class="marker-text">7</text>
</g>
<g>
<rect x="418" y="70" width="150" height="120" rx="3" class="legend-box" />
<text x="426" y="78" class="legend-title">Placed Parts</text>
<circle cx="426" cy="82" r="4.5" class="marker-badge" />
<text x="426" y="82" class="marker-text">1</text>
<text x="436" y="80" class="legend-item">bottom ×1</text>
<text x="436" y="85" class="legend-item">50 × 100 mm</text>
<text x="436" y="90" class="legend-item">Base panel</text>
<circle cx="426" cy="98" r="4.5" class="marker-badge" />
<text x="426" y="98" class="marker-text">2</text>
<text x="436" y="96" class="legend-item">front-back ×1</text>
<text x="436" y="101" class="legend-item">50 × 150 mm</text>
<text x="436" y="106" class="legend-item">Main walls. Universal layout, rem…</text>
<circle cx="426" cy="114" r="4.5" class="marker-badge" />
<text x="426" y="114" class="marker-text">3</text>
<text x="436" y="112" class="legend-item">front-back ×1</text>
<text x="436" y="117" class="legend-item">50 × 150 mm</text>
<text x="436" y="122" class="legend-item">Main walls. Universal layout, rem…</text>
<circle cx="426" cy="130" r="4.5" class="marker-badge" />
<text x="426" y="130" class="marker-text">4</text>
<text x="436" y="128" class="legend-item">left-right ×1</text>
<text x="436" y="133" class="legend-item">100 × 150 mm</text>
<text x="436" y="138" class="legend-item">Side walls with stepped lid-rail …</text>
<circle cx="426" cy="146" r="4.5" class="marker-badge" />
<text x="426" y="146" class="marker-text">5</text>
<text x="436" y="144" class="legend-item">left-right ×1</text>
<text x="436" y="149" class="legend-item">100 × 150 mm</text>
<text x="436" y="154" class="legend-item">Side walls with stepped lid-rail …</text>
<circle cx="426" cy="162" r="4.5" class="marker-badge" />
<text x="426" y="162" class="marker-text">6</text>
<text x="436" y="160" class="legend-item">lid ×1</text>
<text x="436" y="165" class="legend-item">44 × 100 mm</text>
<text x="436" y="170" class="legend-item">Sliding lid with clearance 0.25 mm</text>
<circle cx="426" cy="178" r="4.5" class="marker-badge" />
<text x="426" y="178" class="marker-text">7</text>
<text x="436" y="176" class="legend-item">divider-depth-template ×1</text>
<text x="436" y="181" class="legend-item">99.8 × 140.25 mm</text>
<text x="436" y="186" class="legend-item">First removable divider template …</text>
</g>
</svg>