<?xml version="1.0" encoding="UTF-8"?>
<svg xmlns="http://www.w3.org/2000/svg" width="344.05mm" height="484.3mm" viewBox="0 0 344.05 484.3">
<style>
.cut { fill: none; stroke: #000000; stroke-width: 0.15; vector-effect: non-scaling-stroke; }
</style>
<rect x="0" y="0" width="344.05" height="484.3" fill="#ffffff" />
<path d="M 14.95 14.95 L 14.95 11.95 L 26.8 11.95 L 26.8 14.95 L 38.45 14.95 L 38.45 11.95 L 50.3 11.95 L 50.3 14.95 L 61.95 14.95 L 61.95 11.95 L 73.8 11.95 L 73.8 14.95 L 85.45 14.95 L 85.45 11.95 L 97.3 11.95 L 97.3 14.95 L 112.05 14.95 L 112.05 26.8 L 109.05 26.8 L 109.05 38.45 L 112.05 38.45 L 112.05 50.3 L 109.05 50.3 L 109.05 61.95 L 112.05 61.95 L 112.05 73.8 L 109.05 73.8 L 109.05 85.45 L 112.05 85.45 L 112.05 97.3 L 109.05 97.3 L 109.05 112.05 L 97.2 112.05 L 97.2 109.05 L 85.55 109.05 L 85.55 112.05 L 73.7 112.05 L 73.7 109.05 L 62.05 109.05 L 62.05 112.05 L 50.2 112.05 L 50.2 109.05 L 38.55 109.05 L 38.55 112.05 L 26.7 112.05 L 26.7 109.05 L 14.95 109.05 L 14.95 97.3 L 11.95 97.3 L 11.95 85.45 L 14.95 85.45 L 14.95 73.8 L 11.95 73.8 L 11.95 61.95 L 14.95 61.95 L 14.95 50.3 L 11.95 50.3 L 11.95 38.45 L 14.95 38.45 L 14.95 26.8 L 11.95 26.8 L 11.95 14.95 Z" class="cut" />
<path d="M 219.05 11.95 L 219.05 24.45 L 222.05 24.45 L 222.05 37.05 L 219.05 37.05 L 219.05 49.45 L 222.05 49.45 L 222.05 62.05 L 219.05 62.05 L 219.05 74.45 L 222.05 74.45 L 222.05 87.05 L 219.05 87.05 L 219.05 99.45 L 222.05 99.45 L 222.05 112.05 L 219.05 112.05 L 219.05 124.45 L 222.05 124.45 L 222.05 137.05 L 219.05 137.05 L 219.05 149.45 L 222.05 149.45 L 222.05 159.05 L 209.55 159.05 L 209.55 162.05 L 196.95 162.05 L 196.95 159.05 L 184.55 159.05 L 184.55 162.05 L 171.95 162.05 L 171.95 159.05 L 159.55 159.05 L 159.55 162.05 L 146.95 162.05 L 146.95 159.05 L 134.55 159.05 L 134.55 162.05 L 121.95 162.05 L 121.95 149.45 L 124.95 149.45 L 124.95 137.05 L 121.95 137.05 L 121.95 124.45 L 124.95 124.45 L 124.95 112.05 L 121.95 112.05 L 121.95 99.45 L 124.95 99.45 L 124.95 87.05 L 121.95 87.05 L 121.95 74.45 L 124.95 74.45 L 124.95 62.05 L 121.95 62.05 L 121.95 49.45 L 124.95 49.45 L 124.95 37.05 L 121.95 37.05 L 121.95 24.45 L 124.95 24.45 L 124.95 11.95 Z" class="cut" />
<path d="M 145.5 151.55 L 148.5 151.55 L 148.5 155.95 L 145.5 155.95 Z" class="cut" />
<path d="M 170.5 151.55 L 173.5 151.55 L 173.5 155.95 L 170.5 155.95 Z" class="cut" />
<path d="M 195.5 151.55 L 198.5 151.55 L 198.5 155.95 L 195.5 155.95 Z" class="cut" />
<path d="M 329.05 11.95 L 329.05 24.45 L 332.05 24.45 L 332.05 37.05 L 329.05 37.05 L 329.05 49.45 L 332.05 49.45 L 332.05 62.05 L 329.05 62.05 L 329.05 74.45 L 332.05 74.45 L 332.05 87.05 L 329.05 87.05 L 329.05 99.45 L 332.05 99.45 L 332.05 112.05 L 329.05 112.05 L 329.05 124.45 L 332.05 124.45 L 332.05 137.05 L 329.05 137.05 L 329.05 149.45 L 332.05 149.45 L 332.05 159.05 L 319.55 159.05 L 319.55 162.05 L 306.95 162.05 L 306.95 159.05 L 294.55 159.05 L 294.55 162.05 L 281.95 162.05 L 281.95 159.05 L 269.55 159.05 L 269.55 162.05 L 256.95 162.05 L 256.95 159.05 L 244.55 159.05 L 244.55 162.05 L 231.95 162.05 L 231.95 149.45 L 234.95 149.45 L 234.95 137.05 L 231.95 137.05 L 231.95 124.45 L 234.95 124.45 L 234.95 112.05 L 231.95 112.05 L 231.95 99.45 L 234.95 99.45 L 234.95 87.05 L 231.95 87.05 L 231.95 74.45 L 234.95 74.45 L 234.95 62.05 L 231.95 62.05 L 231.95 49.45 L 234.95 49.45 L 234.95 37.05 L 231.95 37.05 L 231.95 24.45 L 234.95 24.45 L 234.95 11.95 Z" class="cut" />
<path d="M 255.5 151.55 L 258.5 151.55 L 258.5 155.95 L 255.5 155.95 Z" class="cut" />
<path d="M 280.5 151.55 L 283.5 151.55 L 283.5 155.95 L 280.5 155.95 Z" class="cut" />
<path d="M 305.5 151.55 L 308.5 151.55 L 308.5 155.95 L 305.5 155.95 Z" class="cut" />
<path d="M 112.05 171.95 L 112.05 184.55 L 109.05 184.55 L 109.05 196.95 L 112.05 196.95 L 112.05 209.55 L 109.05 209.55 L 109.05 221.95 L 112.05 221.95 L 112.05 234.55 L 109.05 234.55 L 109.05 246.95 L 112.05 246.95 L 112.05 259.55 L 109.05 259.55 L 109.05 271.95 L 112.05 271.95 L 112.05 284.55 L 109.05 284.55 L 109.05 296.95 L 112.05 296.95 L 112.05 309.55 L 109.05 309.55 L 109.05 319.05 L 97.3 319.05 L 97.3 322.05 L 85.45 322.05 L 85.45 319.05 L 73.8 319.05 L 73.8 322.05 L 61.95 322.05 L 61.95 319.05 L 50.3 319.05 L 50.3 322.05 L 38.45 322.05 L 38.45 319.05 L 26.8 319.05 L 26.8 322.05 L 14.95 322.05 L 14.95 309.55 L 11.95 309.55 L 11.95 296.95 L 14.95 296.95 L 14.95 284.55 L 11.95 284.55 L 11.95 271.95 L 14.95 271.95 L 14.95 259.55 L 11.95 259.55 L 11.95 246.95 L 14.95 246.95 L 14.95 234.55 L 11.95 234.55 L 11.95 221.95 L 14.95 221.95 L 14.95 209.55 L 11.95 209.55 L 11.95 196.95 L 14.95 196.95 L 14.95 184.55 L 11.95 184.55 L 11.95 171.95 Z" class="cut" />
<path d="M 15.05 175.05 L 108.95 175.05 L 108.95 178.15 L 20.95 178.15 L 20.95 181.15 L 15.05 181.15 Z" class="cut" />
<path d="M 222.05 171.95 L 222.05 184.55 L 219.05 184.55 L 219.05 196.95 L 222.05 196.95 L 222.05 209.55 L 219.05 209.55 L 219.05 221.95 L 222.05 221.95 L 222.05 234.55 L 219.05 234.55 L 219.05 246.95 L 222.05 246.95 L 222.05 259.55 L 219.05 259.55 L 219.05 271.95 L 222.05 271.95 L 222.05 284.55 L 219.05 284.55 L 219.05 296.95 L 222.05 296.95 L 222.05 309.55 L 219.05 309.55 L 219.05 319.05 L 207.3 319.05 L 207.3 322.05 L 195.45 322.05 L 195.45 319.05 L 183.8 319.05 L 183.8 322.05 L 171.95 322.05 L 171.95 319.05 L 160.3 319.05 L 160.3 322.05 L 148.45 322.05 L 148.45 319.05 L 136.8 319.05 L 136.8 322.05 L 124.95 322.05 L 124.95 309.55 L 121.95 309.55 L 121.95 296.95 L 124.95 296.95 L 124.95 284.55 L 121.95 284.55 L 121.95 271.95 L 124.95 271.95 L 124.95 259.55 L 121.95 259.55 L 121.95 246.95 L 124.95 246.95 L 124.95 234.55 L 121.95 234.55 L 121.95 221.95 L 124.95 221.95 L 124.95 209.55 L 121.95 209.55 L 121.95 196.95 L 124.95 196.95 L 124.95 184.55 L 121.95 184.55 L 121.95 171.95 Z" class="cut" />
<path d="M 125.05 175.05 L 218.95 175.05 L 218.95 178.15 L 130.95 178.15 L 130.95 181.15 L 125.05 181.15 Z" class="cut" />
<path d="M 231.95 171.95 L 326.05 171.95 L 326.05 272.05 L 231.95 272.05 Z" class="cut" />
<path d="M 14.85 331.95 L 108.95 331.95 L 108.95 465.7 L 111.85 465.7 L 111.85 469.3 L 108.95 469.3 L 108.95 472.3 L 14.85 472.3 L 14.85 469.3 L 11.95 469.3 L 11.95 465.7 L 14.85 465.7 Z" class="cut" />
</svg>