<?xml version="1.0" encoding="UTF-8"?>
<svg xmlns="http://www.w3.org/2000/svg" width="344.05mm" height="844.3mm" viewBox="0 0 344.05 844.3">
<style>
.cut { fill: none; stroke: #000000; stroke-width: 0.15; vector-effect: non-scaling-stroke; }
</style>
<rect x="0" y="0" width="344.05" height="844.3" fill="#ffffff" />
<path d="M 14.95 14.95 L 14.95 11.95 L 26.8 11.95 L 26.8 14.95 L 38.45 14.95 L 38.45 11.95 L 50.3 11.95 L 50.3 14.95 L 61.95 14.95 L 61.95 11.95 L 73.8 11.95 L 73.8 14.95 L 85.45 14.95 L 85.45 11.95 L 97.3 11.95 L 97.3 14.95 L 112.05 14.95 L 112.05 27.175 L 109.05 27.175 L 109.05 39.2 L 112.05 39.2 L 112.05 51.425 L 109.05 51.425 L 109.05 63.45 L 112.05 63.45 L 112.05 75.675 L 109.05 75.675 L 109.05 87.7 L 112.05 87.7 L 112.05 99.925 L 109.05 99.925 L 109.05 111.95 L 112.05 111.95 L 112.05 124.175 L 109.05 124.175 L 109.05 136.2 L 112.05 136.2 L 112.05 148.425 L 109.05 148.425 L 109.05 160.45 L 112.05 160.45 L 112.05 172.675 L 109.05 172.675 L 109.05 184.7 L 112.05 184.7 L 112.05 196.925 L 109.05 196.925 L 109.05 212.05 L 97.2 212.05 L 97.2 209.05 L 85.55 209.05 L 85.55 212.05 L 73.7 212.05 L 73.7 209.05 L 62.05 209.05 L 62.05 212.05 L 50.2 212.05 L 50.2 209.05 L 38.55 209.05 L 38.55 212.05 L 26.7 212.05 L 26.7 209.05 L 14.95 209.05 L 14.95 196.925 L 11.95 196.925 L 11.95 184.7 L 14.95 184.7 L 14.95 172.675 L 11.95 172.675 L 11.95 160.45 L 14.95 160.45 L 14.95 148.425 L 11.95 148.425 L 11.95 136.2 L 14.95 136.2 L 14.95 124.175 L 11.95 124.175 L 11.95 111.95 L 14.95 111.95 L 14.95 99.925 L 11.95 99.925 L 11.95 87.7 L 14.95 87.7 L 14.95 75.675 L 11.95 75.675 L 11.95 63.45 L 14.95 63.45 L 14.95 51.425 L 11.95 51.425 L 11.95 39.2 L 14.95 39.2 L 14.95 27.175 L 11.95 27.175 L 11.95 14.95 Z" class="cut" />
<path d="M 219.05 11.95 L 219.05 24.45 L 222.05 24.45 L 222.05 37.05 L 219.05 37.05 L 219.05 49.45 L 222.05 49.45 L 222.05 62.05 L 219.05 62.05 L 219.05 74.45 L 222.05 74.45 L 222.05 87.05 L 219.05 87.05 L 219.05 99.45 L 222.05 99.45 L 222.05 112.05 L 219.05 112.05 L 219.05 124.45 L 222.05 124.45 L 222.05 137.05 L 219.05 137.05 L 219.05 149.45 L 222.05 149.45 L 222.05 162.05 L 219.05 162.05 L 219.05 174.45 L 222.05 174.45 L 222.05 187.05 L 219.05 187.05 L 219.05 199.45 L 222.05 199.45 L 222.05 209.05 L 209.55 209.05 L 209.55 212.05 L 196.95 212.05 L 196.95 209.05 L 184.55 209.05 L 184.55 212.05 L 171.95 212.05 L 171.95 209.05 L 159.55 209.05 L 159.55 212.05 L 146.95 212.05 L 146.95 209.05 L 134.55 209.05 L 134.55 212.05 L 121.95 212.05 L 121.95 199.45 L 124.95 199.45 L 124.95 187.05 L 121.95 187.05 L 121.95 174.45 L 124.95 174.45 L 124.95 162.05 L 121.95 162.05 L 121.95 149.45 L 124.95 149.45 L 124.95 137.05 L 121.95 137.05 L 121.95 124.45 L 124.95 124.45 L 124.95 112.05 L 121.95 112.05 L 121.95 99.45 L 124.95 99.45 L 124.95 87.05 L 121.95 87.05 L 121.95 74.45 L 124.95 74.45 L 124.95 62.05 L 121.95 62.05 L 121.95 49.45 L 124.95 49.45 L 124.95 37.05 L 121.95 37.05 L 121.95 24.45 L 124.95 24.45 L 124.95 11.95 Z" class="cut" />
<path d="M 145.5 201.55 L 148.5 201.55 L 148.5 205.95 L 145.5 205.95 Z" class="cut" />
<path d="M 170.5 201.55 L 173.5 201.55 L 173.5 205.95 L 170.5 205.95 Z" class="cut" />
<path d="M 195.5 201.55 L 198.5 201.55 L 198.5 205.95 L 195.5 205.95 Z" class="cut" />
<path d="M 329.05 11.95 L 329.05 24.45 L 332.05 24.45 L 332.05 37.05 L 329.05 37.05 L 329.05 49.45 L 332.05 49.45 L 332.05 62.05 L 329.05 62.05 L 329.05 74.45 L 332.05 74.45 L 332.05 87.05 L 329.05 87.05 L 329.05 99.45 L 332.05 99.45 L 332.05 112.05 L 329.05 112.05 L 329.05 124.45 L 332.05 124.45 L 332.05 137.05 L 329.05 137.05 L 329.05 149.45 L 332.05 149.45 L 332.05 162.05 L 329.05 162.05 L 329.05 174.45 L 332.05 174.45 L 332.05 187.05 L 329.05 187.05 L 329.05 199.45 L 332.05 199.45 L 332.05 209.05 L 319.55 209.05 L 319.55 212.05 L 306.95 212.05 L 306.95 209.05 L 294.55 209.05 L 294.55 212.05 L 281.95 212.05 L 281.95 209.05 L 269.55 209.05 L 269.55 212.05 L 256.95 212.05 L 256.95 209.05 L 244.55 209.05 L 244.55 212.05 L 231.95 212.05 L 231.95 199.45 L 234.95 199.45 L 234.95 187.05 L 231.95 187.05 L 231.95 174.45 L 234.95 174.45 L 234.95 162.05 L 231.95 162.05 L 231.95 149.45 L 234.95 149.45 L 234.95 137.05 L 231.95 137.05 L 231.95 124.45 L 234.95 124.45 L 234.95 112.05 L 231.95 112.05 L 231.95 99.45 L 234.95 99.45 L 234.95 87.05 L 231.95 87.05 L 231.95 74.45 L 234.95 74.45 L 234.95 62.05 L 231.95 62.05 L 231.95 49.45 L 234.95 49.45 L 234.95 37.05 L 231.95 37.05 L 231.95 24.45 L 234.95 24.45 L 234.95 11.95 Z" class="cut" />
<path d="M 255.5 201.55 L 258.5 201.55 L 258.5 205.95 L 255.5 205.95 Z" class="cut" />
<path d="M 280.5 201.55 L 283.5 201.55 L 283.5 205.95 L 280.5 205.95 Z" class="cut" />
<path d="M 305.5 201.55 L 308.5 201.55 L 308.5 205.95 L 305.5 205.95 Z" class="cut" />
<path d="M 212.05 221.95 L 212.05 234.55 L 209.05 234.55 L 209.05 246.95 L 212.05 246.95 L 212.05 259.55 L 209.05 259.55 L 209.05 271.95 L 212.05 271.95 L 212.05 284.55 L 209.05 284.55 L 209.05 296.95 L 212.05 296.95 L 212.05 309.55 L 209.05 309.55 L 209.05 321.95 L 212.05 321.95 L 212.05 334.55 L 209.05 334.55 L 209.05 346.95 L 212.05 346.95 L 212.05 359.55 L 209.05 359.55 L 209.05 371.95 L 212.05 371.95 L 212.05 384.55 L 209.05 384.55 L 209.05 396.95 L 212.05 396.95 L 212.05 409.55 L 209.05 409.55 L 209.05 419.05 L 196.925 419.05 L 196.925 422.05 L 184.7 422.05 L 184.7 419.05 L 172.675 419.05 L 172.675 422.05 L 160.45 422.05 L 160.45 419.05 L 148.425 419.05 L 148.425 422.05 L 136.2 422.05 L 136.2 419.05 L 124.175 419.05 L 124.175 422.05 L 111.95 422.05 L 111.95 419.05 L 99.925 419.05 L 99.925 422.05 L 87.7 422.05 L 87.7 419.05 L 75.675 419.05 L 75.675 422.05 L 63.45 422.05 L 63.45 419.05 L 51.425 419.05 L 51.425 422.05 L 39.2 422.05 L 39.2 419.05 L 27.175 419.05 L 27.175 422.05 L 14.95 422.05 L 14.95 409.55 L 11.95 409.55 L 11.95 396.95 L 14.95 396.95 L 14.95 384.55 L 11.95 384.55 L 11.95 371.95 L 14.95 371.95 L 14.95 359.55 L 11.95 359.55 L 11.95 346.95 L 14.95 346.95 L 14.95 334.55 L 11.95 334.55 L 11.95 321.95 L 14.95 321.95 L 14.95 309.55 L 11.95 309.55 L 11.95 296.95 L 14.95 296.95 L 14.95 284.55 L 11.95 284.55 L 11.95 271.95 L 14.95 271.95 L 14.95 259.55 L 11.95 259.55 L 11.95 246.95 L 14.95 246.95 L 14.95 234.55 L 11.95 234.55 L 11.95 221.95 Z" class="cut" />
<path d="M 15.05 225.05 L 208.95 225.05 L 208.95 228.15 L 20.95 228.15 L 20.95 231.15 L 15.05 231.15 Z" class="cut" />
<path d="M 212.05 431.95 L 212.05 444.55 L 209.05 444.55 L 209.05 456.95 L 212.05 456.95 L 212.05 469.55 L 209.05 469.55 L 209.05 481.95 L 212.05 481.95 L 212.05 494.55 L 209.05 494.55 L 209.05 506.95 L 212.05 506.95 L 212.05 519.55 L 209.05 519.55 L 209.05 531.95 L 212.05 531.95 L 212.05 544.55 L 209.05 544.55 L 209.05 556.95 L 212.05 556.95 L 212.05 569.55 L 209.05 569.55 L 209.05 581.95 L 212.05 581.95 L 212.05 594.55 L 209.05 594.55 L 209.05 606.95 L 212.05 606.95 L 212.05 619.55 L 209.05 619.55 L 209.05 629.05 L 196.925 629.05 L 196.925 632.05 L 184.7 632.05 L 184.7 629.05 L 172.675 629.05 L 172.675 632.05 L 160.45 632.05 L 160.45 629.05 L 148.425 629.05 L 148.425 632.05 L 136.2 632.05 L 136.2 629.05 L 124.175 629.05 L 124.175 632.05 L 111.95 632.05 L 111.95 629.05 L 99.925 629.05 L 99.925 632.05 L 87.7 632.05 L 87.7 629.05 L 75.675 629.05 L 75.675 632.05 L 63.45 632.05 L 63.45 629.05 L 51.425 629.05 L 51.425 632.05 L 39.2 632.05 L 39.2 629.05 L 27.175 629.05 L 27.175 632.05 L 14.95 632.05 L 14.95 619.55 L 11.95 619.55 L 11.95 606.95 L 14.95 606.95 L 14.95 594.55 L 11.95 594.55 L 11.95 581.95 L 14.95 581.95 L 14.95 569.55 L 11.95 569.55 L 11.95 556.95 L 14.95 556.95 L 14.95 544.55 L 11.95 544.55 L 11.95 531.95 L 14.95 531.95 L 14.95 519.55 L 11.95 519.55 L 11.95 506.95 L 14.95 506.95 L 14.95 494.55 L 11.95 494.55 L 11.95 481.95 L 14.95 481.95 L 14.95 469.55 L 11.95 469.55 L 11.95 456.95 L 14.95 456.95 L 14.95 444.55 L 11.95 444.55 L 11.95 431.95 Z" class="cut" />
<path d="M 15.05 435.05 L 208.95 435.05 L 208.95 438.15 L 20.95 438.15 L 20.95 441.15 L 15.05 441.15 Z" class="cut" />
<path d="M 221.95 431.95 L 316.05 431.95 L 316.05 632.05 L 221.95 632.05 Z" class="cut" />
<path d="M 14.85 641.95 L 208.95 641.95 L 208.95 825.7 L 211.85 825.7 L 211.85 829.3 L 208.95 829.3 L 208.95 832.3 L 14.85 832.3 L 14.85 829.3 L 11.95 829.3 L 11.95 825.7 L 14.85 825.7 Z" class="cut" />
</svg>