<?xml version="1.0" encoding="UTF-8"?>
<svg xmlns="http://www.w3.org/2000/svg" width="344mm" height="334.25mm" viewBox="0 0 344 334.25">
<style>
.cut { fill: none; stroke: #000000; stroke-width: 0.15; vector-effect: non-scaling-stroke; }
</style>
<rect x="0" y="0" width="344" height="334.25" fill="#ffffff" />
<path d="M 15 15 L 15 12 L 26.75 12 L 26.75 15 L 38.5 15 L 38.5 12 L 50.25 12 L 50.25 15 L 62 15 L 62 12 L 73.75 12 L 73.75 15 L 85.5 15 L 85.5 12 L 97.25 12 L 97.25 15 L 109 15 L 112 15 L 112 26.75 L 109 26.75 L 109 38.5 L 112 38.5 L 112 50.25 L 109 50.25 L 109 62 L 112 62 L 112 73.75 L 109 73.75 L 109 85.5 L 112 85.5 L 112 97.25 L 109 97.25 L 109 109 L 109 112 L 97.25 112 L 97.25 109 L 85.5 109 L 85.5 112 L 73.75 112 L 73.75 109 L 62 109 L 62 112 L 50.25 112 L 50.25 109 L 38.5 109 L 38.5 112 L 26.75 112 L 26.75 109 L 15 109 L 15 97.25 L 12 97.25 L 12 85.5 L 15 85.5 L 15 73.75 L 12 73.75 L 12 62 L 15 62 L 15 50.25 L 12 50.25 L 12 38.5 L 15 38.5 L 15 26.75 L 12 26.75 L 12 15 Z" class="cut" />
<path d="M 122 12 L 222 12 L 219 12 L 219 24.5 L 222 24.5 L 222 37 L 219 37 L 219 49.5 L 222 49.5 L 222 62 L 219 62 L 219 74.5 L 222 74.5 L 222 87 L 219 87 L 219 99.5 L 222 99.5 L 222 112 L 222 109 L 209.5 109 L 209.5 112 L 197 112 L 197 109 L 184.5 109 L 184.5 112 L 172 112 L 172 109 L 159.5 109 L 159.5 112 L 147 112 L 147 109 L 134.5 109 L 134.5 112 L 122 112 L 122 99.5 L 125 99.5 L 125 87 L 122 87 L 122 74.5 L 125 74.5 L 125 62 L 122 62 L 122 49.5 L 125 49.5 L 125 37 L 122 37 L 122 24.5 L 125 24.5 L 125 12 Z" class="cut" />
<path d="M 145.45 101.5 L 148.55 101.5 L 148.55 106 L 145.45 106 Z" class="cut" />
<path d="M 170.45 101.5 L 173.55 101.5 L 173.55 106 L 170.45 106 Z" class="cut" />
<path d="M 195.45 101.5 L 198.55 101.5 L 198.55 106 L 195.45 106 Z" class="cut" />
<path d="M 232 12 L 332 12 L 329 12 L 329 24.5 L 332 24.5 L 332 37 L 329 37 L 329 49.5 L 332 49.5 L 332 62 L 329 62 L 329 74.5 L 332 74.5 L 332 87 L 329 87 L 329 99.5 L 332 99.5 L 332 112 L 332 109 L 319.5 109 L 319.5 112 L 307 112 L 307 109 L 294.5 109 L 294.5 112 L 282 112 L 282 109 L 269.5 109 L 269.5 112 L 257 112 L 257 109 L 244.5 109 L 244.5 112 L 232 112 L 232 99.5 L 235 99.5 L 235 87 L 232 87 L 232 74.5 L 235 74.5 L 235 62 L 232 62 L 232 49.5 L 235 49.5 L 235 37 L 232 37 L 232 24.5 L 235 24.5 L 235 12 Z" class="cut" />
<path d="M 255.45 101.5 L 258.55 101.5 L 258.55 106 L 255.45 106 Z" class="cut" />
<path d="M 280.45 101.5 L 283.55 101.5 L 283.55 106 L 280.45 106 Z" class="cut" />
<path d="M 305.45 101.5 L 308.55 101.5 L 308.55 106 L 305.45 106 Z" class="cut" />
<path d="M 15 122 L 109 122 L 112 122 L 112 134.5 L 109 134.5 L 109 147 L 112 147 L 112 159.5 L 109 159.5 L 109 172 L 112 172 L 112 184.5 L 109 184.5 L 109 197 L 112 197 L 112 209.5 L 109 209.5 L 109 222 L 109 219 L 97.25 219 L 97.25 222 L 85.5 222 L 85.5 219 L 73.75 219 L 73.75 222 L 62 222 L 62 219 L 50.25 219 L 50.25 222 L 38.5 222 L 38.5 219 L 26.75 219 L 26.75 222 L 15 222 L 15 209.5 L 12 209.5 L 12 197 L 15 197 L 15 184.5 L 12 184.5 L 12 172 L 15 172 L 15 159.5 L 12 159.5 L 12 147 L 15 147 L 15 134.5 L 12 134.5 L 12 122 Z" class="cut" />
<path d="M 15 125 L 109 125 L 109 128.2 L 15 128.2 Z" class="cut" />
<path d="M 125 122 L 219 122 L 222 122 L 222 134.5 L 219 134.5 L 219 147 L 222 147 L 222 159.5 L 219 159.5 L 219 172 L 222 172 L 222 184.5 L 219 184.5 L 219 197 L 222 197 L 222 209.5 L 219 209.5 L 219 222 L 219 219 L 207.25 219 L 207.25 222 L 195.5 222 L 195.5 219 L 183.75 219 L 183.75 222 L 172 222 L 172 219 L 160.25 219 L 160.25 222 L 148.5 222 L 148.5 219 L 136.75 219 L 136.75 222 L 125 222 L 125 209.5 L 122 209.5 L 122 197 L 125 197 L 125 184.5 L 122 184.5 L 122 172 L 125 172 L 125 159.5 L 122 159.5 L 122 147 L 125 147 L 125 134.5 L 122 134.5 L 122 122 Z" class="cut" />
<path d="M 125 125 L 219 125 L 219 128.2 L 125 128.2 Z" class="cut" />
<path d="M 232 122 L 326 122 L 326 222 L 232 222 Z" class="cut" />
<path d="M 14.9 232 L 108.9 232 L 108.9 315.75 L 111.8 315.75 L 111.8 319.25 L 108.9 319.25 L 108.9 322.25 L 14.9 322.25 L 14.9 319.25 L 12 319.25 L 12 315.75 L 14.9 315.75 Z" class="cut" />
</svg>