<?xml version="1.0" encoding="UTF-8"?>
<svg xmlns="http://www.w3.org/2000/svg" width="414mm" height="424.25mm" viewBox="0 0 414 424.25">
<style>
.cut { fill: none; stroke: #000000; stroke-width: 0.15; vector-effect: non-scaling-stroke; }
</style>
<rect x="0" y="0" width="414" height="424.25" fill="#ffffff" />
<path d="M 15 15 L 15 12 L 26 12 L 26 15 L 37 15 L 37 12 L 48 12 L 48 15 L 59 15 L 62 15 L 62 26.75 L 59 26.75 L 59 38.5 L 62 38.5 L 62 50.25 L 59 50.25 L 59 62 L 62 62 L 62 73.75 L 59 73.75 L 59 85.5 L 62 85.5 L 62 97.25 L 59 97.25 L 59 109 L 59 112 L 48 112 L 48 109 L 37 109 L 37 112 L 26 112 L 26 109 L 15 109 L 15 97.25 L 12 97.25 L 12 85.5 L 15 85.5 L 15 73.75 L 12 73.75 L 12 62 L 15 62 L 15 50.25 L 12 50.25 L 12 38.5 L 15 38.5 L 15 26.75 L 12 26.75 L 12 15 Z" class="cut" />
<path d="M 72 12 L 122 12 L 119 12 L 119 24.5 L 122 24.5 L 122 37 L 119 37 L 119 49.5 L 122 49.5 L 122 62 L 119 62 L 119 74.5 L 122 74.5 L 122 87 L 119 87 L 119 99.5 L 122 99.5 L 122 112 L 119 112 L 119 124.5 L 122 124.5 L 122 137 L 119 137 L 119 149.5 L 122 149.5 L 122 162 L 119 162 L 119 174.5 L 122 174.5 L 122 187 L 119 187 L 119 199.5 L 122 199.5 L 122 212 L 122 209 L 109.5 209 L 109.5 212 L 97 212 L 97 209 L 84.5 209 L 84.5 212 L 72 212 L 72 199.5 L 75 199.5 L 75 187 L 72 187 L 72 174.5 L 75 174.5 L 75 162 L 72 162 L 72 149.5 L 75 149.5 L 75 137 L 72 137 L 72 124.5 L 75 124.5 L 75 112 L 72 112 L 72 99.5 L 75 99.5 L 75 87 L 72 87 L 72 74.5 L 75 74.5 L 75 62 L 72 62 L 72 49.5 L 75 49.5 L 75 37 L 72 37 L 72 24.5 L 75 24.5 L 75 12 Z" class="cut" />
<path d="M 95.45 201.5 L 98.55 201.5 L 98.55 206 L 95.45 206 Z" class="cut" />
<path d="M 132 12 L 182 12 L 179 12 L 179 24.5 L 182 24.5 L 182 37 L 179 37 L 179 49.5 L 182 49.5 L 182 62 L 179 62 L 179 74.5 L 182 74.5 L 182 87 L 179 87 L 179 99.5 L 182 99.5 L 182 112 L 179 112 L 179 124.5 L 182 124.5 L 182 137 L 179 137 L 179 149.5 L 182 149.5 L 182 162 L 179 162 L 179 174.5 L 182 174.5 L 182 187 L 179 187 L 179 199.5 L 182 199.5 L 182 212 L 182 209 L 169.5 209 L 169.5 212 L 157 212 L 157 209 L 144.5 209 L 144.5 212 L 132 212 L 132 199.5 L 135 199.5 L 135 187 L 132 187 L 132 174.5 L 135 174.5 L 135 162 L 132 162 L 132 149.5 L 135 149.5 L 135 137 L 132 137 L 132 124.5 L 135 124.5 L 135 112 L 132 112 L 132 99.5 L 135 99.5 L 135 87 L 132 87 L 132 74.5 L 135 74.5 L 135 62 L 132 62 L 132 49.5 L 135 49.5 L 135 37 L 132 37 L 132 24.5 L 135 24.5 L 135 12 Z" class="cut" />
<path d="M 155.45 201.5 L 158.55 201.5 L 158.55 206 L 155.45 206 Z" class="cut" />
<path d="M 195 12 L 289 12 L 292 12 L 292 24.5 L 289 24.5 L 289 37 L 292 37 L 292 49.5 L 289 49.5 L 289 62 L 292 62 L 292 74.5 L 289 74.5 L 289 87 L 292 87 L 292 99.5 L 289 99.5 L 289 112 L 292 112 L 292 124.5 L 289 124.5 L 289 137 L 292 137 L 292 149.5 L 289 149.5 L 289 162 L 292 162 L 292 174.5 L 289 174.5 L 289 187 L 292 187 L 292 199.5 L 289 199.5 L 289 212 L 289 209 L 277.25 209 L 277.25 212 L 265.5 212 L 265.5 209 L 253.75 209 L 253.75 212 L 242 212 L 242 209 L 230.25 209 L 230.25 212 L 218.5 212 L 218.5 209 L 206.75 209 L 206.75 212 L 195 212 L 195 199.5 L 192 199.5 L 192 187 L 195 187 L 195 174.5 L 192 174.5 L 192 162 L 195 162 L 195 149.5 L 192 149.5 L 192 137 L 195 137 L 195 124.5 L 192 124.5 L 192 112 L 195 112 L 195 99.5 L 192 99.5 L 192 87 L 195 87 L 195 74.5 L 192 74.5 L 192 62 L 195 62 L 195 49.5 L 192 49.5 L 192 37 L 195 37 L 195 24.5 L 192 24.5 L 192 12 Z" class="cut" />
<path d="M 195 15 L 289 15 L 289 18.2 L 195 18.2 Z" class="cut" />
<path d="M 305 12 L 399 12 L 402 12 L 402 24.5 L 399 24.5 L 399 37 L 402 37 L 402 49.5 L 399 49.5 L 399 62 L 402 62 L 402 74.5 L 399 74.5 L 399 87 L 402 87 L 402 99.5 L 399 99.5 L 399 112 L 402 112 L 402 124.5 L 399 124.5 L 399 137 L 402 137 L 402 149.5 L 399 149.5 L 399 162 L 402 162 L 402 174.5 L 399 174.5 L 399 187 L 402 187 L 402 199.5 L 399 199.5 L 399 212 L 399 209 L 387.25 209 L 387.25 212 L 375.5 212 L 375.5 209 L 363.75 209 L 363.75 212 L 352 212 L 352 209 L 340.25 209 L 340.25 212 L 328.5 212 L 328.5 209 L 316.75 209 L 316.75 212 L 305 212 L 305 199.5 L 302 199.5 L 302 187 L 305 187 L 305 174.5 L 302 174.5 L 302 162 L 305 162 L 305 149.5 L 302 149.5 L 302 137 L 305 137 L 305 124.5 L 302 124.5 L 302 112 L 305 112 L 305 99.5 L 302 99.5 L 302 87 L 305 87 L 305 74.5 L 302 74.5 L 302 62 L 305 62 L 305 49.5 L 302 49.5 L 302 37 L 305 37 L 305 24.5 L 302 24.5 L 302 12 Z" class="cut" />
<path d="M 305 15 L 399 15 L 399 18.2 L 305 18.2 Z" class="cut" />
<path d="M 12 222 L 56 222 L 56 322 L 12 322 Z" class="cut" />
<path d="M 68.9 222 L 162.9 222 L 162.9 405.75 L 165.8 405.75 L 165.8 409.25 L 162.9 409.25 L 162.9 412.25 L 68.9 412.25 L 68.9 409.25 L 66 409.25 L 66 405.75 L 68.9 405.75 Z" class="cut" />
</svg>