<?xml version="1.0" encoding="UTF-8"?>
<svg xmlns="http://www.w3.org/2000/svg" width="427.85mm" height="174.05mm" viewBox="0 0 427.85 174.05">
<style>
.cut { fill: none; stroke: #000000; stroke-width: 0.15; vector-effect: non-scaling-stroke; }
</style>
<rect x="0" y="0" width="427.85" height="174.05" fill="#ffffff" />
<path d="M 14.95 14.95 L 14.95 11.95 L 26.05 11.95 L 26.05 14.95 L 36.95 14.95 L 36.95 11.95 L 48.05 11.95 L 48.05 14.95 L 62.05 14.95 L 62.05 26.05 L 59.05 26.05 L 59.05 36.95 L 62.05 36.95 L 62.05 48.05 L 59.05 48.05 L 59.05 62.05 L 47.95 62.05 L 47.95 59.05 L 37.05 59.05 L 37.05 62.05 L 25.95 62.05 L 25.95 59.05 L 14.95 59.05 L 14.95 48.05 L 11.95 48.05 L 11.95 36.95 L 14.95 36.95 L 14.95 26.05 L 11.95 26.05 L 11.95 14.95 Z" class="cut" />
<path d="M 119.05 11.95 L 119.05 24.45 L 122.05 24.45 L 122.05 37.05 L 119.05 37.05 L 119.05 49.45 L 122.05 49.45 L 122.05 62.05 L 119.05 62.05 L 119.05 74.45 L 122.05 74.45 L 122.05 87.05 L 119.05 87.05 L 119.05 99.45 L 122.05 99.45 L 122.05 112.05 L 119.05 112.05 L 119.05 124.45 L 122.05 124.45 L 122.05 137.05 L 119.05 137.05 L 119.05 149.45 L 122.05 149.45 L 122.05 159.05 L 109.55 159.05 L 109.55 162.05 L 96.95 162.05 L 96.95 159.05 L 84.55 159.05 L 84.55 162.05 L 71.95 162.05 L 71.95 149.45 L 74.95 149.45 L 74.95 137.05 L 71.95 137.05 L 71.95 124.45 L 74.95 124.45 L 74.95 112.05 L 71.95 112.05 L 71.95 99.45 L 74.95 99.45 L 74.95 87.05 L 71.95 87.05 L 71.95 74.45 L 74.95 74.45 L 74.95 62.05 L 71.95 62.05 L 71.95 49.45 L 74.95 49.45 L 74.95 37.05 L 71.95 37.05 L 71.95 24.45 L 74.95 24.45 L 74.95 11.95 Z" class="cut" />
<path d="M 95.5 151.55 L 98.5 151.55 L 98.5 155.95 L 95.5 155.95 Z" class="cut" />
<path d="M 179.05 11.95 L 179.05 24.45 L 182.05 24.45 L 182.05 37.05 L 179.05 37.05 L 179.05 49.45 L 182.05 49.45 L 182.05 62.05 L 179.05 62.05 L 179.05 74.45 L 182.05 74.45 L 182.05 87.05 L 179.05 87.05 L 179.05 99.45 L 182.05 99.45 L 182.05 112.05 L 179.05 112.05 L 179.05 124.45 L 182.05 124.45 L 182.05 137.05 L 179.05 137.05 L 179.05 149.45 L 182.05 149.45 L 182.05 159.05 L 169.55 159.05 L 169.55 162.05 L 156.95 162.05 L 156.95 159.05 L 144.55 159.05 L 144.55 162.05 L 131.95 162.05 L 131.95 149.45 L 134.95 149.45 L 134.95 137.05 L 131.95 137.05 L 131.95 124.45 L 134.95 124.45 L 134.95 112.05 L 131.95 112.05 L 131.95 99.45 L 134.95 99.45 L 134.95 87.05 L 131.95 87.05 L 131.95 74.45 L 134.95 74.45 L 134.95 62.05 L 131.95 62.05 L 131.95 49.45 L 134.95 49.45 L 134.95 37.05 L 131.95 37.05 L 131.95 24.45 L 134.95 24.45 L 134.95 11.95 Z" class="cut" />
<path d="M 155.5 151.55 L 158.5 151.55 L 158.5 155.95 L 155.5 155.95 Z" class="cut" />
<path d="M 242.05 11.95 L 242.05 24.55 L 239.05 24.55 L 239.05 36.95 L 242.05 36.95 L 242.05 49.55 L 239.05 49.55 L 239.05 61.95 L 242.05 61.95 L 242.05 74.55 L 239.05 74.55 L 239.05 86.95 L 242.05 86.95 L 242.05 99.55 L 239.05 99.55 L 239.05 111.95 L 242.05 111.95 L 242.05 124.55 L 239.05 124.55 L 239.05 136.95 L 242.05 136.95 L 242.05 149.55 L 239.05 149.55 L 239.05 159.05 L 228.05 159.05 L 228.05 162.05 L 216.95 162.05 L 216.95 159.05 L 206.05 159.05 L 206.05 162.05 L 194.95 162.05 L 194.95 149.55 L 191.95 149.55 L 191.95 136.95 L 194.95 136.95 L 194.95 124.55 L 191.95 124.55 L 191.95 111.95 L 194.95 111.95 L 194.95 99.55 L 191.95 99.55 L 191.95 86.95 L 194.95 86.95 L 194.95 74.55 L 191.95 74.55 L 191.95 61.95 L 194.95 61.95 L 194.95 49.55 L 191.95 49.55 L 191.95 36.95 L 194.95 36.95 L 194.95 24.55 L 191.95 24.55 L 191.95 11.95 Z" class="cut" />
<path d="M 195.05 15.05 L 238.95 15.05 L 238.95 18.15 L 200.95 18.15 L 200.95 21.15 L 195.05 21.15 Z" class="cut" />
<path d="M 302.05 11.95 L 302.05 24.55 L 299.05 24.55 L 299.05 36.95 L 302.05 36.95 L 302.05 49.55 L 299.05 49.55 L 299.05 61.95 L 302.05 61.95 L 302.05 74.55 L 299.05 74.55 L 299.05 86.95 L 302.05 86.95 L 302.05 99.55 L 299.05 99.55 L 299.05 111.95 L 302.05 111.95 L 302.05 124.55 L 299.05 124.55 L 299.05 136.95 L 302.05 136.95 L 302.05 149.55 L 299.05 149.55 L 299.05 159.05 L 288.05 159.05 L 288.05 162.05 L 276.95 162.05 L 276.95 159.05 L 266.05 159.05 L 266.05 162.05 L 254.95 162.05 L 254.95 149.55 L 251.95 149.55 L 251.95 136.95 L 254.95 136.95 L 254.95 124.55 L 251.95 124.55 L 251.95 111.95 L 254.95 111.95 L 254.95 99.55 L 251.95 99.55 L 251.95 86.95 L 254.95 86.95 L 254.95 74.55 L 251.95 74.55 L 251.95 61.95 L 254.95 61.95 L 254.95 49.55 L 251.95 49.55 L 251.95 36.95 L 254.95 36.95 L 254.95 24.55 L 251.95 24.55 L 251.95 11.95 Z" class="cut" />
<path d="M 255.05 15.05 L 298.95 15.05 L 298.95 18.15 L 260.95 18.15 L 260.95 21.15 L 255.05 21.15 Z" class="cut" />
<path d="M 311.95 11.95 L 356.05 11.95 L 356.05 62.05 L 311.95 62.05 Z" class="cut" />
<path d="M 368.85 11.95 L 412.95 11.95 L 412.95 145.7 L 415.85 145.7 L 415.85 149.3 L 412.95 149.3 L 412.95 152.3 L 368.85 152.3 L 368.85 149.3 L 365.95 149.3 L 365.95 145.7 L 368.85 145.7 Z" class="cut" />
</svg>