<?xml version="1.0" encoding="UTF-8"?>
<svg xmlns="http://www.w3.org/2000/svg" width="427.8mm" height="224mm" viewBox="0 0 427.8 224">
<style>
.cut { fill: none; stroke: #000000; stroke-width: 0.15; vector-effect: non-scaling-stroke; }
</style>
<rect x="0" y="0" width="427.8" height="224" fill="#ffffff" />
<path d="M 15 15 L 15 12 L 26 12 L 26 15 L 37 15 L 37 12 L 48 12 L 48 15 L 59 15 L 62 15 L 62 26 L 59 26 L 59 37 L 62 37 L 62 48 L 59 48 L 59 59 L 59 62 L 48 62 L 48 59 L 37 59 L 37 62 L 26 62 L 26 59 L 15 59 L 15 48 L 12 48 L 12 37 L 15 37 L 15 26 L 12 26 L 12 15 Z" class="cut" />
<path d="M 72 12 L 122 12 L 119 12 L 119 24.5 L 122 24.5 L 122 37 L 119 37 L 119 49.5 L 122 49.5 L 122 62 L 119 62 L 119 74.5 L 122 74.5 L 122 87 L 119 87 L 119 99.5 L 122 99.5 L 122 112 L 119 112 L 119 124.5 L 122 124.5 L 122 137 L 119 137 L 119 149.5 L 122 149.5 L 122 162 L 119 162 L 119 174.5 L 122 174.5 L 122 187 L 119 187 L 119 199.5 L 122 199.5 L 122 212 L 122 209 L 109.5 209 L 109.5 212 L 97 212 L 97 209 L 84.5 209 L 84.5 212 L 72 212 L 72 199.5 L 75 199.5 L 75 187 L 72 187 L 72 174.5 L 75 174.5 L 75 162 L 72 162 L 72 149.5 L 75 149.5 L 75 137 L 72 137 L 72 124.5 L 75 124.5 L 75 112 L 72 112 L 72 99.5 L 75 99.5 L 75 87 L 72 87 L 72 74.5 L 75 74.5 L 75 62 L 72 62 L 72 49.5 L 75 49.5 L 75 37 L 72 37 L 72 24.5 L 75 24.5 L 75 12 Z" class="cut" />
<path d="M 95.45 201.5 L 98.55 201.5 L 98.55 206 L 95.45 206 Z" class="cut" />
<path d="M 132 12 L 182 12 L 179 12 L 179 24.5 L 182 24.5 L 182 37 L 179 37 L 179 49.5 L 182 49.5 L 182 62 L 179 62 L 179 74.5 L 182 74.5 L 182 87 L 179 87 L 179 99.5 L 182 99.5 L 182 112 L 179 112 L 179 124.5 L 182 124.5 L 182 137 L 179 137 L 179 149.5 L 182 149.5 L 182 162 L 179 162 L 179 174.5 L 182 174.5 L 182 187 L 179 187 L 179 199.5 L 182 199.5 L 182 212 L 182 209 L 169.5 209 L 169.5 212 L 157 212 L 157 209 L 144.5 209 L 144.5 212 L 132 212 L 132 199.5 L 135 199.5 L 135 187 L 132 187 L 132 174.5 L 135 174.5 L 135 162 L 132 162 L 132 149.5 L 135 149.5 L 135 137 L 132 137 L 132 124.5 L 135 124.5 L 135 112 L 132 112 L 132 99.5 L 135 99.5 L 135 87 L 132 87 L 132 74.5 L 135 74.5 L 135 62 L 132 62 L 132 49.5 L 135 49.5 L 135 37 L 132 37 L 132 24.5 L 135 24.5 L 135 12 Z" class="cut" />
<path d="M 155.45 201.5 L 158.55 201.5 L 158.55 206 L 155.45 206 Z" class="cut" />
<path d="M 195 12 L 239 12 L 242 12 L 242 24.5 L 239 24.5 L 239 37 L 242 37 L 242 49.5 L 239 49.5 L 239 62 L 242 62 L 242 74.5 L 239 74.5 L 239 87 L 242 87 L 242 99.5 L 239 99.5 L 239 112 L 242 112 L 242 124.5 L 239 124.5 L 239 137 L 242 137 L 242 149.5 L 239 149.5 L 239 162 L 242 162 L 242 174.5 L 239 174.5 L 239 187 L 242 187 L 242 199.5 L 239 199.5 L 239 212 L 239 209 L 228 209 L 228 212 L 217 212 L 217 209 L 206 209 L 206 212 L 195 212 L 195 199.5 L 192 199.5 L 192 187 L 195 187 L 195 174.5 L 192 174.5 L 192 162 L 195 162 L 195 149.5 L 192 149.5 L 192 137 L 195 137 L 195 124.5 L 192 124.5 L 192 112 L 195 112 L 195 99.5 L 192 99.5 L 192 87 L 195 87 L 195 74.5 L 192 74.5 L 192 62 L 195 62 L 195 49.5 L 192 49.5 L 192 37 L 195 37 L 195 24.5 L 192 24.5 L 192 12 Z" class="cut" />
<path d="M 195 15 L 239 15 L 239 18.2 L 195 18.2 Z" class="cut" />
<path d="M 255 12 L 299 12 L 302 12 L 302 24.5 L 299 24.5 L 299 37 L 302 37 L 302 49.5 L 299 49.5 L 299 62 L 302 62 L 302 74.5 L 299 74.5 L 299 87 L 302 87 L 302 99.5 L 299 99.5 L 299 112 L 302 112 L 302 124.5 L 299 124.5 L 299 137 L 302 137 L 302 149.5 L 299 149.5 L 299 162 L 302 162 L 302 174.5 L 299 174.5 L 299 187 L 302 187 L 302 199.5 L 299 199.5 L 299 212 L 299 209 L 288 209 L 288 212 L 277 212 L 277 209 L 266 209 L 266 212 L 255 212 L 255 199.5 L 252 199.5 L 252 187 L 255 187 L 255 174.5 L 252 174.5 L 252 162 L 255 162 L 255 149.5 L 252 149.5 L 252 137 L 255 137 L 255 124.5 L 252 124.5 L 252 112 L 255 112 L 255 99.5 L 252 99.5 L 252 87 L 255 87 L 255 74.5 L 252 74.5 L 252 62 L 255 62 L 255 49.5 L 252 49.5 L 252 37 L 255 37 L 255 24.5 L 252 24.5 L 252 12 Z" class="cut" />
<path d="M 255 15 L 299 15 L 299 18.2 L 255 18.2 Z" class="cut" />
<path d="M 312 12 L 356 12 L 356 62 L 312 62 Z" class="cut" />
<path d="M 368.9 12 L 412.9 12 L 412.9 195.75 L 415.8 195.75 L 415.8 199.25 L 412.9 199.25 L 412.9 202.25 L 368.9 202.25 L 368.9 199.25 L 366 199.25 L 366 195.75 L 368.9 195.75 Z" class="cut" />
</svg>