<?xml version="1.0" encoding="UTF-8"?>
<svg xmlns="http://www.w3.org/2000/svg" width="580mm" height="292mm" viewBox="0 0 580 292">
<style>
text { font-family: "Segoe UI", sans-serif; fill: #1f2937; }
.title { font-size: 8px; font-weight: 700; }
.meta { font-size: 4.2px; }
.label { font-size: 5px; font-weight: 600; }
.note { font-size: 3.2px; }
.sheet { fill: #f8fafc; stroke: #64748b; stroke-width: 0.5; stroke-dasharray: 3 2; }
.part { fill: #e2e8f0; stroke: #0f172a; stroke-width: 0.4; }
.inner-cut { fill: rgba(148, 163, 184, 0.18); stroke: #475569; stroke-width: 0.25; }
.marker-line { stroke: #64748b; stroke-width: 0.35; }
.marker-badge { fill: #ffffff; stroke: #0f172a; stroke-width: 0.35; }
.marker-text { font-size: 3.2px; font-weight: 700; text-anchor: middle; dominant-baseline: central; }
.legend-box { fill: #ffffff; stroke: #cbd5e1; stroke-width: 0.4; }
.legend-title { font-size: 5px; font-weight: 700; }
.legend-item { font-size: 3.4px; }
</style>
<rect x="0" y="0" width="580" height="292" fill="#ffffff" />
<text x="12" y="12" class="title">Box50 Layout Preview</text>
<text x="12" y="20" class="meta">Type A • Material 3 mm • Kerf 0.1 mm</text>
<text x="12" y="26" class="meta">External 50 × 100 × 50 mm</text>
<text x="12" y="32" class="meta">Internal 44.00 × 94.00 × 40.75 mm</text>
<text x="12" y="38" class="meta">Required sheet envelope 390.00 × 210.00 mm</text>
<text x="12" y="44" class="meta">Preview shows placed parts and internal cuts for sheet-size estimation.</text>
<rect x="12" y="70" width="390" height="210" class="sheet" />
<g>
<path d="M 15 73 L 15 70 L 26 70 L 26 73 L 37 73 L 37 70 L 48 70 L 48 73 L 59 73 L 62 73 L 62 84.75 L 59 84.75 L 59 96.5 L 62 96.5 L 62 108.25 L 59 108.25 L 59 120 L 62 120 L 62 131.75 L 59 131.75 L 59 143.5 L 62 143.5 L 62 155.25 L 59 155.25 L 59 167 L 59 170 L 48 170 L 48 167 L 37 167 L 37 170 L 26 170 L 26 167 L 15 167 L 15 155.25 L 12 155.25 L 12 143.5 L 15 143.5 L 15 131.75 L 12 131.75 L 12 120 L 15 120 L 15 108.25 L 12 108.25 L 12 96.5 L 15 96.5 L 15 84.75 L 12 84.75 L 12 73 Z" class="part" />

<line x1="37" y1="68.5" x2="37" y2="70" class="marker-line" />
<circle cx="37" cy="64" r="4.5" class="marker-badge" />
<text x="37" y="64" class="marker-text">1</text>
</g>
<g>
<path d="M 72 70 L 122 70 L 119 70 L 119 82.5 L 122 82.5 L 122 95 L 119 95 L 119 107.5 L 122 107.5 L 122 120 L 122 117 L 109.5 117 L 109.5 120 L 97 120 L 97 117 L 84.5 117 L 84.5 120 L 72 120 L 72 107.5 L 75 107.5 L 75 95 L 72 95 L 72 82.5 L 75 82.5 L 75 70 Z" class="part" />
<path d="M 95.45 109.5 L 98.55 109.5 L 98.55 114 L 95.45 114 Z" class="inner-cut" />
<line x1="97" y1="68.5" x2="97" y2="70" class="marker-line" />
<circle cx="97" cy="64" r="4.5" class="marker-badge" />
<text x="97" y="64" class="marker-text">2</text>
</g>
<g>
<path d="M 132 70 L 182 70 L 179 70 L 179 82.5 L 182 82.5 L 182 95 L 179 95 L 179 107.5 L 182 107.5 L 182 120 L 182 117 L 169.5 117 L 169.5 120 L 157 120 L 157 117 L 144.5 117 L 144.5 120 L 132 120 L 132 107.5 L 135 107.5 L 135 95 L 132 95 L 132 82.5 L 135 82.5 L 135 70 Z" class="part" />
<path d="M 155.45 109.5 L 158.55 109.5 L 158.55 114 L 155.45 114 Z" class="inner-cut" />
<line x1="157" y1="68.5" x2="157" y2="70" class="marker-line" />
<circle cx="157" cy="64" r="4.5" class="marker-badge" />
<text x="157" y="64" class="marker-text">3</text>
</g>
<g>
<path d="M 195 70 L 289 70 L 292 70 L 292 82.5 L 289 82.5 L 289 95 L 292 95 L 292 107.5 L 289 107.5 L 289 120 L 289 117 L 277.25 117 L 277.25 120 L 265.5 120 L 265.5 117 L 253.75 117 L 253.75 120 L 242 120 L 242 117 L 230.25 117 L 230.25 120 L 218.5 120 L 218.5 117 L 206.75 117 L 206.75 120 L 195 120 L 195 107.5 L 192 107.5 L 192 95 L 195 95 L 195 82.5 L 192 82.5 L 192 70 Z" class="part" />
<path d="M 195 73 L 289 73 L 289 76.2 L 195 76.2 Z" class="inner-cut" />
<line x1="242" y1="68.5" x2="242" y2="70" class="marker-line" />
<circle cx="242" cy="64" r="4.5" class="marker-badge" />
<text x="242" y="64" class="marker-text">4</text>
</g>
<g>
<path d="M 305 70 L 399 70 L 402 70 L 402 82.5 L 399 82.5 L 399 95 L 402 95 L 402 107.5 L 399 107.5 L 399 120 L 399 117 L 387.25 117 L 387.25 120 L 375.5 120 L 375.5 117 L 363.75 117 L 363.75 120 L 352 120 L 352 117 L 340.25 117 L 340.25 120 L 328.5 120 L 328.5 117 L 316.75 117 L 316.75 120 L 305 120 L 305 107.5 L 302 107.5 L 302 95 L 305 95 L 305 82.5 L 302 82.5 L 302 70 Z" class="part" />
<path d="M 305 73 L 399 73 L 399 76.2 L 305 76.2 Z" class="inner-cut" />
<line x1="352" y1="68.5" x2="352" y2="70" class="marker-line" />
<circle cx="352" cy="64" r="4.5" class="marker-badge" />
<text x="352" y="64" class="marker-text">5</text>
</g>
<g>
<path d="M 12 180 L 56 180 L 56 280 L 12 280 Z" class="part" />

<line x1="34" y1="177" x2="34" y2="180" class="marker-line" />
<circle cx="34" cy="172.5" r="4.5" class="marker-badge" />
<text x="34" y="172.5" class="marker-text">6</text>
</g>
<g>
<path d="M 68.9 180 L 162.9 180 L 162.9 213.75 L 165.8 213.75 L 165.8 217.25 L 162.9 217.25 L 162.9 220.25 L 68.9 220.25 L 68.9 217.25 L 66 217.25 L 66 213.75 L 68.9 213.75 Z" class="part" />

<line x1="115.9" y1="177" x2="115.9" y2="180" class="marker-line" />
<circle cx="115.9" cy="172.5" r="4.5" class="marker-badge" />
<text x="115.9" y="172.5" class="marker-text">7</text>
</g>
<g>
<rect x="418" y="70" width="150" height="120" rx="3" class="legend-box" />
<text x="426" y="78" class="legend-title">Placed Parts</text>
<circle cx="426" cy="82" r="4.5" class="marker-badge" />
<text x="426" y="82" class="marker-text">1</text>
<text x="436" y="80" class="legend-item">bottom ×1</text>
<text x="436" y="85" class="legend-item">50 × 100 mm</text>
<text x="436" y="90" class="legend-item">Base panel</text>
<circle cx="426" cy="98" r="4.5" class="marker-badge" />
<text x="426" y="98" class="marker-text">2</text>
<text x="436" y="96" class="legend-item">front-back ×1</text>
<text x="436" y="101" class="legend-item">50 × 50 mm</text>
<text x="436" y="106" class="legend-item">Main walls. Universal layout, rem…</text>
<circle cx="426" cy="114" r="4.5" class="marker-badge" />
<text x="426" y="114" class="marker-text">3</text>
<text x="436" y="112" class="legend-item">front-back ×1</text>
<text x="436" y="117" class="legend-item">50 × 50 mm</text>
<text x="436" y="122" class="legend-item">Main walls. Universal layout, rem…</text>
<circle cx="426" cy="130" r="4.5" class="marker-badge" />
<text x="426" y="130" class="marker-text">4</text>
<text x="436" y="128" class="legend-item">left-right ×1</text>
<text x="436" y="133" class="legend-item">100 × 50 mm</text>
<text x="436" y="138" class="legend-item">Side walls with future lid-rail g…</text>
<circle cx="426" cy="146" r="4.5" class="marker-badge" />
<text x="426" y="146" class="marker-text">5</text>
<text x="436" y="144" class="legend-item">left-right ×1</text>
<text x="436" y="149" class="legend-item">100 × 50 mm</text>
<text x="436" y="154" class="legend-item">Side walls with future lid-rail g…</text>
<circle cx="426" cy="162" r="4.5" class="marker-badge" />
<text x="426" y="162" class="marker-text">6</text>
<text x="436" y="160" class="legend-item">lid ×1</text>
<text x="436" y="165" class="legend-item">44 × 100 mm</text>
<text x="436" y="170" class="legend-item">Sliding lid with clearance 0.25 mm</text>
<circle cx="426" cy="178" r="4.5" class="marker-badge" />
<text x="426" y="178" class="marker-text">7</text>
<text x="436" y="176" class="legend-item">divider-depth-template ×1</text>
<text x="436" y="181" class="legend-item">99.8 × 40.25 mm</text>
<text x="436" y="186" class="legend-item">First removable divider template …</text>
</g>
</svg>