<?xml version="1.0" encoding="UTF-8"?>
<svg xmlns="http://www.w3.org/2000/svg" width="414.05mm" height="234.05mm" viewBox="0 0 414.05 234.05">
<style>
.cut { fill: none; stroke: #000000; stroke-width: 0.15; vector-effect: non-scaling-stroke; }
</style>
<rect x="0" y="0" width="414.05" height="234.05" fill="#ffffff" />
<path d="M 14.95 14.95 L 14.95 11.95 L 26.05 11.95 L 26.05 14.95 L 36.95 14.95 L 36.95 11.95 L 48.05 11.95 L 48.05 14.95 L 62.05 14.95 L 62.05 26.8 L 59.05 26.8 L 59.05 38.45 L 62.05 38.45 L 62.05 50.3 L 59.05 50.3 L 59.05 61.95 L 62.05 61.95 L 62.05 73.8 L 59.05 73.8 L 59.05 85.45 L 62.05 85.45 L 62.05 97.3 L 59.05 97.3 L 59.05 112.05 L 47.95 112.05 L 47.95 109.05 L 37.05 109.05 L 37.05 112.05 L 25.95 112.05 L 25.95 109.05 L 14.95 109.05 L 14.95 97.3 L 11.95 97.3 L 11.95 85.45 L 14.95 85.45 L 14.95 73.8 L 11.95 73.8 L 11.95 61.95 L 14.95 61.95 L 14.95 50.3 L 11.95 50.3 L 11.95 38.45 L 14.95 38.45 L 14.95 26.8 L 11.95 26.8 L 11.95 14.95 Z" class="cut" />
<path d="M 119.05 11.95 L 119.05 24.45 L 122.05 24.45 L 122.05 37.05 L 119.05 37.05 L 119.05 49.45 L 122.05 49.45 L 122.05 59.05 L 109.55 59.05 L 109.55 62.05 L 96.95 62.05 L 96.95 59.05 L 84.55 59.05 L 84.55 62.05 L 71.95 62.05 L 71.95 49.45 L 74.95 49.45 L 74.95 37.05 L 71.95 37.05 L 71.95 24.45 L 74.95 24.45 L 74.95 11.95 Z" class="cut" />
<path d="M 95.5 51.55 L 98.5 51.55 L 98.5 55.95 L 95.5 55.95 Z" class="cut" />
<path d="M 179.05 11.95 L 179.05 24.45 L 182.05 24.45 L 182.05 37.05 L 179.05 37.05 L 179.05 49.45 L 182.05 49.45 L 182.05 59.05 L 169.55 59.05 L 169.55 62.05 L 156.95 62.05 L 156.95 59.05 L 144.55 59.05 L 144.55 62.05 L 131.95 62.05 L 131.95 49.45 L 134.95 49.45 L 134.95 37.05 L 131.95 37.05 L 131.95 24.45 L 134.95 24.45 L 134.95 11.95 Z" class="cut" />
<path d="M 155.5 51.55 L 158.5 51.55 L 158.5 55.95 L 155.5 55.95 Z" class="cut" />
<path d="M 292.05 11.95 L 292.05 24.55 L 289.05 24.55 L 289.05 36.95 L 292.05 36.95 L 292.05 49.55 L 289.05 49.55 L 289.05 59.05 L 277.3 59.05 L 277.3 62.05 L 265.45 62.05 L 265.45 59.05 L 253.8 59.05 L 253.8 62.05 L 241.95 62.05 L 241.95 59.05 L 230.3 59.05 L 230.3 62.05 L 218.45 62.05 L 218.45 59.05 L 206.8 59.05 L 206.8 62.05 L 194.95 62.05 L 194.95 49.55 L 191.95 49.55 L 191.95 36.95 L 194.95 36.95 L 194.95 24.55 L 191.95 24.55 L 191.95 11.95 Z" class="cut" />
<path d="M 195.05 15.05 L 288.95 15.05 L 288.95 18.15 L 200.95 18.15 L 200.95 21.15 L 195.05 21.15 Z" class="cut" />
<path d="M 402.05 11.95 L 402.05 24.55 L 399.05 24.55 L 399.05 36.95 L 402.05 36.95 L 402.05 49.55 L 399.05 49.55 L 399.05 59.05 L 387.3 59.05 L 387.3 62.05 L 375.45 62.05 L 375.45 59.05 L 363.8 59.05 L 363.8 62.05 L 351.95 62.05 L 351.95 59.05 L 340.3 59.05 L 340.3 62.05 L 328.45 62.05 L 328.45 59.05 L 316.8 59.05 L 316.8 62.05 L 304.95 62.05 L 304.95 49.55 L 301.95 49.55 L 301.95 36.95 L 304.95 36.95 L 304.95 24.55 L 301.95 24.55 L 301.95 11.95 Z" class="cut" />
<path d="M 305.05 15.05 L 398.95 15.05 L 398.95 18.15 L 310.95 18.15 L 310.95 21.15 L 305.05 21.15 Z" class="cut" />
<path d="M 11.95 121.95 L 56.05 121.95 L 56.05 222.05 L 11.95 222.05 Z" class="cut" />
<path d="M 68.85 121.95 L 162.95 121.95 L 162.95 155.7 L 165.85 155.7 L 165.85 159.3 L 162.95 159.3 L 162.95 162.3 L 68.85 162.3 L 68.85 159.3 L 65.95 159.3 L 65.95 155.7 L 68.85 155.7 Z" class="cut" />
</svg>