<?xml version="1.0" encoding="UTF-8"?>
<svg xmlns="http://www.w3.org/2000/svg" width="344mm" height="484.25mm" viewBox="0 0 344 484.25">
<style>
.cut { fill: none; stroke: #000000; stroke-width: 0.15; vector-effect: non-scaling-stroke; }
</style>
<rect x="0" y="0" width="344" height="484.25" fill="#ffffff" />
<path d="M 15 15 L 15 12 L 26.75 12 L 26.75 15 L 38.5 15 L 38.5 12 L 50.25 12 L 50.25 15 L 62 15 L 62 12 L 73.75 12 L 73.75 15 L 85.5 15 L 85.5 12 L 97.25 12 L 97.25 15 L 109 15 L 112 15 L 112 26.75 L 109 26.75 L 109 38.5 L 112 38.5 L 112 50.25 L 109 50.25 L 109 62 L 112 62 L 112 73.75 L 109 73.75 L 109 85.5 L 112 85.5 L 112 97.25 L 109 97.25 L 109 109 L 109 112 L 97.25 112 L 97.25 109 L 85.5 109 L 85.5 112 L 73.75 112 L 73.75 109 L 62 109 L 62 112 L 50.25 112 L 50.25 109 L 38.5 109 L 38.5 112 L 26.75 112 L 26.75 109 L 15 109 L 15 97.25 L 12 97.25 L 12 85.5 L 15 85.5 L 15 73.75 L 12 73.75 L 12 62 L 15 62 L 15 50.25 L 12 50.25 L 12 38.5 L 15 38.5 L 15 26.75 L 12 26.75 L 12 15 Z" class="cut" />
<path d="M 122 12 L 222 12 L 219 12 L 219 24.5 L 222 24.5 L 222 37 L 219 37 L 219 49.5 L 222 49.5 L 222 62 L 219 62 L 219 74.5 L 222 74.5 L 222 87 L 219 87 L 219 99.5 L 222 99.5 L 222 112 L 219 112 L 219 124.5 L 222 124.5 L 222 137 L 219 137 L 219 149.5 L 222 149.5 L 222 162 L 222 159 L 209.5 159 L 209.5 162 L 197 162 L 197 159 L 184.5 159 L 184.5 162 L 172 162 L 172 159 L 159.5 159 L 159.5 162 L 147 162 L 147 159 L 134.5 159 L 134.5 162 L 122 162 L 122 149.5 L 125 149.5 L 125 137 L 122 137 L 122 124.5 L 125 124.5 L 125 112 L 122 112 L 122 99.5 L 125 99.5 L 125 87 L 122 87 L 122 74.5 L 125 74.5 L 125 62 L 122 62 L 122 49.5 L 125 49.5 L 125 37 L 122 37 L 122 24.5 L 125 24.5 L 125 12 Z" class="cut" />
<path d="M 145.45 151.5 L 148.55 151.5 L 148.55 156 L 145.45 156 Z" class="cut" />
<path d="M 170.45 151.5 L 173.55 151.5 L 173.55 156 L 170.45 156 Z" class="cut" />
<path d="M 195.45 151.5 L 198.55 151.5 L 198.55 156 L 195.45 156 Z" class="cut" />
<path d="M 232 12 L 332 12 L 329 12 L 329 24.5 L 332 24.5 L 332 37 L 329 37 L 329 49.5 L 332 49.5 L 332 62 L 329 62 L 329 74.5 L 332 74.5 L 332 87 L 329 87 L 329 99.5 L 332 99.5 L 332 112 L 329 112 L 329 124.5 L 332 124.5 L 332 137 L 329 137 L 329 149.5 L 332 149.5 L 332 162 L 332 159 L 319.5 159 L 319.5 162 L 307 162 L 307 159 L 294.5 159 L 294.5 162 L 282 162 L 282 159 L 269.5 159 L 269.5 162 L 257 162 L 257 159 L 244.5 159 L 244.5 162 L 232 162 L 232 149.5 L 235 149.5 L 235 137 L 232 137 L 232 124.5 L 235 124.5 L 235 112 L 232 112 L 232 99.5 L 235 99.5 L 235 87 L 232 87 L 232 74.5 L 235 74.5 L 235 62 L 232 62 L 232 49.5 L 235 49.5 L 235 37 L 232 37 L 232 24.5 L 235 24.5 L 235 12 Z" class="cut" />
<path d="M 255.45 151.5 L 258.55 151.5 L 258.55 156 L 255.45 156 Z" class="cut" />
<path d="M 280.45 151.5 L 283.55 151.5 L 283.55 156 L 280.45 156 Z" class="cut" />
<path d="M 305.45 151.5 L 308.55 151.5 L 308.55 156 L 305.45 156 Z" class="cut" />
<path d="M 15 172 L 109 172 L 112 172 L 112 184.5 L 109 184.5 L 109 197 L 112 197 L 112 209.5 L 109 209.5 L 109 222 L 112 222 L 112 234.5 L 109 234.5 L 109 247 L 112 247 L 112 259.5 L 109 259.5 L 109 272 L 112 272 L 112 284.5 L 109 284.5 L 109 297 L 112 297 L 112 309.5 L 109 309.5 L 109 322 L 109 319 L 97.25 319 L 97.25 322 L 85.5 322 L 85.5 319 L 73.75 319 L 73.75 322 L 62 322 L 62 319 L 50.25 319 L 50.25 322 L 38.5 322 L 38.5 319 L 26.75 319 L 26.75 322 L 15 322 L 15 309.5 L 12 309.5 L 12 297 L 15 297 L 15 284.5 L 12 284.5 L 12 272 L 15 272 L 15 259.5 L 12 259.5 L 12 247 L 15 247 L 15 234.5 L 12 234.5 L 12 222 L 15 222 L 15 209.5 L 12 209.5 L 12 197 L 15 197 L 15 184.5 L 12 184.5 L 12 172 Z" class="cut" />
<path d="M 15 175 L 109 175 L 109 178.2 L 15 178.2 Z" class="cut" />
<path d="M 125 172 L 219 172 L 222 172 L 222 184.5 L 219 184.5 L 219 197 L 222 197 L 222 209.5 L 219 209.5 L 219 222 L 222 222 L 222 234.5 L 219 234.5 L 219 247 L 222 247 L 222 259.5 L 219 259.5 L 219 272 L 222 272 L 222 284.5 L 219 284.5 L 219 297 L 222 297 L 222 309.5 L 219 309.5 L 219 322 L 219 319 L 207.25 319 L 207.25 322 L 195.5 322 L 195.5 319 L 183.75 319 L 183.75 322 L 172 322 L 172 319 L 160.25 319 L 160.25 322 L 148.5 322 L 148.5 319 L 136.75 319 L 136.75 322 L 125 322 L 125 309.5 L 122 309.5 L 122 297 L 125 297 L 125 284.5 L 122 284.5 L 122 272 L 125 272 L 125 259.5 L 122 259.5 L 122 247 L 125 247 L 125 234.5 L 122 234.5 L 122 222 L 125 222 L 125 209.5 L 122 209.5 L 122 197 L 125 197 L 125 184.5 L 122 184.5 L 122 172 Z" class="cut" />
<path d="M 125 175 L 219 175 L 219 178.2 L 125 178.2 Z" class="cut" />
<path d="M 232 172 L 326 172 L 326 272 L 232 272 Z" class="cut" />
<path d="M 14.9 332 L 108.9 332 L 108.9 465.75 L 111.8 465.75 L 111.8 469.25 L 108.9 469.25 L 108.9 472.25 L 14.9 472.25 L 14.9 469.25 L 12 469.25 L 12 465.75 L 14.9 465.75 Z" class="cut" />
</svg>